<svg enable-background="new 0 0 538 273.9" height="274" viewBox="0 0 538 273.9" width="538" xmlns="http://www.w3.org/2000/svg"><path d="m533 268.9h-150c0-62.8-51.1-114-114-114s-114 51.1-114 114h-150c0-70.5 27.5-136.8 77.3-186.6s116.1-77.3 186.6-77.3 136.8 27.5 186.6 77.3c50 49.8 77.5 116.1 77.5 186.6z" fill="#e0719e"/><path d="m533 273.9h-150c-2.8 0-5-2.2-5-5 0-60.1-48.9-109-109-109s-109 48.9-109 109c0 2.8-2.2 5-5 5h-150c-2.8 0-5-2.2-5-5 0-71.8 28-139.3 78.8-190.1s118.3-78.8 190.1-78.8 139.3 28 190.1 78.8c50.9 50.7 79 118.2 79 190.1 0 2.8-2.2 5-5 5zm-145.1-10h140.1c-1.3-67.3-28.1-130.4-76-178.1-48.9-48.9-114-75.8-183.1-75.8s-134.2 26.9-183.1 75.8c-47.7 47.8-74.5 110.8-75.8 178.1h140.1c2.6-63.3 55-114 118.9-114s116.3 50.7 118.9 114z" fill="#383a48"/><path d="m358.3 268.7v-.2c-.1-49.5-40.4-89.8-90-89.8-49.5 0-89.9 40.2-90 89.8v.2h-118.4c0-55.7 21.7-108 61-147.4 39.4-39.4 91.7-61 147.4-61s108 21.7 147.4 61c39.4 39.4 61 91.7 61 147.4z" fill="#f6e049"/><path d="m476.7 273.7h-118.4c-2.8 0-5-2.2-5-5v-.2c-.1-46.8-38.2-84.8-85-84.8s-84.9 38-85 84.8v.2c0 2.8-2.2 5-5 5h-118.4c-2.8 0-5-2.2-5-5 0-56.9 22.2-110.6 62.5-150.9s93.9-62.5 150.9-62.5c56.9 0 110.6 22.2 150.9 62.5s62.5 93.9 62.5 150.9c-0 2.8-2.2 5-5 5zm-113.5-10h108.5c-1.3-52.5-22.3-101.7-59.5-138.9-38.5-38.4-89.6-59.5-143.9-59.5-54.4 0-105.5 21.1-143.9 59.5-37.2 37.3-58.2 86.5-59.4 138.9h108.5c2.6-50.1 44.2-90 94.9-90 50.6 0 92.2 39.9 94.8 90z" fill="#383a48"/><path d="m417.5 268.5h-59.3c-.1-49.5-40.4-89.8-90-89.8-49.5 0-89.9 40.2-90 89.8h-60.8c0-40.1 15.6-77.7 43.9-106s66-43.9 106.1-43.9 77.7 15.6 106.1 43.9c28.4 28.2 44 65.9 44 106z" fill="#aac6fc"/><path d="m417.5 273.5h-59.3c-2.8 0-5-2.2-5-5-.1-46.8-38.2-84.8-85-84.8s-84.9 38-85 84.8c0 2.8-2.2 5-5 5h-60.8c-2.8 0-5-2.2-5-5 0-41.4 16.1-80.3 45.4-109.5 29.3-29.3 68.2-45.4 109.6-45.4 41.3 0 80.3 16.1 109.6 45.4 29.3 29.1 45.5 68 45.5 109.5 0 2.8-2.2 5-5 5zm-54.4-10h49.4c-1.2-37-16.2-71.4-42.4-97.5-27.5-27.4-63.9-42.4-102.6-42.4-38.8 0-75.2 15.1-102.6 42.4-26.2 26.2-41.1 60.6-42.4 97.5h50.9c2.7-50 44.3-89.8 94.9-89.8 50.5 0 92.1 39.8 94.8 89.8z" fill="#383a48"/></svg>