<svg enable-background="new 0 0 348.4 348.4" height="349" viewBox="0 0 348.4 348.4" width="349" xmlns="http://www.w3.org/2000/svg"><circle cx="174.2" cy="174.2" fill="#f6e049" r="169.2"/><g fill="#383a48"><path d="m174.2 348.4c-96.1 0-174.2-78.1-174.2-174.2s78.1-174.2 174.2-174.2 174.2 78.1 174.2 174.2-78.1 174.2-174.2 174.2zm0-338.4c-90.5 0-164.2 73.7-164.2 164.2s73.7 164.2 164.2 164.2 164.2-73.7 164.2-164.2-73.7-164.2-164.2-164.2z"/><circle cx="120.1" cy="149.6" r="18.1"/><circle cx="228.3" cy="149.6" r="18.1"/><path d="m174.2 248.5c-25.3 0-48.5-14.9-59-37.9-1.2-2.5-.1-5.5 2.5-6.6 2.5-1.2 5.5-.1 6.6 2.5 8.9 19.5 28.6 32.1 50 32.1s41-12.6 50-32.1c1.2-2.5 4.1-3.6 6.6-2.4s3.6 4.1 2.4 6.6c-10.7 22.9-33.9 37.8-59.1 37.8z"/></g></svg>