<svg viewBox="0 0 279.99999999999994 279.99999999999994" xmlns="http://www.w3.org/2000/svg" xmlns:xlink="http://www.w3.org/1999/xlink" overflow="visible" width="279.99999999999994px" height="279.99999999999994px"><defs><circle id="masteravataaardefault-with-backdrop-path-1" cx="140" cy="140" r="140"/><path d="M83,36.3476251 C83,52.6289957 105.161905,65.8276544 132.5,65.8276544 C159.838095,65.8276544 182,52.6289957 182,36.3476251 C182,34.9853134 181.844841,33.6445843 181.544472,32.3313638 C210.784239,41.4879251 232,68.792221 232,101.051724 L232,110 L32,110 L32,101.051724 C32,68.3970853 53.7386736,40.8197864 83.5337207,32.0021267 C83.1821692,33.4207025 83,34.871494 83,36.3476251 Z" id="masteravataaardefault-with-backdrop-path-3"/></defs><g id="Master/Avataaar/Default with Backdrop" stroke="none" stroke-width="1" fill="none" fill-rule="evenodd"><mask id="masteravataaardefault-with-backdrop-mask-2" fill="#ffffff"><use xlink:href="#masteravataaardefault-with-backdrop-path-1" fill="#ffffff"/></mask><use id="Oval" fill="#ebc3e5" xlink:href="#masteravataaardefault-with-backdrop-path-1"/><g id="Group" mask="url(#masteravataaardefault-with-backdrop-mask-2)"><g transform="translate(7.000000, 0.000000)"><path d="M133,36 C163.927946,36 189,61.072054 189,92 L189.000809,98.1660527 C194.675838,99.1185422 199,104.05429 199,110 L199,124 C199,130.052417 194.519235,135.058294 188.693975,135.881364 C186.627928,155.686472 174.237929,172.421678 157.001014,180.610469 L157,199 L161,199 C200.764502,199 233,231.235498 233,271 L233,280 L33,280 L33,271 C33,231.235498 65.235498,199 105,199 L109,199 L108.999984,180.610943 C91.7625487,172.422324 79.3721119,155.686854 77.3051107,135.88097 C71.480765,135.058294 67,130.052417 67,124 L67,110 C67,104.053942 71.3246685,99.1179645 77.0001873,98.1658855 L77,92 C77,61.072054 102.072054,36 133,36 Z" id="Body" fill="#d4a181" fill-rule="evenodd"/><path d="M108.998216,180.610103 C116.272713,184.066155 124.410519,186 133,186 C141.588785,186 149.725969,184.066469 157.000016,180.610943 L157.000353,185.94579 C150.441661,190.398372 142.524652,193 134,193 C124.589035,193 115.918635,189.829263 108.998807,184.497795 Z" id="shadow" fill-opacity=".24" fill="#000" fill-rule="evenodd"/><g id="Nose" fill="none" transform="translate(105.000000, 122.000000) scale(1 1)" fill-rule="evenodd"><g id="Nose/Wide" stroke="none" stroke-width="1" fill="none" fill-rule="evenodd"><path d="M13,6 C13,12.627417 16.8281211,18 28,18 C39.1718789,18 43,12.627417 43,6 C39.0361818,6 32.8972468,9 27.83815,9 C23.0794079,9 17.1013384,6 13,6 Z" id="Nose" fill-opacity=".16" fill="#000"/></g></g><g id="Clothing" fill="none" transform="translate(1.000000, 170.000000) scale(1 1)"><g id="Clothing/Gladiator" stroke="none" stroke-width="1" fill="none" fill-rule="evenodd"><g id="Armor" transform="translate(56.000000, 27.000000)"><polygon id="Fill-1" fill="#e65ed4" points="89.8983 21.7978 62.2013 21.7978 31.6003 21.7978 0.0003 52.3028 0.0003 82.5488 62.2013 82.5488 89.8983 82.5488 152.1003 82.5488 152.1003 52.3028 120.5003 21.7978"/><path d="M31.6002,21.7976 L11.5112,41.1916 C12.1622,50.0706 19.5552,57.0766 28.6002,57.0766 L28.6002,57.0766 C38.0742,57.0766 45.7542,49.3976 45.7542,39.9236 L45.7542,21.7976 L31.6002,21.7976 Z" id="Fill-2" fill-opacity=".24" fill="#000"/><path d="M14.1613,5.9939 C14.1613,5.9939 25.3313,-0.0001 43.0393,-0.0001 L43.0393,37.7339 C43.0393,45.7089 36.5753,52.1739 28.6003,52.1739 L28.6003,52.1739 C20.6263,52.1739 14.1613,45.7089 14.1613,37.7339 L14.1613,5.9939 Z" id="Fill-4" fill="#e65ed4"/><path d="M120.756,21.7976 L140.845,41.1916 C140.193,50.0706 132.801,57.0766 123.755,57.0766 C114.281,57.0766 106.602,49.3976 106.602,39.9236 L106.602,21.7976 L120.756,21.7976 Z" id="Fill-6" fill-opacity=".24" fill="#000"/><path d="M138.1945,5.9939 C138.1945,5.9939 127.0245,-0.0001 109.3165,-0.0001 L109.3165,37.7339 C109.3165,45.7089 115.7805,52.1739 123.7555,52.1739 C131.7295,52.1739 138.1945,45.7089 138.1945,37.7339 L138.1945,5.9939 Z" id="Fill-8" fill="#e65ed4"/><path d="M36.5011,37.0515 C36.5011,40.9635 33.3301,44.1345 29.4181,44.1345 C25.5051,44.1345 22.3341,40.9635 22.3341,37.0515 C22.3341,33.1395 25.5051,29.9685 29.4181,29.9685 C33.3301,29.9685 36.5011,33.1395 36.5011,37.0515" id="Fill-10" fill-opacity=".24" fill="#000"/><path d="M130.839,37.0515 C130.839,40.9635 127.667,44.1345 123.755,44.1345 C119.843,44.1345 116.672,40.9635 116.672,37.0515 C116.672,33.1395 119.843,29.9685 123.755,29.9685 C127.667,29.9685 130.839,33.1395 130.839,37.0515" id="Fill-12" fill-opacity=".24" fill="#000"/><path d="M33.6227,82.5486 L62.2017,82.5486 L89.8987,82.5486 L119.0577,82.5486 C112.9127,64.8676 96.1137,52.1736 76.3397,52.1736 C56.5667,52.1736 39.7687,64.8676 33.6227,82.5486" id="Fill-14" fill-opacity=".24" fill="#000"/></g></g></g><g id="Mouth" fill="none" transform="translate(79.000000, 134.000000) scale(1 1)" fill-rule="evenodd"><g id="Mouth/Tongue" stroke="none" stroke-width="1" fill="none" fill-rule="evenodd"><path d="M29,15.6086957 C30.410031,25.2313711 41.062182,33 54,33 C66.9681454,33 77.6461342,25.183301 79,14.7391304 C79.1012093,14.3397326 78.775269,13 76.826087,13 C56.838426,13 41.7395748,13 31.173913,13 C29.3833142,13 28.870211,14.2404669 29,15.6086957 Z" id="Mouth" fill-opacity=".7" fill="#000"/><path d="M70,13 C70,15.7614237 67.7614237,18 65,18 L44,18 C41.2385763,18 39,15.7614237 39,13 L70,13 Z" id="Path" fill="#FFF"/><path d="M59.5,20 C63.0898509,20 66,21.5670034 66,23.5 C66,23.5829439 65.9946418,23.6652139 65.9841015,23.7467151 C65.9945755,23.8293228 66,23.9140279 66,24 L66,33 C66,39.0751322 61.0751322,44 55,44 L54,44 C47.9248678,44 43,39.0751322 43,33 L43,24 C43,23.9140279 43.0054245,23.8293228 43.0159499,23.7462082 C43.0053582,23.6652139 43,23.5829439 43,23.5 C43,21.5670034 45.9101491,20 49.5,20 C51.5111815,20 53.3090251,20.4918353 54.5013226,21.2643168 C55.6919663,20.4915641 57.489373,20 59.5,20 Z" id="Path" fill="#FF4F6D"/></g></g><g id="Eyes" fill="none" transform="translate(77.000000, 90.000000) scale(1 1)" fill-rule="evenodd"><g id="Eyes/Happy" stroke="none" stroke-width="1" fill="none" fill-rule="evenodd"><path d="M16.1601674,22.4473116 C18.006676,18.648508 22.1644225,16 26.9975803,16 C31.8136766,16 35.9591217,18.629842 37.8153518,22.4071242 C38.3667605,23.5291977 37.5821037,24.4474817 36.790607,23.7670228 C34.3395063,21.6597833 30.8587163,20.3437884 26.9975803,20.3437884 C23.2572061,20.3437884 19.8737584,21.5787519 17.4375392,23.5716412 C16.5467928,24.3002944 15.6201012,23.5583844 16.1601674,22.4473116 Z" id="Squint" fill-opacity=".6" fill="#000"/><path d="M74.1601674,22.4473116 C76.006676,18.648508 80.1644225,16 84.9975803,16 C89.8136766,16 93.9591217,18.629842 95.8153518,22.4071242 C96.3667605,23.5291977 95.5821037,24.4474817 94.790607,23.7670228 C92.3395063,21.6597833 88.8587163,20.3437884 84.9975803,20.3437884 C81.2572061,20.3437884 77.8737584,21.5787519 75.4375392,23.5716412 C74.5467928,24.3002944 73.6201012,23.5583844 74.1601674,22.4473116 Z" id="Squint" fill-opacity=".6" fill="#000"/></g></g><g id="Eyebrow/Outline" fill="none" transform="translate(77.000000, 82.000000) scale(1 1)" fill-rule="evenodd"><g id="Eyebrow/Outline/Default" stroke="none" stroke-width="1" fill="none" fill-rule="evenodd"><g id="I-Browse" transform="translate(12.000000, 6.000000)" fill="#000" fill-opacity=".6" fill-rule="nonzero"><path d="M3.63024536,11.1585767 C7.54515501,5.64986673 18.2779197,2.56083721 27.5230268,4.83118046 C28.5957248,5.0946055 29.6788665,4.43856013 29.9422916,3.36586212 C30.2057166,2.2931641 29.5496712,1.21002236 28.4769732,0.94659732 C17.7403633,-1.69001789 5.31209962,1.88699832 0.369754639,8.84142326 C-0.270109626,9.74178291 -0.0589363917,10.9903811 0.84142326,11.6302454 C1.74178291,12.2701096 2.9903811,12.0589364 3.63024536,11.1585767 Z" id="Eyebrow"/><path d="M61.6302454,11.1585767 C65.545155,5.64986673 76.2779197,2.56083721 85.5230268,4.83118046 C86.5957248,5.0946055 87.6788665,4.43856013 87.9422916,3.36586212 C88.2057166,2.2931641 87.5496712,1.21002236 86.4769732,0.94659732 C75.7403633,-1.69001789 63.3120996,1.88699832 58.3697546,8.84142326 C57.7298904,9.74178291 57.9410636,10.9903811 58.8414233,11.6302454 C59.7417829,12.2701096 60.9903811,12.0589364 61.6302454,11.1585767 Z" id="Eyebrow" transform="translate(73.000154, 6.039198) scale(-1, 1) translate(-73.000154, -6.039198)"/></g></g></g><g id="Facial Hair" fill="none" transform="translate(50.000000, 72.000000) scale(1 1)" fill-rule="evenodd"><g id="Facial Hair/Blank" stroke="none" stroke-width="1" fill="none" fill-rule="evenodd" fill-opacity="0"/></g><g id="Hairstyle" fill="none" fill-rule="evenodd" transform="scale(1 1)"><g id="Hairstyle/Shaggy Mullet" stroke="none" stroke-width="1" fill="none" fill-rule="evenodd"><path d="M81.3139331,151.591294 C86.6469247,164.342684 96.5611,174.701567 108.998986,180.610469 L109.000498,189.610276 C106.639234,190.401998 104.095411,191.063242 101.273548,191.569729 C92.2609618,193.18734 66.9485528,188.041497 55.8287461,179.588187 C54.9804404,178.942941 55.4105393,177.670743 56.4993303,177.596328 C68.2421528,176.792949 74.2106831,165.300379 79.0058562,156.190972 C79.7177834,154.838538 80.404519,153.474084 81.0706626,152.100303 Z M175.125712,166.895604 C175.840743,169.13621 176.874235,171.230121 178.55519,172.685954 C180.17619,174.090053 183.068114,173.745469 185.098621,173.802748 C186.770693,173.850632 188.444623,173.856087 190.114529,173.783655 C190.95366,173.747287 191.327571,174.79771 190.648775,175.281705 C190.518773,175.374442 190.388771,175.462634 190.25846,175.543856 C189.20761,176.198779 188.11838,176.802787 187.008721,177.356184 C184.485135,178.614206 181.821334,179.600077 179.02722,180.090436 C177.110999,180.426483 175.211641,180.489655 173.373193,180.266583 C173.858789,180.986758 174.419512,181.642311 175.071506,182.207788 C176.801481,183.708407 179.887821,183.340135 182.054832,183.401352 C183.839313,183.452528 185.625776,183.458358 187.407944,183.380946 C188.303488,183.342078 188.702535,184.464709 187.978106,184.981974 C187.839364,185.081086 187.700623,185.175341 187.561551,185.262145 C186.440057,185.962089 185.2776,186.607617 184.093342,187.199055 C181.400104,188.543555 178.557223,189.597195 175.57527,190.121262 C170.075488,191.087126 164.705859,189.943766 160.380755,186.413279 C159.163245,185.419467 158.026681,184.286937 156.999075,183.051889 L157.000016,180.610943 C163.870522,177.347119 169.971003,172.725487 174.954684,167.092821 Z M101.441738,25.5998777 C121.403017,20.3995724 135.651446,29.4743102 136.862131,30.2568033 C138.299428,31.1854765 138.85043,30.796545 140.483286,30.4052984 C146.829392,28.8846292 153.741035,28.1960616 160.187893,29.4782789 C166.528383,30.7396605 172.606255,34.0244119 177.74696,37.856181 C187.273882,44.9574883 195.508524,56.4379129 195.90592,68.6796644 C196.081329,74.1868816 195.28885,79.9070851 194.184533,85.2955724 C193.189889,90.1482867 189.869671,93.9714569 188.837367,98.7289227 C184.809898,85.0481908 169.433037,80.4838679 160.242068,71.1548033 C162.238626,74.9478777 165.29094,78.1026546 167.294435,81.8328914 C158.047309,76.1675881 149.087576,67.953725 145.262273,57.5379012 C144.554691,62.9359795 142.545911,67.9275978 139.15401,72.2035294 C136.142657,76.0002417 131.572444,80.0744315 126.858864,81.5445 C129.286511,76.0372828 131.361358,70.327001 133.266412,64.6190342 C131.249704,67.2357231 127.901562,73.5042671 122.891185,81.1086057 C117.880808,88.7129442 106.276221,99.9826977 103.44325,102.112561 C100.59079,104.256976 97.4833088,106.08125 94.2522818,107.589351 C87.0932166,110.931649 79.7402436,112.148383 71.9327267,110.752066 L72.147048,110.788105 L72.3284821,110.800693 C73.5480643,110.828501 75.5398586,109.975832 76.6941053,109.626246 L76.8887739,109.570058 C78.6980301,109.07761 80.3625987,108.452872 82.0017312,107.546357 C85.2753717,105.735312 88.3514706,103.576015 91.1778346,101.127995 C88.4707222,102.280238 86.2726593,104.461694 83.513684,105.671152 C81.2270908,106.673576 78.9669245,107.196782 76.4817987,107.437218 C71.0203357,107.966046 64.4865987,106.716901 59.7607964,103.849523 C54.2686121,100.517478 51.2186099,94.7989286 49.7717335,88.7129442 C48.0913088,81.6460323 49.1355043,73.6726057 53.0992189,67.6388757 C53.2336661,69.781637 57.5349852,70.703365 61.0154166,70.1662691 C70.6728211,68.675365 76.4180436,32.1184491 101.441738,25.5998777 Z" id="Hair" fill="#4a312c"/><path d="M81.3138259,151.591038 C86.6468244,164.342623 96.5611379,174.701654 108.999214,180.610578 L109.000871,189.610151 C106.639502,190.401928 104.095559,191.063216 101.273548,191.569729 C92.2609618,193.18734 66.9485528,188.041497 55.8287461,179.588187 C54.9804404,178.942941 55.4105393,177.670743 56.4993303,177.596328 C68.2421528,176.792949 74.2106831,165.300379 79.0058562,156.190972 C79.7177834,154.838538 80.404519,153.474084 81.0706626,152.100303 Z M175.125712,166.895604 C175.840743,169.13621 176.874235,171.230121 178.55519,172.685954 C180.17619,174.090053 183.068114,173.745469 185.098621,173.802748 C186.770693,173.850632 188.444623,173.856087 190.114529,173.783655 C190.95366,173.747287 191.327571,174.79771 190.648775,175.281705 C190.518773,175.374442 190.388771,175.462634 190.25846,175.543856 C189.20761,176.198779 188.11838,176.802787 187.008721,177.356184 C184.485135,178.614206 181.821334,179.600077 179.02722,180.090436 C177.111347,180.426422 175.212329,180.489632 173.374193,180.266704 C173.858789,180.986758 174.419512,181.642311 175.071506,182.207788 C176.801481,183.708407 179.887821,183.340135 182.054832,183.401352 C183.839313,183.452528 185.625776,183.458358 187.407944,183.380946 C188.303488,183.342078 188.702535,184.464709 187.978106,184.981974 C187.839364,185.081086 187.700623,185.175341 187.561551,185.262145 C186.440057,185.962089 185.2776,186.607617 184.093342,187.199055 C181.400104,188.543555 178.557223,189.597195 175.57527,190.121262 C170.075488,191.087126 164.705859,189.943766 160.380755,186.413279 C159.163898,185.42 158.0279,184.288152 157.000729,183.053876 L157.000786,180.610578 C163.870978,177.346774 169.971189,172.725277 174.954684,167.092821 Z" id="Shadow" fill-opacity=".16" fill="#000"/></g></g><g id="Accesories" fill="none" transform="translate(63.000000, 85.000000) scale(1 1)" fill-rule="evenodd"><g id="Accesories/Round" stroke="none" stroke-width="1" fill="none" fill-rule="evenodd"><path d="M102,5 C110.919724,5 118.702944,9.86594657 122.839966,17.0881434 C123.049977,17.0306809 123.271405,17 123.5,17 L131.5,17 C132.880712,17 134,18.1192881 134,19.5 C134,20.8807119 132.880712,22 131.5,22 L124.963112,21.9999542 C125.63735,24.2145597 126,26.5649291 126,29 C126,42.254834 115.254834,53 102,53 C88.745166,53 78,42.254834 78,29 C78,27.5817328 78.1230214,26.1921987 78.3589754,24.8414867 C78.2814883,20.460693 74.9167538,17 70.8624171,17 C67.1244063,17 63.9725878,19.9417418 63.4412238,23.8340095 C63.8076631,25.4981856 64,27.2266315 64,29 C64,42.254834 53.254834,53 40,53 C26.745166,53 16,42.254834 16,29 C16,26.5649291 16.3626501,24.2145597 17.0368877,21.9999542 L10.5,22 C9.11928813,22 8,20.8807119 8,19.5 C8,18.1192881 9.11928813,17 10.5,17 L18.5,17 C18.7285947,17 18.9500235,17.0306809 19.1603931,17.0881495 C23.2970555,9.86594657 31.0802764,5 40,5 C49.3522436,5 57.4550935,10.3492902 61.4157763,18.1550973 C63.492635,15.0394413 66.9492812,13 70.8624171,13 C74.874933,13 78.4074783,15.1443461 80.4650049,18.3947271 C84.3793874,10.4592067 92.5521607,5 102,5 Z M40,9 C28.954305,9 20,17.954305 20,29 C20,40.045695 28.954305,49 40,49 C51.045695,49 60,40.045695 60,29 C60,17.954305 51.045695,9 40,9 Z M102,9 C90.954305,9 82,17.954305 82,29 C82,40.045695 90.954305,49 102,49 C113.045695,49 122,40.045695 122,29 C122,17.954305 113.045695,9 102,9 Z" id="Lennon-Glasses" fill-opacity=".16" fill="#000"/><path d="M102,3 C110.919724,3 118.702944,7.86594657 122.839966,15.0881434 C123.049977,15.0306809 123.271405,15 123.5,15 L131.5,15 C132.880712,15 134,16.1192881 134,17.5 C134,18.8807119 132.880712,20 131.5,20 L124.963112,19.9999542 C125.63735,22.2145597 126,24.5649291 126,27 C126,40.254834 115.254834,51 102,51 C88.745166,51 78,40.254834 78,27 C78,25.5817328 78.1230214,24.1921987 78.3589754,22.8414867 C78.2814883,18.460693 74.9167538,15 70.8624171,15 C67.1244063,15 63.9725878,17.9417418 63.4412238,21.8340095 C63.8076631,23.4981856 64,25.2266315 64,27 C64,40.254834 53.254834,51 40,51 C26.745166,51 16,40.254834 16,27 C16,24.5649291 16.3626501,22.2145597 17.0368877,19.9999542 L10.5,20 C9.11928813,20 8,18.8807119 8,17.5 C8,16.1192881 9.11928813,15 10.5,15 L18.5,15 C18.7285947,15 18.9500235,15.0306809 19.1603931,15.0881495 C23.2970555,7.86594657 31.0802764,3 40,3 C49.3522436,3 57.4550935,8.34929022 61.4157763,16.1550973 C63.492635,13.0394413 66.9492812,11 70.8624171,11 C74.874933,11 78.4074783,13.1443461 80.4650049,16.3947271 C84.3793874,8.45920672 92.5521607,3 102,3 Z M40,7 C28.954305,7 20,15.954305 20,27 C20,38.045695 28.954305,47 40,47 C51.045695,47 60,38.045695 60,27 C60,15.954305 51.045695,7 40,7 Z M102,7 C90.954305,7 82,15.954305 82,27 C82,38.045695 90.954305,47 102,47 C113.045695,47 122,38.045695 122,27 C122,15.954305 113.045695,7 102,7 Z" id="Lennon-Glasses" fill="#252C2F"/></g></g></g></g></g></svg>