<svg height="473.798" viewBox="0 0 677.558 473.798" width="677.558" xmlns="http://www.w3.org/2000/svg"><rect fill="#cbc8ff" height="445.899" rx="34.773" width="647.559" x="28.999" y="26.899"/><path d="m641.785 473.8h-578.013a35.814 35.814 0 0 1 -35.772-35.775v-376.353a35.813 35.813 0 0 1 35.772-35.772h578.013a35.813 35.813 0 0 1 35.773 35.773v376.352a35.814 35.814 0 0 1 -35.773 35.775zm-578.013-445.9a33.811 33.811 0 0 0 -33.772 33.772v376.353a33.811 33.811 0 0 0 33.772 33.775h578.013a33.811 33.811 0 0 0 33.773-33.773v-376.355a33.811 33.811 0 0 0 -33.773-33.772z" fill="#cbc8ff"/><rect fill="#fff" height="445.899" rx="34.773" width="647.559" x="1" y="1"/><path d="m613.786 447.9h-578.013a35.814 35.814 0 0 1 -35.773-35.774v-376.353a35.814 35.814 0 0 1 35.773-35.773h578.013a35.814 35.814 0 0 1 35.773 35.773v376.353a35.814 35.814 0 0 1 -35.773 35.774zm-578.013-445.9a33.812 33.812 0 0 0 -33.773 33.773v376.353a33.811 33.811 0 0 0 33.773 33.774h578.013a33.811 33.811 0 0 0 33.773-33.773v-376.354a33.811 33.811 0 0 0 -33.773-33.773z" fill="#112c41"/><path d="m648.559 35.773v40.927h-647.559v-40.927a34.776 34.776 0 0 1 34.773-34.773h578.013a34.776 34.776 0 0 1 34.773 34.773z" fill="#b2b0f7"/><path d="m649.559 77.7h-649.559v-41.927a35.814 35.814 0 0 1 35.773-35.773h578.013a35.814 35.814 0 0 1 35.773 35.773zm-647.559-2h645.559v-39.927a33.811 33.811 0 0 0 -33.773-33.773h-578.013a33.811 33.811 0 0 0 -33.773 33.773z" fill="#112c41"/><circle cx="45.649" cy="36.187" fill="#dedffe" r="15.672"/><path d="m45.649 52.859a16.672 16.672 0 1 1 16.672-16.672 16.69 16.69 0 0 1 -16.672 16.672zm0-31.344a14.672 14.672 0 1 0 14.672 14.672 14.688 14.688 0 0 0 -14.672-14.672z" fill="#112c41"/><circle cx="94.142" cy="36.187" fill="#cbc8ff" r="15.672"/><path d="m94.142 52.859a16.672 16.672 0 1 1 16.672-16.672 16.691 16.691 0 0 1 -16.672 16.672zm0-31.344a14.672 14.672 0 1 0 14.672 14.672 14.689 14.689 0 0 0 -14.672-14.672z" fill="#112c41"/><circle cx="144.409" cy="36.187" fill="#9797f7" r="15.672"/><path d="m144.409 52.859a16.672 16.672 0 1 1 16.672-16.672 16.691 16.691 0 0 1 -16.672 16.672zm0-31.344a14.672 14.672 0 1 0 14.672 14.672 14.688 14.688 0 0 0 -14.672-14.672z" fill="#112c41"/></svg>