<svg viewBox="134.9999999999999 405 810.0000000000001 270.0000000000002" fill="none" xmlns="http://www.w3.org/2000/svg" xmlns:xlink="http://www.w3.org/1999/xlink" overflow="visible" width="810.0000000000001px" height="270.0000000000002px"><g id="Master/Mariana Gonzalez/Done"><g id="Group 23"><path id="Vector" d="M156.72 651.822V459.722C156.72 459.722 313.83 459.592 456.12 444.942C734.76 416.252 916.59 433.822 940.59 479.022V647.392C940.59 647.392 655.93 685.082 483.39 669.022C336.59 655.362 171.02 633.582 156.72 651.822Z" fill="#FBED5E"/><path id="Vector_2" d="M582.16 674.972C547.37 674.972 513.54 673.842 483.16 670.972C453.59 668.252 423.11 665.162 393.59 662.162C334.32 656.162 278.34 650.462 235.26 648.042C188.83 645.442 162.93 647.132 158.26 653.042L154.69 657.602V457.722H156.69C158.26 457.722 315.33 457.432 455.88 442.952C589.59 429.182 706.5 425.492 794.01 432.252C878.65 438.812 929.95 454.652 942.36 478.062L942.59 478.502V649.142L940.85 649.372C940.14 649.472 868.57 658.892 776.85 666.222C720.94 670.692 649.76 674.972 582.16 674.972ZM198.83 642.862C208.66 642.862 220.7 643.222 235.49 644.052C278.66 646.472 334.69 652.162 394 658.182C423.51 661.182 454 664.282 483.58 667.032C572.58 675.312 691.99 669.032 776.51 662.232C860.22 655.542 927.11 647.112 938.59 645.632V479.522C926.59 457.932 875.18 442.582 793.7 436.262C706.43 429.492 589.76 433.182 456.32 446.932C324.18 460.542 177.49 461.632 158.72 461.712V647.712C163.82 645.062 174.52 642.862 198.83 642.862Z" fill="black"/><path id="Vector_3" d="M139.02 626.332V435.562C139.02 435.562 295.02 435.442 436.34 420.892C713.05 392.382 893.65 409.892 917.45 454.732V621.932C917.45 621.932 634.77 659.362 463.45 643.412C317.65 629.852 153.22 608.252 139.02 626.332Z" fill="#EAA8F9"/><path id="Vector_4" d="M561.51 649.332C526.96 649.332 493.36 648.212 463.24 645.402C433.87 642.672 403.57 639.592 374.24 636.622C315.38 630.622 259.79 624.992 217.01 622.622C170.9 620.042 145.19 621.722 140.58 627.622L137 632.182V433.572H139C140.56 433.572 296.54 433.282 436.11 418.912C568.88 405.252 684.99 401.552 771.89 408.252C855.94 414.772 906.89 430.502 919.22 453.752L919.45 454.192V623.682L917.71 623.912C917 624.012 845.93 633.362 754.85 640.642C699.32 645.082 628.64 649.332 561.51 649.332ZM180.85 617.422C190.61 617.422 202.56 617.782 217.25 618.602C260.12 621.002 315.76 626.602 374.66 632.602C403.96 635.602 434.26 638.652 463.61 641.382C551.98 649.602 670.61 643.382 754.53 636.622C837.62 629.972 904.02 621.622 915.45 620.132V455.252C903.52 433.822 852.45 418.572 771.58 412.252C684.91 405.532 569.06 409.192 436.58 422.842C305.39 436.362 159.75 437.442 141.06 437.532V622.252C146.1 619.602 156.74 617.422 180.85 617.422Z" fill="black"/><path id="Vector_5" d="M265.33 583.492H192.33L171.68 561.772V533.002H187.9V514.632L171.68 497.492V468.732H249.68C264.52 468.732 276.3 472.552 286.4 480.202C300.79 491.202 321.4 511.272 321.4 534.532C321.49 564.982 301.29 583.492 265.33 583.492Z" fill="black"/><path id="Vector_6" d="M265.33 585.492H191.48L169.68 562.562V531.002H185.9V515.432L169.68 498.252V466.732H249.68C264.68 466.732 277.06 470.612 287.61 478.612C301 488.862 323.45 509.762 323.45 534.532C323.49 566.442 301.74 585.492 265.33 585.492ZM193.19 581.492H265.33C299.75 581.492 319.49 564.382 319.49 534.492C319.49 511.432 298.02 491.552 285.23 481.752C275.23 474.202 263.98 470.692 249.72 470.692H173.72V496.692L189.94 513.832V534.992H173.68V560.992L193.19 581.492Z" fill="black"/><path id="Vector_7" d="M249.72 470.252H173.21V496.252H189.27V534.512H173.21V560.512H250.79C278.03 560.512 300.06 545.822 300.06 514.452C300.06 484.182 275.43 470.252 249.72 470.252Z" fill="white"/><path id="Vector_8" d="M250.79 562.542H171.21V532.542H187.27V498.252H171.21V468.252H249.72C275.77 468.252 302.06 482.542 302.06 514.472C302.06 544.122 282.42 562.542 250.79 562.542ZM175.21 558.542H250.79C264.46 558.542 276.06 554.812 284.34 547.752C293.45 540.002 298.06 528.802 298.06 514.482C298.06 501.102 292.96 490.072 283.31 482.592C274.72 475.932 262.79 472.252 249.72 472.252H175.21V494.252H191.27V536.512H175.21V558.542Z" fill="black"/><path id="Vector_9" d="M238.09 534.532H232.59V496.252H237.59C248.3 496.252 253.2 503.442 253.2 514.922C253.24 527.332 249.72 534.532 238.09 534.532Z" fill="black"/><path id="Vector_10" d="M238.09 536.532H230.59V494.252H237.59C248.94 494.252 255.2 501.592 255.2 514.922C255.24 524.992 253.29 536.532 238.09 536.532ZM234.58 532.532H238.09C247.55 532.532 251.24 527.602 251.24 514.942C251.24 503.882 246.66 498.272 237.63 498.272H234.63L234.58 532.532Z" fill="black"/><path id="Vector_11" d="M401.47 585.022C365.2 585.022 341.02 556.102 331.23 540.022C327.1 533.282 324.8 525.022 324.8 515.382C324.8 484.322 349.44 467.022 387.08 467.022C406.21 467.022 423.2 471.922 434.52 481.712C445.23 491.202 463.44 511.712 463.44 536.502C463.44 570.492 435.9 585.022 401.47 585.022Z" fill="black"/><path id="Vector_12" d="M401.47 587.032C360.7 587.032 336.09 551.862 329.52 541.082C325.07 533.812 322.8 525.172 322.8 515.402C322.8 499.722 328.97 486.782 340.62 477.982C351.82 469.522 367.89 465.042 387.08 465.042C407.2 465.042 424.51 470.432 435.83 480.222C444.75 488.122 465.44 509.382 465.44 536.522C465.44 568.142 441.53 587.032 401.47 587.032ZM387.08 469.032C349.34 469.032 326.8 486.362 326.8 515.392C326.8 524.392 328.87 532.392 332.93 538.982C339.23 549.312 362.78 582.982 401.47 582.982C419.08 582.982 433.86 579.122 444.22 571.822C455.65 563.822 461.44 551.882 461.44 536.472C461.44 527.972 458.69 505.762 433.19 483.182C422.59 474.092 406.24 469.042 387.08 469.042V469.032Z" fill="black"/><path id="Vector_13" d="M387.08 468.572C349.9 468.572 326.33 485.572 326.33 515.402C326.33 546.462 350.82 562.532 387.24 562.532C421.36 562.532 447.68 548.302 447.68 515.532C447.68 484.182 421.51 468.572 387.08 468.572Z" fill="white"/><path id="Vector_14" d="M387.24 564.532C347.85 564.532 324.33 546.162 324.33 515.402C324.33 500.252 330.33 487.732 341.56 479.202C352.47 470.942 368.22 466.572 387.08 466.572C425.7 466.572 449.68 485.342 449.68 515.572C449.68 531.842 443.53 544.422 431.41 552.982C420.67 560.532 405.4 564.532 387.24 564.532ZM387.08 470.532C350.3 470.532 328.33 487.292 328.33 515.362C328.33 529.812 333.71 541.122 344.33 548.972C354.51 556.512 369.33 560.492 387.25 560.492C424.39 560.492 445.69 544.102 445.69 515.492C445.69 501.102 440.12 489.792 429.13 481.862C418.83 474.502 404.3 470.572 387.08 470.572V470.532Z" fill="black"/><path id="Vector_15" d="M387.08 535.902C380.08 535.902 375 530.242 375 515.402C375 502.242 379.13 495.202 387.24 495.202C394.12 495.202 399.02 501.472 399.02 515.402C399.02 531.162 393.36 535.902 387.08 535.902Z" fill="black"/><path id="Vector_16" d="M387.08 537.902C374.83 537.902 373 523.802 373 515.402C373 497.052 380.74 493.202 387.24 493.202C391.38 493.202 401.02 495.362 401.02 515.402C401.02 534.982 392.29 537.902 387.08 537.902ZM387.24 497.202C380.44 497.202 377 503.322 377 515.402C377 527.682 380.39 533.902 387.08 533.902C395.3 533.902 397.02 523.842 397.02 515.402C397.02 499.562 390.89 497.252 387.24 497.252V497.202Z" fill="black"/><path id="Vector_17" d="M644.34 491.842V519.232H628.27V583.502H579.31L558.65 563.452L553.9 557.942V583.502H491.62L470.81 561.772V533.002H487.03V514.642L470.81 497.502V468.732H541.97L562.93 490.152V468.732H622.15L644.34 491.842Z" fill="black"/><path id="Vector_18" d="M630.28 585.492H578.5L557.13 564.752L555.91 563.332V585.492H490.77L468.77 562.572V531.002H485V515.432L468.81 498.252V466.732H542.81L560.93 485.252V466.732H623.01L646.34 491.032V521.252H630.28V585.492ZM580.12 581.492H626.28V517.252H642.34V492.642L621.34 470.732H564.93V495.052L541.13 470.732H472.81V496.732L489.04 513.872V535.032H472.81V561.032L492.48 581.562H551.91V552.552L560.11 562.082L580.12 581.492Z" fill="black"/><path id="Vector_19" d="M604.71 496.272H620.93V470.262H564.46V496.272H574.71V511.882L541.05 470.262H472.34V496.272H488.41V534.532H472.34V560.542H530.18V534.532H518.4V511.422L558.34 560.542H604.71V496.272Z" fill="white"/><path id="Vector_20" d="M606.71 562.542H557.39L520.39 517.052V532.532H532.19V562.532H470.34V532.532H486.41V498.252H470.34V468.252H542.01L562.47 493.542V468.252H622.93V498.252H606.71V562.542ZM559.3 558.542H602.71V494.252H618.93V472.252H566.47V494.252H576.72V517.512L540.1 472.252H474.34V494.252H490.41V536.512H474.34V558.512H528.19V536.512H516.41V505.792L559.3 558.542ZM566.3 498.272L572.74 506.272V498.272H566.3Z" fill="black"/><path id="Vector_21" d="M795.49 539.272V583.502H673.84L652.57 561.612V533.002H668.64V514.332L652.57 497.502V468.732H773.15L795.49 491.842V528.712H785.24L795.49 539.272Z" fill="black"/><path id="Vector_22" d="M797.5 585.492H673L650.59 562.422V531.002H666.66V515.132L650.59 498.302V466.732H774L797.5 491.022V530.712H789.97L797.5 538.462V585.492ZM674.69 581.492H793.5V540.082L780.5 526.712H793.5V492.642L772.31 470.732H654.59V496.732L670.66 513.572V535.042H654.59V560.842L674.69 581.492Z" fill="black"/><path id="Vector_23" d="M650.52 565.132H768.5V521.362H734.99V539.112H710.04V530.542H727.79V509.432H710.04V500.852H734.99V515.242H768.5V474.842H650.52V500.852H666.59V539.112H650.52V565.132Z" fill="white"/><path id="Vector_24" d="M770.5 567.122H648.5V537.122H664.59V502.852H648.52V472.852H770.52V517.252H732.99V502.852H712.05V507.422H729.8V532.542H712.05V537.112H732.99V519.362H770.5V567.122ZM652.5 563.122H766.5V523.362H736.99V541.112H708.05V528.542H725.8V511.422H708.05V498.852H736.99V513.252H766.5V476.852H652.5V498.852H668.59V541.112H652.52L652.5 563.122Z" fill="black"/><path id="Vector_25" d="M855.11 468.732L875 489.382C868.42 505.602 860.16 527.182 859.85 548.452L866.43 555.192V583.492H833.69L811.96 561.772V533.002H823.43L819.15 528.712C819.15 510.652 810.58 487.242 803.23 468.712L855.11 468.732Z" fill="black"/><path id="Vector_26" d="M868.43 585.492H832.86L809.96 562.592V531.002H818.59L817.13 529.542V528.712C817.13 511.542 809.13 489.122 801.35 469.462L800.27 466.732H855.94L877.32 488.932L876.84 490.142C869.84 507.412 862.33 527.502 861.84 547.652L868.4 554.372L868.43 585.492ZM834.51 581.492H864.43V556.002L857.84 549.252V548.422C858.14 527.772 865.55 507.422 872.65 489.842L854.25 470.732H806.17C813.63 489.732 820.91 510.972 821.17 527.882L828.29 535.002H813.99V560.942L834.51 581.492Z" fill="black"/><path id="Vector_27" d="M805.99 470.252C812.11 485.852 820.68 510.642 820.68 527.482H838.43C838.43 511.562 846.43 487.082 853.58 470.252H805.99Z" fill="white"/><path id="Vector_28" d="M840.43 529.492H818.68V527.492C818.68 511.492 810.77 487.912 804.13 470.992L803.06 468.252H856.59L855.4 471.032C848.48 487.212 840.4 511.712 840.4 527.482L840.43 529.492ZM822.64 525.492H836.47C837.05 510.062 844.09 488.032 850.57 472.262H808.91C815.16 488.542 822.08 509.842 822.64 525.492Z" fill="black"/><path id="Vector_29" d="M845.32 534.532H813.64V560.542H845.32V534.532Z" fill="white"/><path id="Vector_30" d="M847.32 562.542H811.64V532.542H847.32V562.542ZM815.64 558.542H843.32V536.542H815.64V558.542Z" fill="black"/></g></g></svg>