<svg viewBox="210 210 180.00000000000017 180.00000000000017" xmlns="http://www.w3.org/2000/svg" overflow="visible" xmlns:xlink="http://www.w3.org/1999/xlink" width="180.00000000000017px" height="180.00000000000017px"><g id="Master/Stickers/Camera" stroke="none" stroke-width="1" fill="none" fill-rule="evenodd"><g id="camera" transform="translate(210.000000, 217.000000)" fill-rule="nonzero"><g id="stickers_expanded"><path d="M44.28,18.68 C42.18,16.94 39.02,17.26 34.08,18 C33.57,18.08 32.99,18.13 32.39,18.19 C29.52,18.45 25.6,18.81 23.69,21.83 C22.78,23.26 22.78,25.35 22.77,27.55 C22.8223267,28.6788568 22.741774,29.8099516 22.53,30.92 C22.1539414,31.955437 22.6859947,33.1000224 23.72,33.48 C23.9416131,33.558526 24.1748876,33.5990955 24.41,33.6 C25.2520602,33.5996417 26.0036996,33.0718949 26.29,32.28 C26.3934845,31.973136 26.4737113,31.658914 26.53,31.34 L42.84,29.34 C42.9620468,30.3499301 43.8227487,31.1073478 44.84,31.1 C45.3705439,31.0817563 45.8720692,30.8533356 46.2340824,30.4650624 C46.5960956,30.0767891 46.7888936,29.5605212 46.77,29.03 C46.62,23.61 46.41,20.45 44.28,18.68 Z" id="Path" fill="#3B4B4C"/><path d="M151.39,99.06 C150.91,80.8 149.99,60.01 149.31,45.77 C148.88767,36.6378766 141.591096,29.3239822 132.46,28.88 C123.13,28.4 110.62,27.75 104.02,27.34 C82.83,26.02 59.02,26.71 33.35,29.34 L32.11,29.47 C25.11,30.18 15.53,31.16 9.8,36.05 C2.94,41.91 2.8,52.64 2.69,62.11 C2.69,64.84 2.63,67.41 2.43,69.64 C1.36,81.64 1.29,93.2 1.23,104.42 C1.23,112.75 1.13,121.42 0.68,130.19 C-0.04,144.11 1.25,160.46 17.68,163.35 C28.2202234,165.11277 38.893734,165.955944 49.58,165.87 C63.69,165.87 77.82,164.7 91.67,163.56 L98.49,163 C104.24,162.54 120.89,161.43 133.84,160.58 C143.123684,159.955246 150.370255,152.303911 150.49,143 C150.54,138.31 150.73,133.55 150.94,128.51 C151.29,120 151.68,110.4 151.39,99.06 Z" id="Path" fill="#5F8083"/><path d="M32.62,157 C31.5154305,157 30.62,156.104569 30.62,155 C30.48,144.89 30.62,135.05 30.76,125.54 C30.85,119.39 30.94,113.03 30.96,106.54 L30.96,98.89 C30.96,90.83 30.96,84.47 30.96,75.2 C30.89,67.05 30.53,55.03 29.89,39.49 C29.8430559,38.3854305 30.7004306,37.4519443 31.805,37.4050001 C32.9095695,37.3580559 33.8430557,38.2154306 33.89,39.32 C34.53,54.91 34.89,66.97 34.96,75.17 C35.04,84.46 35.02,90.83 34.96,98.9 L34.96,106.55 C34.96,113.03 34.85,119.41 34.76,125.55 C34.62,135.03 34.48,144.84 34.62,154.89 C34.62,155.994569 33.7245695,156.89 32.62,156.89 L32.62,157 Z" id="Path" fill="#3B4B4C"/><path d="M177.3,82.57 C173.79,68.84 162,57 151,56.2 C142.59,55.58 134.45,56.2 125.82,56.81 L124.09,56.94 C116.65,57.48 86.9,60.03 77.37,62.62 C64.49,66.11 59.79,88.62 60.13,99.93 C60.5037705,107.143746 62.3481913,114.204951 65.55,120.68 C69.19,128.04 73.79,132.58 78.49,133.47 C85.43,134.77 105.78,136.71 117.96,136.71 L119.23,136.71 L124.03,136.71 C136.94,136.63 149.13,136.56 161.39,131.45 C170.24,127.77 176.12,120.3 178.39,109.87 C180.75,99 178.72,88.11 177.3,82.57 Z" id="Path" fill="#3B4B4C"/><path d="M143.16,135.72 C134.49,135.72 127.93,130.36 124.63,126.94 C116.79,118.81 111.75,106.07 111.789764,94.49 C111.85,76.1 122.33,57.06 145.61,55.94 C146.142258,55.9128433 146.663341,56.0992461 147.057607,56.4578406 C147.451873,56.816435 147.68671,57.3175591 147.71,57.85 C147.76093,58.9512549 146.911111,59.8860555 145.81,59.94 C125.15,60.94 115.81,78.01 115.81,94.5 C115.81,105.1 120.38,116.74 127.53,124.16 C130.66,127.4 137.14,132.68 145.47,131.57 C146.574569,131.426406 147.586406,132.205431 147.73,133.31 C147.873594,134.414569 147.094569,135.426406 145.99,135.57 C145.05112,135.683667 144.105635,135.733782 143.16,135.72 L143.16,135.72 Z" id="Path" fill="#212D2D"/><path d="M171.7,79.69 L171.7,79.69 C167.25,68.31 158.61,62.39 146.7,62.64 C137.24,62.81 130.21,66.86 125.19,74.99 C120.64,82.37 118.88,91.99 120.36,101.35 C121.9,111.07 126.84,119.29 133.91,123.91 C138.207651,126.73755 143.235631,128.252546 148.38,128.27 C155.742816,128.335728 162.72835,125.01806 167.33,119.27 C176.08,108.31 176.14,91.06 171.7,79.69 Z" id="Path" fill="#ACC9CC"/><path d="M169.44,100.910027 L169.44,100.910027 C168.335431,100.910027 167.44,100.014569 167.44,98.91 C167.44,98.15 167.44,97.35 167.39,96.54 C167.35606,95.8254688 167.705895,95.1471078 168.307728,94.760449 C168.90956,94.3737903 169.671955,94.3375765 170.307728,94.665449 C170.9435,94.9933215 171.35606,95.6354688 171.39,96.35 C171.44,97.23 171.46,98.11 171.45,98.94 C171.433561,100.036741 170.53685,100.915608 169.44,100.910027 Z" id="Path" fill="#FFF"/><path d="M168.84,91.28 C167.849214,91.292752 166.998457,90.5781156 166.84,89.6 C166.03,84.6 164.15,79.6 161.91,76.48 C158.546453,72.1633392 153.234046,69.8323468 147.78,70.28 C146.675431,70.4015026 145.681503,69.6045694 145.56,68.5 C145.438497,67.3954305 146.235431,66.4015027 147.34,66.28 C152.77,65.69 160.66,67.89 165.15,74.12 C168.112973,78.6018032 170.049119,83.6829037 170.82,89 C170.993948,90.0907572 170.250751,91.1160112 169.16,91.29 L168.84,91.28 Z" id="Path" fill="#FFF"/><path d="M130.86,44.72 L130.86,44.72 L122.63,44.6 C121.525431,44.6 120.63,43.7045695 120.63,42.6 C120.63,41.4954305 121.525431,40.6 122.63,40.6 L122.63,40.6 L130.86,40.72 C131.964569,40.72 132.86,41.6154305 132.86,42.72 C132.86,43.8245695 131.964569,44.72 130.86,44.72 Z" id="Path" fill="#ACC9CC"/><path d="M143.16,11.62 C143.033506,11.6293408 142.906494,11.6293408 142.78,11.62 C142.25854,11.5184705 141.798901,11.2136457 141.502486,10.7727755 C141.206071,10.3319053 141.097239,9.79121829 141.2,9.27 L142.67,1.74 C142.77563,1.00897069 143.275571,0.395670896 143.970304,0.144857954 C144.665038,-0.105954987 145.441451,0.0465548306 145.989692,0.54152338 C146.537933,1.03649193 146.768739,1.7933313 146.59,2.51 L145.12,10 C144.938227,10.9392827 144.116708,11.6182928 143.16,11.62 Z" id="Path" fill="#FCD400"/><path d="M159.89,19.87 C159.211949,19.8710599 158.579538,19.5285038 158.21,18.96 C157.919278,18.5158521 157.817052,17.9743477 157.925843,17.4547793 C158.034633,16.9352109 158.345514,16.4802055 158.79,16.19 L166.3,11.31 C167.227838,10.7080096 168.46801,10.9721616 169.07,11.9 C169.67199,12.8278384 169.407838,14.0680096 168.48,14.67 L161,19.55 C160.67108,19.7669091 160.28391,19.8785254 159.89,19.87 L159.89,19.87 Z" id="Path" fill="#FCD400"/><path d="M167,38.53 C166.285469,38.5710855 165.603296,38.2278523 165.210449,37.6295929 C164.817602,37.0313335 164.773765,36.2689378 165.095449,35.6295929 C165.417134,34.990248 166.055469,34.5710855 166.77,34.53 L173.96,33.67 C174.674531,33.5860426 175.379576,33.8896606 175.809551,34.466484 C176.239526,35.0433075 176.329107,35.8057032 176.044551,36.466484 C175.759994,37.1272649 175.144531,37.5860426 174.43,37.67 L167.24,38.53 L167,38.53 Z" id="Path" fill="#FCD400"/><path d="M91.8,135.15 C91.3921839,135.149034 90.994409,135.023421 90.66,134.79 C87.8089458,132.624929 85.4274522,129.903222 83.66,126.79 C78.75,117.4 76.78,108.34 76.86,95.51 C77.0519181,88.8490347 78.3112543,82.2619972 80.59,76 C82.79,70.16 86.28,62.19 91.06,60.29 C91.724514,60.0256234 92.4795935,60.1358433 93.0408074,60.5791411 C93.6020212,61.0224388 93.8841077,61.7314669 93.7808074,62.4391412 C93.6775072,63.1468155 93.2045141,63.7456235 92.54,64.01 C90.85,64.68 88.06,67.54 84.33,77.42 C82.2200658,83.2390127 81.0389534,89.3538001 80.83,95.54 C80.77,105.78 81.83,114.7 87.18,124.94 C88.6606104,127.470816 90.6164902,129.691554 92.94,131.48 C93.6647677,131.97645 93.9807242,132.887731 93.7188224,133.726276 C93.4569205,134.564821 92.6784831,135.134291 91.8,135.13 L91.8,135.15 Z" id="Path" fill="#212D2D"/><path d="M115.12,136.68 C114.76874,136.68 114.42384,136.586254 114.12,136.41 C110.120577,133.771064 106.700979,130.344662 104.07,126.34 C98.2589937,116.954011 95.0205328,106.203976 94.68,95.17 C94.42,89.17 94.48,81.44 97.21,74.24 C98.61,70.56 104.34,59.91 110.47,58.14 C111.506512,57.9013661 112.548482,58.5157468 112.841387,59.5382486 C113.134291,60.5607505 112.575652,61.6336389 111.57,61.98 C107.79,63.08 102.57,71.46 100.95,75.66 C99.03,80.75 98.32,86.66 98.67,95 C98.9868128,105.351398 102.025477,115.436592 107.48,124.24 C109.755949,127.673113 112.680738,130.628475 116.09,132.94 C117.049567,133.482343 117.389462,134.698811 116.85,135.66 C116.498215,136.285873 115.837946,136.675164 115.12,136.68 Z" id="Path" fill="#212D2D"/></g></g></g></svg>