<svg viewBox="136.3749999999999 245.47500000000014 818.2500000000001 504.58749999999986" xmlns="http://www.w3.org/2000/svg" overflow="visible" xmlns:xlink="http://www.w3.org/1999/xlink" width="818.2500000000001px" height="504.58749999999986px"><g id="Master/Stickers/Queer" stroke="none" stroke-width="1" fill="none" fill-rule="evenodd"><g id="Group-2" transform="translate(145.000000, 245.000000)"><path d="M377,397.913273 L374,126.273746 L407,21.0259587 L462,10 L488,26.037758 L474,67.134513 L477,78.1604717 L474,122.264306 L481,137.299704 C470.666,223.167866 449.6,397.512329 448,407.936871 C446.4,418.361414 440.666,420.299978 438,419.96519 C427,419.96519 401.8,419.764718 389,418.96283 C376.2,418.160942 375.666,404.595004 377,397.913273 Z" id="Path" fill="#64F083" fill-rule="nonzero"/><path d="M490.203743,24.6053295 L463.189702,7.94207352 L407.222937,19.1618414 L373.998308,125.126045 L376.999,396.823 L377.019353,396.717488 C376.169152,400.975968 376.309697,405.979517 377.759491,409.983453 C379.682305,415.293741 383.707969,418.570611 389.937475,418.960873 L390.425872,418.9908 C400.666129,419.604703 419.940607,419.93399 436.601205,419.963078 L438.949,419.965 L438.875402,419.957397 C443.671683,420.5597 448.591071,416.192818 449.988425,407.088579 L450.084321,406.43262 C451.863775,393.854722 465.96978,277.79686 481.516064,148.686863 L483.026903,136.136115 L476.014,121.075 L479.009119,77.0603749 L476.044,66.167 L490.203743,24.6053295 Z M462.81,10.057 L487.796,25.469 L473.95473,66.101746 L476.991,77.26 L473.984845,121.453131 L480.973,136.463 L471.392302,215.92878 C459.0338,318.235389 449.064491,399.925059 448.011575,406.785164 C446.768921,414.881473 442.7705,418.430824 439.124598,417.972983 L439,417.96519 L433.445237,417.954062 C417.328296,417.890542 399.494646,417.555685 390.062525,416.964787 C384.661271,416.626412 381.301735,413.891767 379.640009,409.302532 C378.327264,405.677089 378.196868,401.034844 378.980647,397.109058 L378.999939,396.902229 L376.001,125.423 L408.777,20.89 L462.81,10.057 Z" id="Path-Copy-2" fill="#000" fill-rule="nonzero"/><g id="Group" transform="translate(0.000000, 78.000000)"><path d="M132.383715,379.375007 C128.693308,372.594652 8.15810575,115.761593 7.30694791,108.088557 C2.54598158,65.1683031 39.7801095,29.2387298 41.8476994,23 C43.9152893,16.7592642 95.5164153,39.520451 100,34.7180333 C128.39971,34.7180333 142.716856,68.0363134 156.523629,66 C162.294448,98.1940523 169.714131,118.828801 172.187425,129.559015 C172.187425,136.989323 194.348503,121.871937 199.392661,126.249078 C205.646319,179.585203 220.730509,324.586523 224.164471,331.499276 C229.10505,340.989768 231.557307,349.954682 231.523248,358.396025 C231.589363,366.478289 229.487714,374.430162 225.43668,381.42115 C227.213766,381.340909 229.327436,381.172403 231.717586,380.905602 C234.107736,380.638802 236.578025,380.343916 239.156502,380.014929 C241.732975,379.685941 244.371556,379.23258 247.072246,378.751134 C249.774938,378.271695 252.289304,377.782226 254.617346,377.30078 C254.967955,377.760159 255.282501,378.245617 255.558981,378.751134 L256.198091,379.98885 C259.071079,385.505412 259.73423,390.249655 258.189548,394.223585 C256.642863,398.197516 253.553499,401.409158 248.921456,403.860517 C244.046993,406.27978 238.657636,407.477376 233.220195,407.346984 C226.424395,407.232641 219.676679,406.187503 213.165374,404.241661 L203.68291,401.573652 L202.528906,402.187495 C196.330143,405.491413 189.592846,407.659924 182.633162,408.592724 C176.191778,409.45732 169.640603,408.941772 163.41299,407.080183 C157.061763,405.108263 151.198984,401.812368 146.210122,397.409149 C140.495199,392.335918 135.802251,386.213538 132.383715,379.375007 Z" id="Path" fill="#64F083" fill-rule="nonzero"/><path d="M41.0587005,22.6469694 L40.9732228,22.8874528 L40.9073963,23.0551753 C40.490445,24.0499192 39.3920676,25.557692 35.1850972,31.1095391 L34.1706881,32.4521858 C29.8779325,38.152135 26.8855939,42.3750955 23.6801164,47.4392559 C10.7822663,67.8158711 4.15817314,87.8443989 6.42618992,108.290638 C6.81523103,111.797774 29.3850782,161.529021 65.7438184,239.75525 L78.3737188,266.880279 C103.952342,321.720503 129.810475,376.622967 131.618532,379.944895 C135.078577,386.867823 139.85023,393.091935 145.659394,398.248825 C150.756242,402.747359 156.743481,406.113235 163.229621,408.127042 C169.603231,410.032332 176.297381,410.559131 182.87934,409.675667 L183.664894,409.565085 C190.464652,408.561972 197.042824,406.396869 203.112409,403.161802 L203.911,402.736 L213.007674,405.296115 C219.591802,407.263855 226.43023,408.322808 233.316517,408.438674 C238.907834,408.572781 244.458135,407.340102 249.479172,404.848092 C254.33653,402.277876 257.595568,398.889316 259.234598,394.678121 C260.854223,390.51139 260.227477,385.626758 257.424012,380.059697 L256.560663,378.384159 C256.247584,377.811133 255.905198,377.283505 255.525418,376.785905 L255.143854,376.285967 L254.527974,376.413333 C252.043923,376.927041 249.554582,377.407075 247.010725,377.858338 L244.633033,378.275112 C242.452246,378.649014 240.802188,378.902952 239.142987,379.114814 C236.611669,379.437784 234.146227,379.732755 231.719795,380.003606 L231.033844,380.078281 L229.701025,380.212025 C229.048197,380.273673 228.416296,380.327464 227.807816,380.373301 L227.301,380.409 L227.382789,380.257382 C230.783079,373.753403 232.58726,366.52397 232.636856,359.169505 L232.636361,358.479676 C232.671147,349.876732 230.175689,340.755244 225.164623,331.129348 C223.614305,328.008083 219.38841,294.657001 212.516954,233.663777 L203.281048,150.635728 C202.443197,143.153043 201.750272,137.034658 201.145375,131.786909 L200.453878,125.839598 L200.161211,125.585631 C197.901725,123.624929 194.191243,124.32206 186.486817,127.151413 L182.052385,128.795308 C178.964121,129.922168 177.646885,130.319344 176.145817,130.590889 C174.00288,130.97855 173.300571,130.691564 173.300571,129.650847 L173.300571,129.537089 L173.227271,129.2365 C172.500552,126.455391 165.033152,100.255921 162.145018,87.8693847 C160.480894,80.7323444 158.974099,73.4635341 157.621086,65.9153922 L157.450023,64.9610703 L156.490866,65.102533 C153.54909,65.5364055 150.356565,64.2004187 146.254724,61.0176726 L145.719779,60.5967179 C144.371702,59.5212683 142.92926,58.2614723 141.077032,56.5614169 L135.759148,51.6127609 C135.027111,50.9358669 134.376209,50.3406929 133.72435,49.7529811 C121.839575,39.0377412 112.19527,33.8098645 100.113146,33.8098645 L99.6786815,33.8098645 L99.3821915,34.1274382 L99.2932093,34.2105077 C97.7458127,35.4755169 90.232803,33.659236 72.5934486,28.1364971 L65.9860729,26.0703149 C59.1822562,23.9616929 55.5753542,22.9343962 51.9081921,22.0816018 L51.1580747,21.9105336 C45.14442,20.5675802 41.8781303,20.5604737 41.0587005,22.6469694 Z M135.048163,53.6809125 L138.602569,56.9981506 L139.730338,58.0400976 C141.864524,59.9988365 143.47259,61.3903856 145.028662,62.59779 L145.411618,62.8917202 C149.221097,65.7830951 152.433558,67.2359363 155.543158,67.1828429 L155.817,67.173 L155.652463,66.2682701 C156.875779,73.0928645 158.224272,79.6903498 159.700466,86.1684459 L160.288484,88.712914 L160.769781,90.7178421 C163.943085,103.712171 170.473549,126.656085 171.257102,129.605868 L171.303,129.782 L171.300571,129.650847 C171.300571,132.24673 173.208587,133.092968 176.258685,132.600591 L176.501841,132.558946 C178.287299,132.235954 179.74325,131.780919 183.583103,130.364074 L187.167736,129.032072 L187.982934,128.736231 C193.708449,126.681436 196.936449,126.033474 198.472487,126.839872 L198.563,126.891 L199.753046,137.204955 C200.501436,143.772777 201.383789,151.638121 202.481049,161.503322 L209.242933,222.42278 L211.184815,239.694238 C217.8026,298.198247 221.706047,328.662149 223.382032,332.035996 C228.137988,341.17222 230.547731,349.774209 230.634323,357.862646 L230.636402,358.483821 C230.701084,366.400011 228.645681,374.175846 224.684594,381.01161 L223.767374,382.594484 L225.594933,382.511964 C227.446515,382.428359 229.592491,382.253489 231.941668,381.991261 C234.378555,381.719243 236.854415,381.423026 239.396212,381.098718 L240.072541,381.010003 L241.100634,380.866166 C242.839875,380.613927 244.744333,380.293893 247.360892,379.827445 L249.273087,379.481034 C250.542107,379.246357 251.800586,379.004111 253.054594,378.753701 L254.293,378.501 L254.389413,378.643548 C254.53273,378.864333 254.667967,379.090956 254.794774,379.322811 L255.4227,380.539488 C258.174926,385.824181 258.798224,390.280418 257.370631,393.95312 C255.916778,397.688536 252.997741,400.723582 248.566848,403.06849 C243.859732,405.404317 238.631043,406.565568 233.357314,406.439103 C226.646532,406.326164 219.989459,405.295295 213.564848,403.375361 L203.680669,400.594189 L202.172433,401.396457 C196.078946,404.644264 189.456058,406.776311 182.613466,407.693418 C176.312466,408.539171 169.904266,408.034874 163.812539,406.213905 C157.606286,404.286938 151.867977,401.061005 146.984997,396.751238 C141.368692,391.765546 136.753552,385.745589 133.391326,379.019701 C131.49602,375.536288 102.69707,314.358322 75.8236643,256.676167 L66.5157187,236.670366 C31.4901477,161.286239 8.75931025,111.183069 8.41399749,108.070136 C6.20477323,88.1539133 12.6926613,68.5372136 25.3700296,48.5089256 L26.0989335,47.3662805 C29.0054181,42.8459047 31.8351919,38.8776994 35.7713625,33.6513011 L39.1350788,29.1980951 C41.9952274,25.3876762 42.5450034,24.5079791 42.9100743,23.406417 C43.1253391,22.7566699 46.040241,22.7998673 51.0987893,23.9477402 L52.4155343,24.2574625 C56.0310136,25.1324627 59.8998071,26.2653996 67.1951592,28.5407866 L75.3781853,31.1030224 C82.335393,33.2682716 85.8966416,34.300272 89.6068854,35.2012747 L90.0126077,35.2989421 C95.5049174,36.6091365 98.8454287,36.9081504 100.430072,35.8432441 L100.473,35.812 L100.113146,35.8098645 C111.404752,35.8098645 120.544476,40.6685859 131.845327,50.7541733 L132.940327,51.7409979 C133.592505,52.3337412 134.267951,52.9558002 135.048163,53.6809125 Z" id="Path-Copy" fill="#000" fill-rule="nonzero"/><path d="M10.7005891,115.673299 C5.1832361,105.529749 1.69071444,94.4065655 0.418190609,82.9247252 C-0.668682307,73.1482617 0.369120588,63.2517775 3.46033761,53.9150552 C6.55154862,44.5783329 11.6229252,36.0229489 18.3260903,28.8361614 C32.645183,13.6290652 51.6603167,3.70066926 72.3021716,0.653590182 C81.9150888,-0.662020629 91.6950443,0.0131456211 101.037175,2.63714192 C110.617245,5.43815862 119.480893,10.2787233 127.022054,16.8282775 C135.686218,24.4515949 142.784146,33.6941873 147.919073,44.0390428 C155.305413,58.2390093 158.972045,71.6536234 158.91897,84.2826844 C159.018712,96.3762687 155.876027,108.275371 149.818784,118.736033 C152.475775,118.615611 155.637487,118.362724 159.211187,117.963325 C162.784686,117.563925 166.477956,117.124384 170.330654,116.632661 C174.183151,116.138931 178.128781,115.460553 182.167344,114.742035 C186.205907,114.023517 189.965471,113.290949 193.446038,112.572431 C193.970386,113.25683 194.441058,113.983376 194.854248,114.742035 L195.810813,116.59252 C200.106142,124.845444 201.098958,131.946331 198.786459,137.891166 C196.47496,143.838007 191.85637,148.644854 184.930487,152.309698 C177.643889,155.930388 169.587593,157.722669 161.45619,157.527987 C151.297094,157.355382 141.209098,155.793909 131.472605,152.881703 L117.297778,148.887705 L115.570714,149.806927 C106.30389,154.750252 96.2311171,157.995626 85.8260696,159.392521 C76.1959278,160.683044 66.4015517,159.912343 57.0910661,157.128587 C47.5953161,154.17624 38.8302087,149.244957 31.3717659,142.657871 C22.827774,135.065262 15.8113619,125.907165 10.7005891,115.673299 Z M49.717945,95.3053153 C56.5729267,108.484103 64.366648,116.915653 73.0993091,120.59856 C81.8317699,124.281468 90.6882076,123.807808 99.6688225,119.175573 C108.773214,114.426931 114.304307,107.392276 116.261499,98.0744202 C118.218893,88.7555605 115.774404,77.5111523 108.928235,64.3405935 C102.152967,51.3121328 94.4345534,42.916308 85.7729938,39.1533199 C77.1112339,35.3903318 68.2237519,35.8828579 59.1103475,40.6308983 C50.1563706,45.3169214 44.6433037,52.2927696 42.5707463,61.5582422 C40.4983891,70.8237149 42.8807887,82.0727392 49.717945,95.3053153 Z" id="Shape" fill="#A181FF" fill-rule="nonzero"/><path d="M12.4759625,114.744042 L12.4916649,114.776155 C17.4879343,124.779212 24.3471421,133.732591 32.6994604,141.154603 C39.9427963,147.55102 48.4539413,152.341811 57.6744986,155.207855 C66.7101921,157.909323 76.2147547,158.65594 85.5602903,157.401543 L85.8260696,159.392521 C76.1959278,160.683044 66.4015517,159.912343 57.0910661,157.128587 C47.5953161,154.17624 38.8302087,149.244957 31.3717659,142.657871 C22.827774,135.065262 15.8113619,125.907165 10.7005891,115.673299 C5.1832361,105.529749 1.69071444,94.4065655 0.418190609,82.9247252 C-0.668682307,73.1482617 0.369120588,63.2517775 3.46033761,53.9150552 C6.55154862,44.5783329 11.6229252,36.0229489 18.3260903,28.8361614 C32.645183,13.6290652 51.6603167,3.70066926 72.3021716,0.653590182 C81.9150888,-0.662020629 91.6950443,0.0131456211 101.037175,2.63714192 C110.617245,5.43815862 119.480893,10.2787233 127.022054,16.8282775 C135.686218,24.4515949 142.784146,33.6941873 147.919073,44.0390428 C155.305413,58.2390093 158.972045,71.6536234 158.91897,84.2826844 C159.012303,95.5860994 156.272794,106.71992 150.968825,116.666781 C150.598096,117.361214 150.214749,118.051634 149.818784,118.736033 C150.572059,118.701913 151.365792,118.655751 152.197979,118.601561 C154.301381,118.461069 156.650533,118.248323 159.211187,117.963325 C162.784686,117.563925 166.477956,117.124384 170.330654,116.632661 C174.183151,116.138931 178.128781,115.460553 182.167344,114.742035 C186.205907,114.023517 189.965471,113.290949 193.446038,112.572431 C193.970386,113.25683 194.441058,113.983376 194.854248,114.742035 L195.810813,116.59252 C200.106142,124.845444 201.098958,131.946331 198.786459,137.891166 C196.47496,143.838007 191.85637,148.644854 184.930487,152.309698 C177.643889,155.930388 169.587593,157.722669 161.45619,157.527987 C151.297094,157.355382 141.209098,155.793909 131.472605,152.881703 L117.297778,148.887705 L115.570714,149.806927 C106.30389,154.750252 96.2311171,157.995626 85.8260696,159.392521 L85.5602903,157.401543 C95.7290006,156.038767 105.573248,152.865647 114.629571,148.034716 L114.631574,148.034716 L117.06745,146.738172 L132.03,150.95495 L132.045222,150.958964 C141.606666,153.816981 151.513402,155.352362 161.490038,155.520953 L161.503858,155.520953 C169.301986,155.707607 177.028211,153.991593 184.017784,150.523438 C190.606787,147.031199 194.823604,142.55752 196.920196,137.162612 C198.940679,131.966401 198.188205,125.501745 194.034878,117.51977 L194.032275,117.515756 L193.086325,115.685341 C192.92209,115.384286 192.747441,115.089252 192.562778,114.802246 C189.431309,115.438476 186.082731,116.082734 182.517644,116.716957 C178.477479,117.437482 174.489588,118.123887 170.584015,118.623639 C166.720302,119.117369 163.016617,119.55691 159.433103,119.958316 C155.824955,120.36173 152.618379,120.618631 149.908913,120.74106 L146.246687,120.905637 L148.086512,117.728502 C153.963699,107.578931 157.01305,96.0334673 156.916112,84.2993428 L156.915911,84.2742549 C156.967585,72.0468014 153.41832,58.9533128 146.142939,44.966694 L146.134327,44.9498349 L146.125915,44.9329758 C141.107754,34.8235453 134.171857,25.7912901 125.705776,18.3407783 C118.385931,11.9849029 109.783656,7.28663697 100.486389,4.56690515 C91.4146442,2.02038036 81.9180931,1.36468234 72.5835731,2.64075458 C52.3925615,5.62360857 33.7932212,15.335847 19.7857732,30.2103776 C13.2817523,37.1846202 8.36095055,45.4869172 5.3613102,54.5470702 C2.36110906,63.6088289 1.35386577,73.2138917 2.40873702,82.7025465 C3.65255189,93.9252787 7.06632317,104.798386 12.4591785,114.71193 L12.4759625,114.744042 Z" id="Path" fill="#000"/></g><path d="M342.927405,392.902066 C344.17291,398.274914 344.334845,403.839935 343.407214,409.274839 C342.517568,414.321392 340.506367,419.105709 337.519554,423.267464 C334.328822,427.589363 330.292426,431.212632 325.656269,433.921076 C314.704621,440.09865 302.153609,442.835119 289.628587,441.778165 C284.278713,441.245685 279.094773,439.620218 274.396641,437.001856 C269.948408,434.461564 266.129926,430.950396 263.223081,426.730588 C260.118315,422.172476 257.951176,417.041847 256.849614,411.63697 L197,128.108552 C198.126152,127.638127 199.926037,126.945502 202.391257,126.013261 C204.738325,125.118854 207.147367,124.397804 209.600392,123.855915 C211.759534,123.347256 213.962659,123.049988 216.179777,122.968114 C217.943077,122.901854 219.700378,123.232552 221.321734,123.935787 C222.863121,124.673653 224.160606,125.842307 225.054251,127.300623 C226.235781,129.308034 227.055455,131.508019 227.475288,133.799687 L234.484503,126.012461 C235.596061,131.120469 237.871157,134.802191 241.311789,137.057226 C243.039103,138.210466 244.988328,138.98997 247.035515,139.346091 C249.080702,139.702413 251.177868,139.627345 253.193067,139.125892 C257.769249,138.131595 271.837658,170.214342 273.97081,166.739807 C275.616156,150.265543 265.204294,21.1140142 264.098733,16 L296.145997,100.935635 C297.273549,100.468013 299.070835,99.7695825 301.535855,98.8401439 C303.884921,97.9471382 306.293964,97.2230849 308.74499,96.6737893 C310.904132,96.1649301 313.107256,95.8674617 315.324375,95.7859882 C317.085675,95.7145237 318.842977,96.0452221 320.458335,96.7536613 C322.00572,97.485922 323.307202,98.6557775 324.198848,100.118697 C325.380378,102.123506 326.200053,104.320489 326.619886,106.608953 L342.927405,392.902066 Z" id="Path" fill="#64F083" fill-rule="nonzero"/><path d="M340.942194,393.188324 L324.632676,106.851773 C324.246829,104.842159 323.521117,102.913219 322.485529,101.149227 C321.801801,100.033421 320.810195,99.1398143 319.628664,98.5759055 C318.299193,97.9971833 316.855766,97.7273398 315.404343,97.7861929 L315.398346,97.7865933 C313.311175,97.8632625 311.236,98.143115 309.202808,98.6223474 L309.180817,98.6275521 C306.823753,99.1558287 304.504675,99.8522571 302.245573,100.711632 L302.239575,100.713634 C299.778553,101.641872 298.007257,102.330893 296.909693,102.785303 L295.004451,103.574616 L267.623333,31.0017356 C267.843245,33.5075965 268.081151,36.2630827 268.331051,39.2251553 C269.438611,52.3179685 270.792073,69.464239 272.061569,86.9650294 C273.329065,104.464218 274.512595,122.327336 275.274292,136.850639 C276.031991,151.284262 276.389849,162.6309 275.960019,166.939187 L275.914038,167.3968 L275.674133,167.788554 C275.45422,168.147678 275.10236,168.537429 274.572571,168.78165 C274.034784,169.030474 273.493,169.043286 273.047177,168.955206 C272.271485,168.801067 271.669724,168.319833 271.309867,167.993138 C270.518182,167.273889 269.660523,166.130658 268.810861,164.872323 C267.261476,162.577852 265.388221,159.362751 263.470983,156.073784 C263.239075,155.674023 263.005168,155.273262 262.771261,154.873101 C260.586129,151.127321 258.375008,147.397556 256.439777,144.668894 C255.466164,143.295655 254.624499,142.267327 253.944769,141.630552 C253.674876,141.377324 253.474955,141.228389 253.345007,141.147516 C251.161875,141.644165 248.900773,141.702817 246.691651,141.31827 C244.374572,140.914907 242.167449,140.03251 240.210227,138.727533 C237.145445,136.716118 234.956315,133.766257 233.566867,130.021478 L226.241779,138.160421 L225.50807,134.161013 C225.13222,132.106359 224.398511,130.133979 223.342931,128.333355 C222.655204,127.220751 221.667596,126.327345 220.492064,125.757631 C219.154595,125.183513 217.70717,124.913869 216.253748,124.968519 C214.166578,125.045588 212.091402,125.325641 210.05821,125.804473 L210.030221,125.810879 C207.673158,126.331749 205.358078,127.024574 203.102975,127.884149 L203.096977,127.885951 C201.563586,128.466074 200.300688,128.948309 199.303285,129.339462 L258.806836,411.236609 C259.856419,416.379249 261.9176,421.261654 264.872426,425.597566 C267.607339,429.565146 271.195913,432.866124 275.376251,435.256281 C279.828482,437.738521 284.742529,439.279911 289.814513,439.786368 C301.927699,440.803286 314.068874,438.156898 324.660664,432.183508 C329.052919,429.617193 332.877399,426.182094 335.902197,422.0884 C338.709081,418.174869 340.60033,413.678812 341.437997,408.93253 C342.319646,403.761865 342.163708,398.465085 340.980179,393.354474 L340.942194,393.188324 Z M343.407214,409.274839 C342.517568,414.321392 340.506367,419.105709 337.519554,423.267464 C334.328822,427.589363 330.292426,431.212632 325.656269,433.921076 C314.704621,440.09865 302.153609,442.835119 289.628587,441.778165 C284.278713,441.245685 279.094773,439.620218 274.396641,437.001856 C269.948408,434.461564 266.129926,430.950396 263.223081,426.730588 C260.118315,422.172476 257.951176,417.041847 256.849614,411.63697 L197,128.108552 C198.126152,127.638127 199.926037,126.945502 202.391257,126.013261 C204.738325,125.118854 207.147367,124.397804 209.600392,123.855915 C211.759534,123.347256 213.962659,123.049988 216.179777,122.968114 C217.943077,122.901854 219.700378,123.232552 221.321734,123.935787 C222.863121,124.673653 224.160606,125.842307 225.054251,127.300623 C225.825944,128.612006 226.443698,130.005463 226.895519,131.45317 C227.135423,132.221463 227.329346,133.00497 227.475288,133.799687 L234.484503,126.012461 C234.658434,126.817787 234.864352,127.587682 235.09626,128.322145 C236.341765,132.246085 238.412941,135.157712 241.311789,137.057226 C243.039103,138.210466 244.988328,138.98997 247.035515,139.346091 C249.080702,139.702413 251.177868,139.627345 253.193067,139.125892 C255.604109,138.60202 260.648105,147.25803 265.194298,155.059269 C267.85524,159.624187 270.34625,163.896642 272.037578,165.865419 C272.305472,166.1779 272.553373,166.43233 272.779283,166.6207 C273.31507,167.067503 273.722908,167.142971 273.97081,166.739807 C274.016792,166.281994 274.052777,165.736903 274.080766,165.109937 C274.080766,165.106734 274.080766,165.103531 274.080766,165.100328 C274.910436,146.132814 267.659318,52.3608071 264.976384,23.9902093 C264.554552,19.5223781 264.244675,16.6764103 264.098733,16 L296.145997,100.935635 C296.145997,100.935635 296.145997,100.935434 296.145997,100.935635 C296.637801,100.731851 297.255556,100.484027 298.00126,100.192564 C298.966876,99.8152237 300.144408,99.3644169 301.535855,98.8401439 C303.884921,97.9471382 306.293964,97.2230849 308.74499,96.6737893 C310.904132,96.1649301 313.107256,95.8674617 315.324375,95.7859882 C317.085675,95.7145237 318.842977,96.0452221 320.458335,96.7536613 C322.00572,97.485922 323.307202,98.6557775 324.198848,100.118697 C325.380378,102.123506 326.200053,104.320489 326.619886,106.608953 L342.927405,392.902066 C344.17291,398.274914 344.334845,403.839935 343.407214,409.274839 Z" id="Shape" fill="#000"/><path d="M539.511861,440.205697 C540.057715,438.179556 545.270325,422.062616 546.092106,418.783915 L616.849239,168.893185 L611.912556,154.873932 L644,58.3891345 L573.242867,32 L513.182881,139.205508 L468.680747,418.783915 C467.491064,423.305156 467.860965,427.237192 469.788451,430.57802 C471.715938,433.920852 474.947076,436.185481 479.481867,437.369902 L525.541586,449.564826 C526.789253,449.95362 528.102903,450.083887 529.400557,449.947608 C530.70021,449.81133 531.957875,449.412514 533.097571,448.773208 C535.290986,447.488582 538.458141,444.205873 539.511861,440.205697 Z" id="Path" fill="#64F083" fill-rule="nonzero"/><path d="M544.160621,418.264854 L614.751799,168.959119 L609.799119,154.89257 L641.492669,59.5921934 L574.148625,34.476261 L515.10037,139.874676 L470.638225,419.198763 L470.614231,419.29496 C469.53052,423.419389 469.910419,426.786271 471.51999,429.575972 C473.123562,432.357657 475.848836,434.349729 479.985732,435.429937 L479.991731,435.431941 L526.093438,447.63889 L526.135427,447.650914 C527.123164,447.959545 528.164886,448.061754 529.192612,447.953533 C530.216339,447.847316 531.206075,447.534677 532.105835,447.033653 C533.923351,445.959457 536.684614,443.087587 537.578376,439.694653 L537.580376,439.682628 C537.810314,438.832892 538.782055,435.74458 539.905755,432.177289 C540.193679,431.259413 540.493599,430.311475 540.791519,429.361534 C542.277123,424.631867 543.760728,419.860115 544.154623,418.294916 L544.160621,418.264854 Z M533.097571,448.773208 C531.957875,449.412514 530.70021,449.81133 529.400557,449.947608 C528.102903,450.083887 526.789253,449.95362 525.541586,449.564826 L479.481867,437.369902 C474.947076,436.185481 471.715938,433.920852 469.788451,430.57802 C467.860965,427.237192 467.491064,423.305156 468.680747,418.783915 L513.182881,139.205508 L573.242867,32 L644,58.3891345 L611.912556,154.873932 L616.849239,168.893185 L546.092106,418.783915 C545.596238,420.761958 543.502796,427.415557 541.799251,432.824612 C540.679549,436.381882 539.727803,439.402055 539.511861,440.205697 C538.458141,444.205873 535.290986,447.488582 533.097571,448.773208 Z" id="Shape" fill="#000"/><path d="M592.95621,444.810813 L577.275954,472.021593 C575.460304,471.480265 573.680686,470.824656 571.949111,470.056771 C569.608984,469.07436 567.330913,467.94559 565.130912,466.676475 C563.195153,465.587803 561.369493,464.312674 559.679957,462.871136 C558.342741,461.750386 557.287782,460.330902 556.599156,458.726966 C555.994606,457.141074 555.84447,455.416842 556.162759,453.748748 C556.643196,451.467149 557.517991,449.2878 558.747109,447.308944 L644.909444,185.476362 C645.341837,184.608231 645.944385,183.836337 646.681055,183.206992 C647.417725,182.577648 648.272502,182.103484 649.197343,181.812971 C651.161128,181.368681 653.198981,181.368681 655.162766,181.812971 C659.496707,182.680901 663.72455,184.01678 667.770229,185.797149 C672.586608,187.866227 722.031561,128.685988 712.623007,167.788553 C725.644846,175.311215 796.493259,144.46812 799.938391,153.763533 C803.383524,163.058745 661.21627,431.756776 655.823367,441.111735 C652.4503,446.968108 648.058307,451.104258 642.64939,453.516178 C637.536741,455.865944 631.961673,457.036818 626.33856,456.940582 C627.067223,463.526745 627.909989,469.808161 628.868861,475.782824 C629.757669,480.921435 630.2321,486.122198 630.290153,491.334992 C627.753847,493.949408 624.374775,495.577403 620.753483,495.932274 C617.292336,496.247047 613.819178,495.459113 610.828459,493.682753 C608.986785,492.672273 607.311261,491.385115 605.855938,489.86739 C604.678868,488.620329 603.726002,487.174782 603.041379,485.598914 C602.380779,484.029062 601.934373,482.375002 601.718176,480.682849 C601.483963,478.850352 601.349841,477.00783 601.319814,475.161298 L600.431006,449.159486 L592.95621,444.810813 Z" id="Path" fill="#64F083" fill-rule="nonzero"/><path d="M592.225546,442.068076 L602.394791,447.982592 L603.319632,475.109168 L603.321634,475.127212 C603.351661,476.899562 603.479778,478.667902 603.703982,480.426218 C603.896156,481.933918 604.292517,483.40954 604.881052,484.810979 C605.471589,486.166306 606.290333,487.409356 607.305256,488.483994 C608.616448,489.85135 610.129824,491.012199 611.791335,491.924438 L611.81936,491.940477 L611.849387,491.958521 C614.475775,493.51835 617.524547,494.210047 620.565312,493.937378 C623.44593,493.652679 626.148387,492.443712 628.27432,490.500944 C628.178233,485.681115 627.717814,480.87532 626.897068,476.125663 L626.893064,476.101604 C625.928187,470.090852 625.079416,463.777356 624.348751,457.161118 L624.098524,454.897563 L626.372591,454.935656 C631.697432,455.025878 636.97423,453.919162 641.812629,451.6937 L641.834649,451.68568 C646.805168,449.468238 650.896888,445.652874 654.089791,440.109268 C656.756215,435.483916 693.621732,366.01943 729.416275,296.496801 C747.30654,261.747516 764.914549,227.014271 777.832293,200.390929 C784.292166,187.076251 789.568964,175.813008 793.118191,167.599048 C794.895807,163.486756 796.225015,160.174426 797.053769,157.766516 C797.470147,156.557549 797.742395,155.62466 797.886526,154.95662 C797.93457,154.730064 797.964597,154.554634 797.980611,154.424314 C797.93457,154.398049 797.872513,154.366572 797.786435,154.331887 C797.388073,154.171894 796.713459,154.037565 795.678518,154.010097 C793.618646,153.955363 790.69799,154.330483 787.064687,155.057267 C780.13839,156.443469 771.138207,158.997738 761.675604,161.683329 C761.257224,161.802021 760.838843,161.921113 760.418461,162.040205 C750.551491,164.839476 740.286158,167.723353 731.664319,169.430343 C727.354401,170.283637 723.384791,170.857846 720.03975,170.968318 C716.774782,171.075982 713.762043,170.760407 711.624099,169.525176 L710.32692,168.776137 L710.677238,167.31876 C711.842297,162.481488 711.998439,159.505184 711.638112,157.84551 C711.467957,157.056574 711.21773,156.742603 711.077602,156.620504 C710.959495,156.517451 710.747302,156.399161 710.270869,156.401566 C709.16186,156.40718 707.356219,157.064594 704.869958,158.565477 C702.465773,160.015235 699.715272,162.069477 696.79862,164.457338 C692.4867,167.986399 687.948574,172.127964 683.770776,175.942526 C682.283424,177.300057 680.842113,178.616288 679.470866,179.848512 C676.888519,182.170611 674.540384,184.215229 672.664678,185.618674 C671.735834,186.314381 670.849028,186.909843 670.062313,187.300802 C669.669956,187.497284 669.227554,187.677727 668.767135,187.775968 C668.328736,187.8702 667.666134,187.932352 666.981512,187.639634 L666.965497,187.631614 C663.051939,185.911392 658.962221,184.618218 654.77041,183.778157 L654.746388,183.774147 L654.722366,183.768132 C653.07687,183.397222 651.369317,183.389202 649.72182,183.750088 C649.083239,183.960604 648.4907,184.295426 647.980236,184.732499 C647.481783,185.157542 647.067406,185.674812 646.761128,186.252229 L560.572768,448.165039 L560.446654,448.369541 C559.343651,450.143896 558.558937,452.098694 558.126544,454.143713 C557.884324,455.426862 557.998428,456.75011 558.454843,457.973111 C559.021358,459.2723 559.880139,460.423124 560.965125,461.335363 L560.977136,461.345388 C562.568583,462.702719 564.288146,463.903666 566.111804,464.930186 L566.127819,464.94021 C568.255753,466.165217 570.459757,467.255894 572.723816,468.206226 L572.741832,468.214246 L572.759848,468.222266 C573.932915,468.743545 575.132005,469.210691 576.34711,469.6217 L592.225546,442.068076 Z M577.275954,472.02159 C575.460304,471.480262 573.680686,470.824653 571.949111,470.056768 C569.608984,469.074357 567.330913,467.945587 565.130912,466.676472 C563.195153,465.5878 561.369493,464.31267 559.679957,462.871132 C558.342741,461.750382 557.287782,460.330898 556.599156,458.726961 C555.994606,457.141069 555.84447,455.416837 556.162759,453.748743 C556.643196,451.467144 557.517991,449.287795 558.747109,447.308938 L644.909444,185.476324 C645.341837,184.608194 645.944385,183.836299 646.681055,183.206955 C647.417725,182.57761 648.272502,182.103446 649.197343,181.812933 C651.161128,181.368643 653.198981,181.368643 655.162766,181.812933 C659.496707,182.680864 663.72455,184.016742 667.770229,185.797112 C669.28961,186.448711 675.241021,181.016178 682.385516,174.494171 C697.90963,160.323793 719.066866,141.010593 712.623007,167.788513 C719.277057,171.632548 741.032836,165.458395 761.175149,159.741363 C780.452676,154.270536 798.252859,149.218136 799.938391,153.763492 C803.383524,163.058705 661.21627,431.756769 655.823367,441.111728 C652.4503,446.968102 648.058307,451.104253 642.64939,453.516173 C638.147296,455.585251 633.286878,456.740085 628.350389,456.920528 C627.681782,456.944587 627.011172,456.952607 626.33856,456.940577 C626.412628,457.612225 626.488697,458.281869 626.564766,458.947503 C627.239379,464.805881 628.008078,470.417654 628.868861,475.782821 C629.757669,480.921433 630.2321,486.122197 630.290153,491.334991 C627.753847,493.949408 624.374775,495.577403 620.753483,495.932274 C617.292336,496.247047 613.819178,495.459113 610.828459,493.682753 C608.986785,492.672273 607.311261,491.385114 605.855938,489.867389 C604.678868,488.620328 603.726002,487.174781 603.041379,485.598913 C602.380779,484.02906 601.934373,482.375001 601.718176,480.682847 C601.483963,478.85035 601.349841,477.007828 601.319814,475.161296 L600.431006,449.15948 L592.95621,444.810807 L577.275954,472.02159 Z" id="Shape" fill="#000"/><path d="M324.399006,98.6393643 C326.257445,106.664877 326.500978,114.981194 325.113637,123.101908 C323.786181,130.643814 320.781938,137.789715 316.322484,144.009202 C311.557616,150.465893 305.529169,155.882369 298.606436,159.928426 C282.25577,169.157155 263.511692,173.247613 244.809533,171.668791 C236.820842,170.87318 229.079677,168.444145 222.063124,164.53169 C215.423848,160.734637 209.720777,155.488763 205.381094,149.182875 C200.74398,142.373979 197.506784,134.707271 195.860539,126.630758 L176,35.5196771 C177.681378,34.8166672 180.369227,33.7818527 184.049973,32.3890331 C187.554856,31.0524143 191.152561,29.9749992 194.814544,29.1653878 C198.038765,28.4053771 201.328859,27.9611709 204.638517,27.8387692 C207.273467,27.7397678 209.898437,28.2337747 212.3178,29.2845895 C214.621386,30.387205 216.557675,32.1332295 217.893116,34.3124602 C219.655738,37.3119023 220.879393,40.5989485 221.508188,44.0231966 L237.39574,116.760819 C239.054561,124.393126 242.454047,129.894204 247.590204,133.263651 C250.171257,134.986675 253.08168,136.151492 256.135827,136.683699 C259.19197,137.215907 262.323968,137.103905 265.334199,136.354694 C272.165108,134.868874 277.175506,131.530227 280.361401,126.338754 C283.547295,121.147281 284.315822,114.73099 282.664986,107.089883 L262.988694,16.7084127 C264.675461,16.0098029 267.35832,14.9661882 271.039266,13.5777687 C274.546544,12.24315 278.143651,11.1615348 281.804635,10.3409232 C285.028457,9.58031253 288.318152,9.13590628 291.627809,9.01430458 C294.260764,8.90730307 296.881741,9.40171002 299.295116,10.4601249 C301.606686,11.5541403 303.548964,13.3019648 304.882408,15.4879956 C306.64503,18.4836377 307.868685,21.7658838 308.49748,25.1855319 L324.399006,98.6393643 Z" id="Path" fill="#A181FF" fill-rule="nonzero"/><path d="M322.45074,99.0773705 L306.539233,25.5789374 L306.533244,25.547937 C305.948365,22.3640922 304.810546,19.3076493 303.171687,16.51741 C302.045844,14.6785842 300.412973,13.2067635 298.468699,12.2807505 C296.340777,11.3519374 294.029207,10.9183313 291.709653,11.0125327 L291.701668,11.0129327 C288.521762,11.1299343 285.359821,11.5567403 282.261759,12.2875506 L282.239801,12.2927507 C278.672637,13.0925619 275.165358,14.1467767 271.747908,15.447395 L271.743915,15.449595 C269.051076,16.4652093 266.905188,17.2916209 265.298268,17.9304299 L284.615248,106.666677 C286.343936,114.66399 285.587385,121.641288 282.062141,127.386568 C278.55087,133.104649 273.047417,136.7171 265.785334,138.302922 C262.5156,139.112533 259.114119,139.232335 255.794481,138.654127 C252.468854,138.074719 249.300925,136.807101 246.490312,134.932274 C240.809199,131.203422 237.184146,125.183937 235.445478,117.188425 M235.445478,117.188425 L219.54994,44.4176022 L219.543952,44.3842017 C218.961069,41.1967569 217.823249,38.1369139 216.182394,35.3440747 C215.054555,33.5106489 213.425677,32.0396282 211.491384,31.1050151 C209.353481,30.1832021 207.037919,29.749996 204.714371,29.8373973 C201.532469,29.9549989 198.36993,30.3820049 195.271668,31.1122152 L195.244719,31.1184153 C191.678154,31.9072264 188.17367,32.9564411 184.760012,34.2582594 L184.755421,34.2600594 C182.056393,35.2812738 179.910506,36.1028853 178.309175,36.7396943 L197.81659,126.230552 C199.409338,134.044662 202.540537,141.462566 207.025942,148.050659 C211.193954,154.104744 216.667464,159.141815 223.043246,162.788866 C229.812273,166.563119 237.283955,168.907352 244.993181,169.676963 C263.286124,171.218584 281.61899,167.217528 297.614337,158.193001 C304.293537,154.286746 310.110389,149.060073 314.709575,142.830385 C318.989373,136.858502 321.873846,129.998205 323.147405,122.757903 C324.488834,114.901193 324.251289,106.85588 322.454732,99.0913707 L322.45074,99.0773705 M298.606436,159.928426 C282.25577,169.157155 263.511692,173.247613 244.809533,171.668791 C236.820842,170.87318 229.079677,168.444145 222.063124,164.53169 C215.423848,160.734637 209.720777,155.488763 205.381094,149.182875 C200.74398,142.373979 197.506784,134.707271 195.860539,126.630758 L176,35.5196771 C177.681378,34.8166672 180.369227,33.7818527 184.049973,32.3890331 C187.554856,31.0524143 191.152561,29.9749992 194.814544,29.1653878 C198.038765,28.4053771 201.328859,27.9611709 204.638517,27.8387692 C207.273467,27.7397678 209.898437,28.2337747 212.3178,29.2845895 C214.621386,30.387205 216.557675,32.1332295 217.893116,34.3124602 C219.655738,37.3119023 220.879393,40.5989485 221.508188,44.0231966 L237.39574,116.760819 C239.054561,124.393126 242.454047,129.894204 247.590204,133.263651 C250.171257,134.986675 253.08168,136.151492 256.135827,136.683699 C259.19197,137.215907 262.323968,137.103905 265.334199,136.354694 C272.165108,134.868874 277.175506,131.530227 280.361401,126.338754 C283.547295,121.147281 284.315822,114.73099 282.664986,107.089883 L262.988694,16.7084127 C264.675461,16.0098029 267.35832,14.9661882 271.039266,13.5777687 C274.546544,12.24315 278.143651,11.1615348 281.804635,10.3409232 C285.028457,9.58031253 288.318152,9.13590628 291.627809,9.01430458 C294.260764,8.90730307 296.881741,9.40171002 299.295116,10.4601249 C301.606686,11.5541403 303.548964,13.3019648 304.882408,15.4879956 C306.64503,18.4836377 307.868685,21.7658838 308.49748,25.1855319 L324.399006,98.6393643 C326.257445,106.664877 326.500978,114.981194 325.113637,123.101908 C323.786181,130.643814 320.781938,137.789715 316.322484,144.009202 C311.557616,150.465893 305.529169,155.882369 298.606436,159.928426 Z" id="Shape" fill="#000"/><path d="M540.340722,36.2318473 C542.108476,29.4488585 545.486183,24.6030931 550.477839,21.6947516 C555.467498,18.7864101 561.32805,18.2321729 568.057497,20.0322406 L645.842641,40.6476978 C646.553737,43.1361506 646.93725,45.7072175 646.983191,48.2953286 C647.085062,51.4348697 646.723521,54.572205 645.908557,57.6054704 C644.328565,63.6084365 641.911637,67.5275991 638.661767,69.3629584 C636.95194,70.2831445 635.076324,70.851017 633.144778,71.0336907 C631.213233,71.2165649 629.265708,71.0102298 627.414062,70.4271178 L577.677272,57.2465397 L571.886631,79.3249905 L624.883278,93.3700102 C625.596372,95.8183589 625.991869,98.3483193 626.06178,100.898131 C626.181628,104.005188 625.83407,107.112646 625.029093,110.115232 C623.439113,116.109174 621.058139,120.032748 617.888168,121.885954 C616.206305,122.820978 614.350664,123.401083 612.437096,123.590975 C610.523528,123.780667 608.589985,123.576137 606.758313,122.989816 L563.395422,111.498418 L556.889691,136.290105 L617.464706,152.343733 C618.173805,154.832386 618.55532,157.403252 618.603259,159.991364 C618.709125,163.131105 618.347584,166.269243 617.530622,169.301706 C615.95862,175.286826 613.533702,179.24128 610.255868,181.165469 C608.554031,182.120747 606.674419,182.718296 604.732887,182.921824 C602.793352,183.125352 600.831845,182.930446 598.968213,182.349139 L530.153669,164.101221 C523.37828,162.327822 518.550416,158.940639 515.672074,153.939671 C512.791734,148.938703 512.240435,143.055648 514.016178,136.290105 L540.340722,36.2318473 Z" id="Path" fill="#A181FF" fill-rule="nonzero"/><path d="M381.352343,20.9213581 C381.894958,13.9529121 384.360662,8.59984232 388.753446,4.86174882 C393.14623,1.12373527 398.80977,-0.458777614 405.74207,0.114250131 L485.83158,6.553486 C486.968676,8.86910499 487.798557,11.3236531 488.299279,13.8549621 C488.953608,16.9172003 489.151104,20.0595976 488.885781,23.1798063 C488.38905,29.3496595 486.705349,33.62308 483.832683,36.0000677 C482.314559,37.2058527 480.571011,38.0955989 478.703779,38.6171329 C476.838541,39.1388668 474.887523,39.2817939 472.964433,39.0377184 L421.755184,34.9216177 L419.953783,57.6100462 L474.52046,61.9966089 C475.651572,64.2724482 476.487438,66.6844181 477.006113,69.1735486 C477.670417,72.2008046 477.875893,75.3114181 477.61456,78.4000429 C477.107854,84.5626998 475.458066,88.8343212 472.669187,91.2145073 C471.178992,92.4300873 469.459382,93.3280293 467.610104,93.8535613 C465.762821,94.3788934 463.827761,94.5206211 461.92462,94.2701488 L417.274624,90.6819789 L415.249794,116.158985 L477.61855,121.172828 C478.753651,123.488847 479.583533,125.943395 480.086249,128.474304 C480.744568,131.535943 480.942064,134.679139 480.672751,137.799148 C480.182004,143.950211 478.494314,148.259813 475.613669,150.728554 C474.107514,151.967722 472.365961,152.887053 470.494739,153.430576 C468.621522,153.974299 466.660528,154.130819 464.725469,153.890741 L393.870381,148.184451 C386.898183,147.645326 381.557819,145.177785 377.845298,140.781627 C374.134772,136.385269 372.554806,130.710963 373.107395,123.758509 L381.352343,20.9213581 Z" id="Path" fill="#A181FF" fill-rule="nonzero"/><path d="M542.274265,36.7391628 L542.272268,36.7439752 L515.947723,136.80103 C514.275848,143.169744 514.839132,148.487333 517.401875,152.936269 C519.956628,157.375581 524.279135,160.49146 530.657029,162.160789 L530.663022,162.162393 L599.519513,180.42154 L599.561459,180.434374 C601.165421,180.934871 602.855273,181.102707 604.525151,180.927452 C606.191034,180.752799 607.802985,180.241674 609.265127,179.424756 C611.863824,177.889976 614.085001,174.556131 615.599077,168.79038 L615.601075,168.777547 C616.3681,165.938184 616.705671,162.999564 616.607795,160.05954 L616.605798,160.0439 L616.605798,160.028059 C616.569843,157.989974 616.308176,155.963319 615.830783,153.984588 L554.448793,137.717406 L561.971232,109.047663 L607.317602,121.064023 L607.365541,121.079262 C608.937543,121.582768 610.597434,121.758423 612.239347,121.5954 C613.875268,121.43318 615.461252,120.938898 616.901422,120.142433 C619.380272,118.683851 621.5615,115.396526 623.099545,109.599294 L623.099545,109.59408 C623.852588,106.7866 624.178174,103.880866 624.066316,100.975732 L624.066316,100.953475 C624.010387,98.948676 623.738732,96.9571118 623.257344,95.0130707 L569.447731,80.7522916 L576.255079,54.7955842 L627.967358,68.500121 L628.011303,68.5139568 C629.609272,69.0170614 631.291134,69.1951231 632.957017,69.0375145 C634.616907,68.8805073 636.228859,68.3936449 637.700988,67.6056014 C640.243756,66.1606546 642.452949,62.8871662 643.979009,57.0929414 L643.981007,57.0843191 C644.74204,54.2421491 645.081608,51.302326 644.98573,48.3606981 L644.98573,48.3458597 L644.98573,48.3310212 C644.949776,46.2933373 644.688108,44.2668826 644.210715,42.2887532 L567.54415,21.969865 C561.212197,20.2764739 555.918924,20.8417397 551.480565,23.4288483 C547.044203,26.0141521 543.936153,30.3568129 542.274265,36.7391628 Z M645.842641,40.6476978 C646.553737,43.1361506 646.93725,45.7072175 646.983191,48.2953286 C647.085062,51.4348697 646.723521,54.572205 645.908557,57.6054704 C644.328565,63.6084365 641.911637,67.5275991 638.661767,69.3629584 C636.95194,70.2831445 635.076324,70.851017 633.144778,71.0336907 C631.213233,71.2165649 629.265708,71.0102298 627.414062,70.4271178 L577.677272,57.2465397 L571.886631,79.3249905 L624.883278,93.3700102 C625.596372,95.8183589 625.991869,98.3483193 626.06178,100.898131 C626.181628,104.005188 625.83407,107.112646 625.029093,110.115232 C623.439113,116.109174 621.058139,120.032748 617.888168,121.885954 C616.206305,122.820978 614.350664,123.401083 612.437096,123.590975 C610.523528,123.780667 608.589985,123.576137 606.758313,122.989816 L563.395422,111.498418 L556.889691,136.290105 L617.464706,152.343733 C618.173805,154.832386 618.55532,157.403252 618.603259,159.991364 C618.709125,163.131105 618.347584,166.269243 617.530622,169.301706 C615.95862,175.286826 613.533702,179.24128 610.255868,181.165469 C608.554031,182.120747 606.674419,182.718296 604.732887,182.921824 C602.793352,183.125352 600.831845,182.930446 598.968213,182.349139 L530.153669,164.101221 C523.37828,162.327822 518.550416,158.940639 515.672074,153.939671 C512.791734,148.938703 512.240435,143.055648 514.016178,136.290105 L540.340722,36.2318473 C542.108476,29.4488585 545.486183,24.6030931 550.477839,21.6947516 C555.467498,18.7864101 561.32805,18.2321729 568.057497,20.0322406 L645.842641,40.6476978 Z" id="Shape" fill="#000"/><path d="M383.341265,21.076479 L383.341265,21.0814764 L375.096317,123.917228 C374.575646,130.46229 376.065841,135.57948 379.369406,139.490486 C382.662997,143.392895 387.460747,145.683927 394.023989,146.191468 L394.029974,146.191868 L464.92895,151.901556 L464.970843,151.906953 C466.63659,152.113648 468.326275,151.978916 469.93816,151.510755 C471.544059,151.044393 473.038244,150.257194 474.330944,149.196335 C476.615112,147.229938 478.211037,143.565407 478.68383,137.639829 L478.68383,137.626836 C478.937183,134.705126 478.751657,131.762027 478.13523,128.895089 L478.133236,128.879697 L478.129246,128.864305 C477.734254,126.871322 477.121818,124.929112 476.301911,123.072459 L413.103275,117.99185 L415.445295,88.5294767 L462.134086,92.2817629 L462.183958,92.2881597 C463.817787,92.50325 465.479544,92.3815121 467.065494,91.9305421 C468.64546,91.4813712 470.117701,90.7153618 471.390452,89.6788904 C473.570884,87.8082445 475.134891,84.1962867 475.625638,78.2359266 L475.625638,78.2307292 C475.871012,75.3426022 475.679501,72.4340856 475.05709,69.6035293 L475.0531,69.5819403 C474.644144,67.6247385 474.027718,65.7187106 473.211801,63.8968398 L417.807264,59.4427115 L419.92386,32.7691155 L473.169908,37.0489327 L473.215791,37.0547298 C474.873558,37.2652224 476.557259,37.1418853 478.169144,36.6917149 C479.773049,36.2435435 481.271223,35.4801329 482.577887,34.4462601 C484.822157,32.578013 486.418082,28.9744509 486.89686,23.0190882 L486.89686,23.0100928 C487.146223,20.0865839 486.960697,17.1420856 486.34826,14.272749 L486.346265,14.2583564 L486.342276,14.2439637 C485.947284,12.2509802 485.334848,10.3089706 484.514941,8.45291725 L405.578487,2.10647406 C399.057138,1.56740899 393.952172,3.06022763 390.046146,6.38537174 C386.140119,9.70827699 383.851961,14.519823 383.341265,21.076479 Z M485.83158,6.553486 C486.968676,8.86910499 487.798557,11.3236531 488.299279,13.8549621 C488.953608,16.9172003 489.151104,20.0595976 488.885781,23.1798063 C488.38905,29.3496595 486.705349,33.62308 483.832683,36.0000677 C482.314559,37.2058527 480.571011,38.0955989 478.703779,38.6171329 C476.838541,39.1388668 474.887523,39.2817939 472.964433,39.0377184 L421.755184,34.9216177 L419.953783,57.6100462 L474.52046,61.9966089 C475.651572,64.2724482 476.487438,66.6844181 477.006113,69.1735486 C477.670417,72.2008046 477.875893,75.3114181 477.61456,78.4000429 C477.107854,84.5626998 475.458066,88.8343212 472.669187,91.2145073 C471.178992,92.4300873 469.459382,93.3280293 467.610104,93.8535613 C465.762821,94.3788934 463.827761,94.5206211 461.92462,94.2701488 L417.274624,90.6819789 L415.249794,116.158985 L477.61855,121.172828 C478.753651,123.488847 479.583533,125.943395 480.086249,128.474304 C480.744568,131.535943 480.942064,134.679139 480.672751,137.799148 C480.182004,143.950211 478.494314,148.259813 475.613669,150.728554 C474.107514,151.967722 472.365961,152.887053 470.494739,153.430576 C468.621522,153.974299 466.660528,154.130819 464.725469,153.890741 L393.870381,148.184451 C386.898183,147.645326 381.557819,145.177785 377.845298,140.781627 C374.134772,136.385269 372.554806,130.710963 373.107395,123.758509 L381.352343,20.9213581 C381.894958,13.9529121 384.360662,8.59984232 388.753446,4.86174882 C393.14623,1.12373527 398.80977,-0.458777614 405.74207,0.114250131 L485.83158,6.553486 Z" id="Shape" fill="#000"/><path d="M699.384578,175.308821 L675.885745,216.0744 C673.165546,215.264965 670.499509,214.280789 667.901679,213.129905 C664.395109,211.657658 660.980817,209.968491 657.682876,208.068428 C654.782132,206.437508 652.045884,204.527403 649.514253,202.366232 C647.512219,200.685099 645.931454,198.560082 644.896334,196.157889 C643.991606,193.779798 643.766929,191.196838 644.244368,188.698236 C644.964539,185.281739 646.274488,182.016885 648.116039,179.052306 L705.677547,78.988109 C706.3255,77.6873897 707.228221,76.5308824 708.333553,75.587881 C709.436879,74.6446788 710.720749,73.9342643 712.104921,73.4992183 C715.047792,72.8335939 718.103001,72.8335939 721.045872,73.4992183 C727.541451,74.7997367 733.876547,76.8008278 739.940827,79.4675434 C747.156577,82.5670955 754.177741,86.1041039 760.964198,90.058885 C780.479021,101.32971 792.818216,113.928168 797.98178,127.854461 C803.143339,141.780754 801.684943,155.751435 793.604586,169.766504 C788.547342,178.541538 781.965502,184.735421 773.857061,188.350761 C766.195968,191.871702 757.842789,193.625142 749.415386,193.480528 C750.506676,203.3484 751.770485,212.758329 753.206815,221.710314 C754.53883,229.406973 755.250976,237.200041 755.33523,245.011185 C751.535778,248.927805 746.472515,251.36816 741.046159,251.89841 C735.856516,252.370412 730.650824,251.189401 726.169315,248.528109 C723.411001,247.013683 720.897424,245.085501 718.718857,242.813862 C716.95153,240.941919 715.525231,238.77874 714.500141,236.418726 C713.509154,234.064737 712.84114,231.58622 712.518167,229.051464 C712.165102,226.305814 711.966504,223.544095 711.918359,220.77836 L710.588349,181.823264 L699.384578,175.308821 Z M729.015896,154.792365 C734.392101,157.891917 739.431291,158.962259 744.131459,158.002988 C748.833633,157.043718 752.731382,153.873064 755.828718,148.490826 C758.924048,143.108588 759.539905,138.037068 757.678293,133.276669 C755.814676,128.516068 751.130556,123.973192 743.625935,119.647838 C741.934837,118.672299 740.193589,117.782925 738.410213,116.983332 C737.080204,116.397245 735.523512,115.784445 733.806336,115.171645 L715.444989,146.932012 L729.015896,154.792365 Z" id="Shape" fill="#A181FF" fill-rule="nonzero"/><path d="M698.652371,172.560359 L712.554275,180.644261 L713.924405,220.726138 L713.924405,220.744215 C713.970544,223.435635 714.165131,226.125047 714.506159,228.796382 C714.807066,231.146354 715.424928,233.444103 716.343698,235.627368 C717.274504,237.768453 718.57041,239.730779 720.171235,241.427981 C722.207373,243.550989 724.556454,245.350626 727.134224,246.766634 L727.164315,246.782702 L727.192399,246.800779 C731.308807,249.24716 736.091223,250.329753 740.859596,249.89993 C745.539704,249.439978 749.924922,247.423421 753.319153,244.185683 C753.192772,236.7662 752.496674,229.366802 751.230859,222.053772 L751.226846,222.029669 C749.782493,213.04153 748.514671,203.597457 747.421376,193.701466 L747.17062,191.433844 L749.449489,191.472006 C757.577991,191.610594 765.632269,189.921426 773.020539,186.525014 L773.042606,186.51698 C780.709717,183.097671 786.99065,177.223948 791.865343,168.762845 C799.678896,155.21315 801.034983,141.864308 796.100108,128.553427 C791.167239,115.243349 779.273387,102.951793 759.961174,91.7986673 L759.955156,91.7948511 C753.238911,87.8810439 746.291971,84.3807915 739.150444,81.3135765 L739.134396,81.3067476 C733.202516,78.6980783 727.005837,76.740773 720.652686,75.4687756 L720.628614,75.4639552 L720.604541,75.4583313 C717.978626,74.8648129 715.25642,74.8585864 712.628499,75.4400537 C711.531191,75.7961648 710.514126,76.365581 709.635477,77.115965 C708.734762,77.8838233 708.000549,78.8252178 707.472959,79.884111 L707.44688,79.9381402 L649.837227,180.084285 L649.819172,180.113207 C648.104002,182.873721 646.884326,185.912415 646.2123,189.093915 C645.811091,191.206881 645.999659,193.390145 646.755939,195.402684 C647.666684,197.499582 649.052863,199.357466 650.802135,200.827704 L650.814172,200.837747 C653.249513,202.914559 655.877434,204.74834 658.665839,206.316997 L658.683893,206.327039 C661.909617,208.184923 665.247679,209.837937 668.678019,211.278047 L668.696073,211.286082 L668.714128,211.294116 C670.750265,212.195942 672.832542,212.993326 674.950927,213.680241 L698.652371,172.560359 Z M675.885745,216.0744 C673.165546,215.264965 670.499509,214.280789 667.901679,213.129905 C664.395109,211.657658 660.980817,209.968491 657.682876,208.068428 C654.782132,206.437508 652.045884,204.527403 649.514253,202.366232 C647.512219,200.685099 645.931454,198.560082 644.896334,196.157889 C643.991606,193.779798 643.766929,191.196838 644.244368,188.698236 C644.964539,185.281739 646.274488,182.016885 648.116039,179.052306 L705.677547,78.988109 C706.3255,77.6873897 707.228221,76.5308824 708.333553,75.587881 C709.436879,74.6446788 710.720749,73.9342643 712.104921,73.4992183 C715.047792,72.8335939 718.103001,72.8335939 721.045872,73.4992183 C727.541451,74.7997367 733.876547,76.8008278 739.940827,79.4675434 C747.156577,82.5670955 754.177741,86.1041039 760.964198,90.058885 C780.479021,101.32971 792.818216,113.928168 797.98178,127.854461 C803.143339,141.780754 801.684943,155.751435 793.604586,169.766504 C788.547342,178.541538 781.965502,184.735421 773.857061,188.350761 C766.807812,191.590508 759.172798,193.333906 751.433469,193.47852 C750.761444,193.490571 750.087412,193.492579 749.415386,193.480528 C749.48961,194.153383 749.563834,194.82423 749.640063,195.493068 C750.679196,204.629838 751.868781,213.36892 753.206815,221.710314 C754.53883,229.406973 755.250976,237.200041 755.33523,245.011185 C751.535778,248.927805 746.472515,251.36816 741.046159,251.89841 C735.856516,252.370412 730.650824,251.189401 726.169315,248.528109 C723.411001,247.013683 720.897424,245.085501 718.718857,242.813862 C716.95153,240.941919 715.525231,238.77874 714.500141,236.418726 C713.509154,234.064737 712.84114,231.58622 712.518167,229.051464 C712.165102,226.305814 711.966504,223.544095 711.918359,220.77836 L710.588349,181.823264 L699.384578,175.309223 L675.885745,216.0744 Z M728.014878,156.53275 L728.012872,156.530942 L712.702723,147.664721 L732.907627,112.718033 L734.480367,113.279817 C736.231646,113.90507 737.834478,114.535345 739.21865,115.144931 L739.230686,115.150354 C741.074243,115.977665 742.875673,116.897769 744.626952,117.907252 C752.276009,122.31596 757.435561,127.150875 759.545923,132.54396 C761.67835,137.99509 760.893986,143.707931 757.565954,149.49328 C754.274032,155.218774 749.953007,158.865247 744.532668,159.97114 C739.224668,161.053934 733.687979,159.803428 728.014878,156.53275 Z M743.625935,119.647838 C741.934837,118.672299 740.193589,117.782925 738.410213,116.983332 C737.080204,116.397245 735.523512,115.784445 733.806336,115.171645 L715.444989,146.932012 L729.015896,154.792365 C734.392101,157.891917 739.431291,158.962259 744.131459,158.002988 C748.833633,157.043718 752.731382,153.873064 755.828718,148.490826 C758.924048,143.108588 759.539905,138.037068 757.678293,133.276669 C755.814676,128.516068 751.130556,123.973192 743.625935,119.647838 Z" id="Shape" fill="#000"/></g></g></svg>