<svg viewBox="476.1750000000002 267.19540229885047 770.9499999999997 996.3218390804599" fill="none" xmlns="http://www.w3.org/2000/svg" xmlns:xlink="http://www.w3.org/1999/xlink" overflow="visible" width="770.9499999999997px" height="996.3218390804599px"><g id="Master/Marketing/Rocket"><path id="Path 110 Copy" fill-rule="evenodd" clip-rule="evenodd" d="M1056.16 1157.96L1139.4 1027.7C1139.4 1027.7 1203.82 918.828 1177.59 898.087C1151.36 877.347 1048.69 998.581 1048.69 998.581L1033.36 1048.07L990.145 1114.29C990.145 1114.29 1002.54 1134.18 1021.16 1144.31C1039.78 1154.44 1056.16 1157.96 1056.16 1157.96Z" fill="#adf57d"/><path id="Path 110 Copy 2" fill-rule="evenodd" clip-rule="evenodd" d="M1057.15 1160.53L1141.16 1029.04C1184.7 955.474 1197.61 911.649 1178.88 896.838C1159.94 881.87 1116.61 915.653 1047.21 997.608L1046.94 997.919L1031.58 1047.53L987.818 1114.59L988.493 1115.67C996.931 1129.22 1007.52 1139.46 1020.25 1146.39C1032.82 1153.22 1044.67 1157.84 1055.79 1160.24L1057.15 1160.53ZM1052.28 997.816C1117.93 920.631 1159.66 888.076 1175.91 899.609L1176.39 899.976C1192.64 912.818 1180.09 955.404 1137.76 1026.95L1055.28 1156.02L1054.88 1155.93C1044.96 1153.6 1034.38 1149.42 1023.15 1143.41L1022.16 1142.87C1010.51 1136.54 1000.73 1127.26 992.811 1115.01L992.568 1114.63L1035.23 1049.25L1050.53 999.882L1052.28 997.816Z" fill="#000000"/><path id="Path 111" fill-rule="evenodd" clip-rule="evenodd" d="M969.41 929.618C969.41 929.618 1003.59 986.486 1037.09 1057.48C1044.13 1072.41 1044.13 1068.23 1049.84 1058.62C1070.71 1023.54 1135.59 923.012 1135.59 923.012C1135.59 923.012 1132.66 813.779 1104.92 779.421C1077.19 745.062 1033.47 772.142 1033.47 772.142L969.41 929.618Z" fill="#519a22"/><path id="Path 111 Copy" fill-rule="evenodd" clip-rule="evenodd" d="M1031.68 770.576L1032.23 770.233C1062.19 751.676 1087.14 754.217 1106.3 777.956C1125.14 801.305 1135.44 849.516 1137.41 922.749L1137.42 923.368L1126.99 939.549C1091.01 995.437 1066.38 1034.44 1053.12 1056.53L1051.38 1059.44C1050.83 1060.37 1049.63 1062.5 1048.88 1063.82C1048.67 1064.2 1048.49 1064.52 1048.38 1064.71L1048.08 1065.22C1047.06 1066.95 1046.31 1067.91 1045.35 1068.52C1043.38 1069.77 1041.47 1068.96 1039.81 1066.77C1038.68 1065.3 1037.39 1062.93 1035.51 1059L1033.96 1055.73C1012.03 1009.41 989.877 967.65 967.515 930.439L967 929.582L1031.68 770.576ZM1133.35 920.692C1131.28 850.218 1121.34 803.654 1103.73 781.149L1103.19 780.468C1085.37 758.395 1062.68 756.084 1034.34 773.634L1034.89 773.295L971.458 929.236L973.264 932.256C994.908 968.601 1016.35 1009.19 1037.58 1054.02L1039.1 1057.24C1040.87 1060.95 1042.08 1063.15 1042.99 1064.35L1043.1 1064.49C1043.21 1064.62 1043.3 1064.73 1043.39 1064.82L1043.46 1064.9L1043.52 1064.84C1043.74 1064.58 1044.03 1064.17 1044.39 1063.59L1044.68 1063.12L1044.82 1062.89C1044.87 1062.8 1045.07 1062.44 1045.35 1061.94C1046.02 1060.75 1047.13 1058.78 1047.77 1057.69L1049.69 1054.48C1062.82 1032.59 1087.06 994.196 1122.4 939.289L1133.39 922.239L1133.35 920.692Z" fill="#000000"/><path id="Path 110" fill-rule="evenodd" clip-rule="evenodd" d="M481.109 738.421L557.349 614.193C557.349 614.193 623.205 514.715 651.719 528.357C680.233 542 619.728 678.949 619.728 678.949L584.006 712.354L545.619 776.273C545.619 776.273 523.57 773.996 507.236 762.413C490.902 750.829 481.109 738.421 481.109 738.421Z" fill="#adf57d"/><path id="Path 110 Copy 3" fill-rule="evenodd" clip-rule="evenodd" d="M479 739.058L556.006 613.583C600.538 546.316 632.472 517.27 652.908 527.047C673.581 536.939 662.82 587.594 621.882 680.252L621.717 680.625L585.901 714.118L547.004 778.887L545.739 778.756C530.706 777.204 517.583 772.466 506.404 764.538C495.367 756.711 486.519 748.586 479.865 740.154L479 739.058ZM619.407 675.949C657.778 588.595 668.145 539.862 651.693 530.917L651.181 530.656C633.598 522.243 602.618 550.42 559.378 615.734L483.876 738.76L484.092 739.026C490.181 746.437 498.092 753.644 507.828 760.64L508.718 761.275C518.903 768.498 530.81 772.937 544.468 774.589L544.89 774.637L582.761 711.578L618.387 678.262L619.407 675.949Z" fill="#000000"/><path id="Path 109" fill-rule="evenodd" clip-rule="evenodd" d="M566.002 712.354L640.805 584.135C640.805 584.135 700.971 527.319 775.049 551.373C849.128 575.426 691.941 734.361 691.941 734.361C691.941 734.361 654.802 720.777 625.616 720.777C596.431 720.777 561.695 720.777 561.695 720.777L566.002 712.354Z" fill="#519a22"/><path id="Path 109 Copy" fill-rule="evenodd" clip-rule="evenodd" d="M564.598 711.84L639.546 583.373L640.976 582.032C681.299 544.585 726.397 533.861 775.991 549.965C801.96 558.397 807.755 578.984 793.456 610.468C779.483 641.234 746.236 683.128 693.686 736.262L692.783 737.175L690.41 736.309C666.33 727.612 644.837 723.271 625.94 723.271H558.75L564.545 711.937L564.598 711.84ZM789.814 608.814C803.218 579.302 798.171 561.372 774.755 553.769C726.164 537.991 682.244 548.661 642.71 585.888L642.71 585.887L642.505 586.08C642.573 586.016 642.642 585.952 642.71 585.888L568.088 713.794L565.288 719.27L625.94 719.271C645.026 719.271 666.571 723.56 690.582 732.121L691.742 732.537L693.923 730.325C743.869 679.508 775.702 639.273 789.396 609.724L789.814 608.814Z" fill="#000000"/><circle id="Oval Copy" cx="575.5" cy="1042.5" r="78.5" fill="#ffffff"/><path id="Oval Copy 6" fill-rule="evenodd" clip-rule="evenodd" d="M654.324 1042.99C654.324 999.64 619.179 964.494 575.824 964.494C532.47 964.494 497.324 999.64 497.324 1042.99C497.324 1086.35 532.47 1121.49 575.824 1121.49C619.179 1121.49 654.324 1086.35 654.324 1042.99ZM501.324 1042.99C501.324 1001.85 534.679 968.494 575.824 968.494C616.969 968.494 650.324 1001.85 650.324 1042.99C650.324 1084.14 616.969 1117.49 575.824 1117.49C534.679 1117.49 501.324 1084.14 501.324 1042.99Z" fill="#000000"/><circle id="Oval Copy 2" cx="772.5" cy="1142.5" r="52.5" fill="#ffffff"/><path id="Oval Copy 7" fill-rule="evenodd" clip-rule="evenodd" d="M825.324 1142.99C825.324 1114 801.819 1090.49 772.824 1090.49C743.829 1090.49 720.324 1114 720.324 1142.99C720.324 1171.99 743.829 1195.49 772.824 1195.49C801.819 1195.49 825.324 1171.99 825.324 1142.99ZM724.324 1142.99C724.324 1116.21 746.038 1094.49 772.824 1094.49C799.61 1094.49 821.324 1116.21 821.324 1142.99C821.324 1169.78 799.61 1191.49 772.824 1191.49C746.038 1191.49 724.324 1169.78 724.324 1142.99Z" fill="#000000"/><circle id="Oval Copy 3" cx="576" cy="1174" r="24" fill="#ffffff"/><path id="Oval Copy 8" fill-rule="evenodd" clip-rule="evenodd" d="M600.324 1174.49C600.324 1161.24 589.579 1150.49 576.324 1150.49C563.069 1150.49 552.324 1161.24 552.324 1174.49C552.324 1187.75 563.069 1198.49 576.324 1198.49C589.579 1198.49 600.324 1187.75 600.324 1174.49ZM556.324 1174.49C556.324 1163.45 565.279 1154.49 576.324 1154.49C587.37 1154.49 596.324 1163.45 596.324 1174.49C596.324 1185.54 587.37 1194.49 576.324 1194.49C565.279 1194.49 556.324 1185.54 556.324 1174.49Z" fill="#000000"/><circle id="Oval Copy 4" cx="663" cy="1221" r="38" fill="#ffffff"/><path id="Oval Copy 9" fill-rule="evenodd" clip-rule="evenodd" d="M701.324 1221.49C701.324 1200.51 684.311 1183.49 663.324 1183.49C642.337 1183.49 625.324 1200.51 625.324 1221.49C625.324 1242.48 642.337 1259.49 663.324 1259.49C684.311 1259.49 701.324 1242.48 701.324 1221.49ZM629.324 1221.49C629.324 1202.72 644.547 1187.49 663.324 1187.49C682.102 1187.49 697.324 1202.72 697.324 1221.49C697.324 1240.27 682.102 1255.49 663.324 1255.49C644.547 1255.49 629.324 1240.27 629.324 1221.49Z" fill="#000000"/><circle id="Oval" cx="687.5" cy="1043.5" r="121.5" fill="#ffffff"/><path id="Oval Copy 10" fill-rule="evenodd" clip-rule="evenodd" d="M809.324 1043.99C809.324 976.892 754.927 922.494 687.824 922.494C620.722 922.494 566.324 976.892 566.324 1043.99C566.324 1111.1 620.722 1165.49 687.824 1165.49C754.927 1165.49 809.324 1111.1 809.324 1043.99ZM570.324 1043.99C570.324 979.101 622.931 926.494 687.824 926.494C752.718 926.494 805.324 979.101 805.324 1043.99C805.324 1108.89 752.718 1161.49 687.824 1161.49C622.931 1161.49 570.324 1108.89 570.324 1043.99Z" fill="#000000"/><path id="Path 107 Copy" fill-rule="evenodd" clip-rule="evenodd" d="M635.987 858L604.253 910.376C604.253 910.376 597.903 918.163 609.451 934.208C620.998 950.253 671.729 991.119 715.111 1017.83C758.494 1044.54 802.532 1065.09 822.942 1068.09C843.353 1071.09 849.169 1066.67 857.153 1054.66C865.137 1042.65 881 1017.2 881 1017.2L635.987 858Z" fill="#325f15"/><path id="Path 107 Copy 2" fill-rule="evenodd" clip-rule="evenodd" d="M635.671 855.693L884.061 1017.09L881.528 1021.15C872.67 1035.34 865.742 1046.23 860.74 1053.85L859.144 1056.26C849.866 1070.22 842.61 1073.45 822.977 1070.56C802.245 1067.51 758.039 1046.9 714.388 1020.03L713.118 1019.24C671.109 993.193 620.181 952.583 608.153 935.87C600.037 924.593 598.085 915.805 602.938 909.718L602.933 909.724L635.671 855.693ZM878.589 1018.3L636.952 861.295L606.216 912.026L606.128 912.134C602.628 916.426 604.169 923.487 611.399 933.534C623.162 949.877 674.656 990.867 716.485 1016.62C759.701 1043.23 803.517 1063.66 823.559 1066.61C841.66 1069.27 847.391 1066.71 855.813 1054.05L856.335 1053.26C860.669 1046.71 866.649 1037.36 874.272 1025.2L878.589 1018.3Z" fill="#000000"/><path id="Path 107" fill-rule="evenodd" clip-rule="evenodd" d="M635.23 745.062L590.258 819.244C590.258 819.244 581.261 830.274 597.625 852.999C613.989 875.723 685.88 933.605 747.357 971.434C808.834 1009.26 871.242 1038.37 900.166 1042.62C929.09 1046.88 937.331 1040.61 948.645 1023.6C959.96 1006.59 982.439 970.542 982.439 970.542L635.23 745.062Z" fill="#adf57d"/><path id="Path 107 Copy 3" fill-rule="evenodd" clip-rule="evenodd" d="M634.148 743L982 970.893L980.969 972.561C966.997 995.162 956.282 1012.16 948.82 1023.57L947.022 1026.3C934.34 1045.32 924.38 1049.64 897.364 1045.63C868.358 1041.33 806.282 1012.14 744.997 974.099C685.683 937.278 612.865 878.835 595.862 855.014C584.628 839.275 581.971 827.168 588.531 818.91L634.148 743ZM977 971.251L635.481 748L591.803 820.527L591.716 820.635C586.599 826.948 588.641 837.009 598.448 851.021L599.105 851.951C615.742 875.207 688.296 933.309 747.26 969.832C808.178 1007.57 869.934 1036.53 898.288 1040.73C912.236 1042.8 921.155 1042.34 927.825 1039.35C933.802 1036.66 938.263 1032.02 944.498 1022.58L944.78 1022.16C950.936 1012.82 959.538 999.296 970.584 981.575L977 971.251Z" fill="#000000"/><ellipse id="Oval_2" cx="808.837" cy="857.802" rx="207" ry="39" transform="rotate(33 808.837 857.802)" fill="#6dce2d"/><path id="Oval Copy 11" fill-rule="evenodd" clip-rule="evenodd" d="M982.766 971.037C994.497 952.972 926.281 887.853 830.402 825.588C734.522 763.324 647.287 727.492 635.556 745.556C623.825 763.62 692.041 828.74 787.92 891.005C883.799 953.269 971.035 989.101 982.766 971.037ZM700.988 759.596C736.875 774.455 782.214 799.064 828.223 828.943L829.616 829.849C875.522 859.758 916.263 891.135 944.175 917.781L944.88 918.455C957.74 930.791 967.436 941.742 973.4 950.659L974.036 951.623C979.623 960.231 981.148 966.184 979.411 968.858C977.674 971.533 971.616 972.561 961.48 970.958C950.591 969.235 935.916 964.631 918.418 957.444L917.333 956.997C881.446 942.137 836.108 917.529 790.098 887.65L788.706 886.744C742.8 856.835 702.059 825.458 674.146 798.812L673.441 798.138C660.114 785.353 650.185 774.056 644.286 764.969C638.698 756.362 637.174 750.409 638.911 747.735C640.647 745.06 646.705 744.032 656.842 745.635C667.73 747.358 682.406 751.962 699.903 759.149L700.988 759.596Z" fill="#000000"/><path id="Path 106" fill-rule="evenodd" clip-rule="evenodd" d="M668.365 740.584C668.365 740.584 744.907 546.55 841.365 434.337C937.824 322.124 1170.56 275.763 1170.56 275.763C1170.56 275.763 1270.98 472.356 1180.9 646.328C1090.82 820.3 971.313 937.869 971.313 937.869C971.313 937.869 921.788 959.676 788.501 873.838C655.214 788 668.365 740.584 668.365 740.584Z" fill="#adf57d"/><path id="Path 106 Copy" fill-rule="evenodd" clip-rule="evenodd" d="M1171.97 274L1172.66 275.347C1239.89 406.965 1243.36 531.166 1183 647.742C1122.85 763.904 1052.87 861.255 973.039 939.789L972.778 940.046L972.442 940.194C938.57 955.108 877.155 933.597 787.741 876.014C698.126 818.301 657.647 773.402 666.76 740.543L666.827 740.344C717.931 610.795 775.706 508.522 840.172 433.527C904.812 358.329 1014.93 305.283 1170.49 274.296L1171.97 274ZM1169.78 278.517L1166.64 279.15C1014.33 310.102 906.536 362.46 843.205 436.135C779.059 510.757 721.5 612.65 670.548 741.812L670.59 741.706L670.377 742.527C663.066 772.549 701.89 815.6 787.278 870.952L789.907 872.651C878.209 929.518 938.668 950.694 970.83 936.533L970.502 936.672L972.616 934.585C1050.35 857.556 1118.7 762.487 1177.64 649.371L1179.45 645.903C1239.19 530.516 1235.76 407.673 1169.1 277.167L1169.78 278.517Z" fill="#000000"/><path id="Path 108" fill-rule="evenodd" clip-rule="evenodd" d="M808.836 475.299C808.836 475.299 861.704 393.622 966.379 338.118C1071.05 282.614 1170.56 275.763 1170.56 275.763C1170.56 275.763 1231.81 398.66 1223.49 501.138C1215.18 603.616 1161.18 683.362 1161.18 683.362C1161.18 683.362 1057.38 638.331 982.441 594.73C907.5 551.129 808.836 475.299 808.836 475.299Z" fill="#519a22"/><path id="Path 108 Copy" fill-rule="evenodd" clip-rule="evenodd" d="M1172.07 274.17L1172.67 275.365C1213.65 357.602 1231.38 433.081 1225.81 501.794C1220.24 570.451 1199.35 631.523 1163.15 684.978L1162.22 686.351L1158.56 684.762C1090.21 655.031 1031.27 625.763 981.757 596.953L980.253 596.076C931.559 567.626 875.437 529.069 811.88 480.402L806.477 476.255L807.479 474.707C842.92 419.953 895.693 374.001 965.764 336.846C1035.79 299.717 1104.11 278.85 1170.74 274.262L1172.07 274.17ZM1169.68 278.347L1169.03 278.394C1103.62 283.215 1036.49 303.872 967.638 340.379C899.532 376.493 847.984 420.915 812.96 473.642L811.844 475.334L816.191 478.664C878.852 526.558 934.214 564.544 982.27 592.622L983.768 593.495C1032.11 621.623 1089.49 650.206 1155.91 679.24L1160.77 681.358L1161.95 679.585C1196.11 627.998 1216.01 569.316 1221.65 503.508L1221.82 501.471C1227.33 433.546 1209.77 358.775 1169.09 277.149L1169.68 278.347Z" fill="#000000"/><ellipse id="Oval_3" cx="838.206" cy="678.449" rx="93.5" ry="105.5" transform="rotate(27 838.206 678.449)" fill="#325f15"/><path id="Oval Copy 12" fill-rule="evenodd" clip-rule="evenodd" d="M921.839 721.392C948.292 669.476 932.437 608.386 886.426 584.942C840.416 561.499 781.673 584.58 755.221 636.495C728.769 688.411 744.624 749.501 790.634 772.945C836.645 796.388 895.387 773.307 921.839 721.392ZM758.785 638.311C784.28 588.275 840.671 566.118 884.61 588.506C928.55 610.895 943.77 669.539 918.275 719.576C892.781 769.612 836.39 791.769 792.45 769.381C748.511 746.992 733.29 688.348 758.785 638.311Z" fill="#000000"/><ellipse id="Oval Copy 5" cx="834.211" cy="680.353" rx="51.9138" ry="58.9781" transform="rotate(27 834.211 680.353)" fill="#ffffff"/><path id="Oval Copy 13" fill-rule="evenodd" clip-rule="evenodd" d="M881.254 703.505C896.298 673.98 887.351 639.272 861.27 625.983C835.189 612.694 801.851 625.857 786.807 655.382C771.764 684.907 780.711 719.615 806.791 732.904C832.872 746.193 866.21 733.03 881.254 703.505ZM790.371 657.198C804.459 629.549 835.447 617.315 859.454 629.547C883.461 641.779 891.778 674.04 877.69 701.689C863.602 729.338 832.614 741.572 808.607 729.34C784.6 717.108 776.284 684.847 790.371 657.198Z" fill="#000000"/></g></svg>