<svg viewBox="362.79999999999995 425.70114942528744 1088.3999999999999 951.0344827586208" fill="none" xmlns="http://www.w3.org/2000/svg" xmlns:xlink="http://www.w3.org/1999/xlink" overflow="visible" width="1088.3999999999999px" height="951.0344827586208px"><g id="Master/Office Supplies/Books"><g id="Group Copy"><g id="Group 13"><path id="Path 41" fill-rule="evenodd" clip-rule="evenodd" d="M457.915 840.447L407.1 868.228C407.1 868.228 397.345 921.247 407.1 966.363C416.855 1011.48 545.931 1077.45 545.931 1077.45L999.775 1355.19L1086.48 1286.69L1027.25 1120.05L457.915 840.447Z" fill="white"/><path id="Path 41 Copy" fill-rule="evenodd" clip-rule="evenodd" d="M456.274 838.798L1026.94 1119.05L1086.78 1287.39L998.29 1357.3L543.545 1079L541.019 1077.71C457.046 1034.53 411.439 998.029 404.144 967.781L403.933 966.857C397.383 936.564 397.383 903.64 403.923 868.093L404.061 867.343L456.274 838.798ZM456.353 842.406L406.938 869.422L406.657 870.987C400.679 904.861 400.747 936.261 406.854 965.194L407.064 966.18C413.425 995.599 459.442 1032.42 545.059 1076.18L545.166 1076.24L998.057 1353.4L1082.99 1286.3L1024.35 1121.35L456.353 842.406Z" fill="black"/><path id="Path 39" fill-rule="evenodd" clip-rule="evenodd" d="M1433.75 955.201V981.637L1030.65 1198.28L1002.62 1222.06L425.279 872.528C425.279 872.528 403.43 895.315 407.595 938.476C411.76 981.637 440.08 997.164 440.08 997.164L992.562 1338.45L1420.5 1107.93L1420.07 1095.61L1433.75 1101.8V1128.24L992.562 1365.69L416.853 1011.48C416.853 1011.48 386.507 976.18 383.441 929.333C380.374 882.487 416.853 838.443 416.853 838.443L891.664 636.602C891.664 636.602 999.235 688.149 1075.72 735.275C1152.2 782.401 1433.75 955.201 1433.75 955.201Z" fill="#33C37E"/><path id="Path 39 Copy" fill-rule="evenodd" clip-rule="evenodd" d="M414.267 837.276L890.103 635L892.905 636.344C963.743 670.359 1024.43 702.932 1074.96 734.067L1094.26 745.955C1131.9 769.115 1191.74 805.887 1273.79 856.268L1433.75 954.46V982.75L1029.95 1199.77L1001.17 1224.19L423.957 874.726L423.577 875.144C410.422 889.757 405.046 910.551 407.509 937.629L407.588 938.478C410.318 966.762 420.88 985.843 439.248 995.914L439.32 995.956L991.015 1336.76L1417.26 1107.14L1416.78 1093.24L1433.75 1100.92V1129.35L990.907 1367.69L414.2 1012.87L413.427 1011.96C393.355 988.327 382.288 960.854 380.241 929.593C378.169 897.93 389.451 867.239 414.019 837.576L414.267 837.276ZM890.023 638.515L416.239 839.919L415.767 840.492C392.434 868.991 381.661 898.296 383.382 928.46L383.438 929.384C385.46 960.269 396.463 987.321 416.467 1010.59L416.305 1010.4L991.013 1364L1430.54 1127.44V1102.99L1420.16 1098.29L1420.54 1109.02L990.906 1340.46L437.663 998.698L437.129 998.402C418.289 987.799 407.416 968.158 404.487 939.661L404.399 938.786C401.581 909.581 407.599 887.138 422.521 871.574L423.409 870.648L1000.86 1220.25L1028.14 1197.11L1430.54 980.834V956.253L1296.58 874.019C1207.5 819.326 1142.05 779.117 1100.23 753.392L1073.27 736.795C1023.36 706.037 963.485 673.858 893.659 640.261L890.023 638.515Z" fill="black"/><path id="Path 40" fill-rule="evenodd" clip-rule="evenodd" d="M1419.39 989.083V1111.27L1024.49 1322.19C1024.49 1322.19 991.098 1322.57 991.098 1275.57C991.098 1228.57 1014.52 1207.3 1014.52 1207.3L1419.39 989.083Z" fill="white"/><path id="Path 40 Copy" fill-rule="evenodd" clip-rule="evenodd" d="M1419.39 986.555V1112.39L1023.29 1323.95L1022.9 1323.95C999.606 1324.21 987.891 1307.85 987.891 1275.72C987.891 1243.97 995.847 1220.79 1011.84 1206.27L1011.99 1206.14L1419.39 986.555ZM1416.18 1110.47V991.921L1013.85 1208.77L1013.54 1209.06C998.754 1222.78 991.247 1244.66 991.097 1274.8L991.094 1275.72C991.094 1306.26 1001.64 1320.98 1022.87 1320.75L1022.48 1320.75L1416.18 1110.47Z" fill="black"/><g id="Group 10"><path id="Path 38" d="M1219.69 1139.08L1221.21 1141.9L1069.54 1223.58L1068.02 1220.76L1219.69 1139.08Z" fill="black"/><path id="Path 38 Copy" d="M1219.69 1157.5L1221.21 1160.33L1069.54 1242.01L1068.02 1239.19L1219.69 1157.5Z" fill="black"/><path id="Path 38 Copy 2" d="M1389.24 1096.61L1390.73 1099.45L1303.94 1145.11L1302.45 1142.28L1389.24 1096.61Z" fill="black"/><path id="Path 38 Copy 3" d="M1362.81 1089.4L1364.3 1092.24L1277.51 1137.9L1276.02 1135.07L1362.81 1089.4Z" fill="black"/><path id="Path 38 Copy 4" d="M1396.45 1030.92L1397.94 1033.76L1311.15 1079.42L1309.66 1076.59L1396.45 1030.92Z" fill="black"/></g><g id="Group 23"><path id="Path 44" d="M508.995 970.099L745.028 1117.15L743.335 1119.87L507.301 972.819L508.995 970.099Z" fill="black"/><path id="Path 44 Copy" d="M460.139 970.099L696.173 1117.15L694.479 1119.87L458.445 972.819L460.139 970.099Z" fill="black"/><path id="Path 44 Copy 2" d="M821.344 1207.22L931.87 1275.31L930.19 1278.04L819.664 1209.95L821.344 1207.22Z" fill="black"/><path id="Path 44 Copy 3" d="M808.528 1159.95L919.054 1228.05L917.373 1230.78L806.848 1162.68L808.528 1159.95Z" fill="black"/></g><g id="Group 19"><path id="Oval (Stroke)" fill-rule="evenodd" clip-rule="evenodd" d="M773.154 958.223C837.257 970.683 897.422 937.005 907.84 883.411C918.257 829.818 875.089 776.054 810.986 763.594C746.883 751.133 686.718 784.811 676.301 838.405C665.883 891.999 709.051 945.762 773.154 958.223ZM772.963 959.204C837.443 971.738 898.269 937.89 908.821 883.602C919.374 829.315 875.657 775.146 811.177 762.612C746.697 750.078 685.871 783.927 675.319 838.214C664.767 892.501 708.483 946.671 772.963 959.204Z" fill="#979797"/><path id="Oval Copy 6" fill-rule="evenodd" clip-rule="evenodd" d="M908.819 883.602C919.372 829.314 875.655 775.145 811.176 762.611C746.697 750.078 685.871 783.926 675.319 838.214C664.766 892.502 708.483 946.672 772.962 959.205C837.441 971.739 898.267 937.89 908.819 883.602ZM678.464 838.826C688.653 786.407 747.714 753.54 810.565 765.757C873.416 777.974 915.864 830.572 905.674 882.991C895.485 935.41 836.425 968.277 773.573 956.06C710.722 943.843 668.274 891.245 678.464 838.826Z" fill="black"/><g id="Group 18"><ellipse id="Oval Copy 4" cx="764.801" cy="834.054" rx="13.6156" ry="11.6158" transform="rotate(11 764.801 834.054)" fill="black"/><ellipse id="Oval Copy 5" cx="820.063" cy="834.054" rx="13.6156" ry="11.6158" transform="rotate(11 820.063 834.054)" fill="black"/><path id="Path 42" d="M731.522 857.802C746.991 881.407 768.471 892.982 796.822 892.982C824.706 892.982 844.466 881.831 857.193 859.045L857.576 858.351L871.631 866.037C856.063 894.515 830.752 909.004 796.822 909.004C763.415 909.004 737.089 894.997 718.68 867.425L718.125 866.586L731.522 857.802Z" fill="black"/></g></g><path id="Path 43" fill-rule="evenodd" clip-rule="evenodd" d="M1177.53 1010.73C1177.53 1010.73 1050.91 1060.25 996.106 1010.73C941.302 961.213 1020.2 920.709 1068.55 937.16C1068.55 937.16 1055.67 884.977 1091.28 866.469C1126.89 847.961 1177.53 878.188 1177.53 919.7C1177.53 961.213 1177.53 1010.73 1177.53 1010.73Z" fill="#FF2929"/><path id="Path 43 Copy" fill-rule="evenodd" clip-rule="evenodd" d="M1066.25 934.384C1058.81 900.996 1066.64 877.866 1089.81 865.432L1090.54 865.047C1127.5 845.836 1179.13 877.311 1179.13 919.7V1011.83L1178.11 1012.22C1093.19 1045.43 1032.12 1045.43 995.032 1011.92C969.326 988.694 970.341 964.768 992.682 947.928C1011.76 933.545 1042.43 927.91 1066.14 934.726L1066.34 934.786L1066.25 934.384ZM1175.92 1009.64L1175.93 919.7C1175.93 879.712 1126.85 849.789 1092.02 867.891C1069.01 879.849 1061.68 902.645 1070.11 936.776L1070.81 939.62L1068.04 938.677C1044.99 930.834 1013.65 936.138 994.61 950.487C973.879 966.113 972.965 987.663 997.18 1009.54C1033.16 1042.06 1093.04 1042.06 1176.94 1009.24L1175.92 1009.64Z" fill="black"/></g><g id="Group 13 Copy"><path id="Path 41_2" fill-rule="evenodd" clip-rule="evenodd" d="M457.915 630.447L407.1 658.228C407.1 658.228 397.345 711.247 407.1 756.363C416.855 801.479 545.931 867.452 545.931 867.452L999.775 1145.19L1086.48 1076.69L1027.25 910.046L457.915 630.447Z" fill="white"/><path id="Path 41 Copy_2" fill-rule="evenodd" clip-rule="evenodd" d="M456.274 628.798L1026.94 909.05L1086.78 1077.39L998.29 1147.3L543.545 869.004L541.019 867.71C457.046 824.526 411.439 788.029 404.144 757.781L403.933 756.857C397.383 726.564 397.383 693.64 403.923 658.093L404.061 657.343L456.274 628.798ZM456.353 632.406L406.938 659.421L406.657 660.987C400.679 694.861 400.747 726.261 406.854 755.194L407.064 756.179C413.425 785.599 459.442 822.42 545.059 866.18L545.166 866.24L998.057 1143.4L1082.99 1076.3L1024.35 911.351L456.353 632.406Z" fill="black"/><path id="Path 39_2" fill-rule="evenodd" clip-rule="evenodd" d="M1433.75 745.201V771.637L1030.65 988.284L1002.62 1012.06L425.279 662.528C425.279 662.528 403.43 685.315 407.595 728.476C411.76 771.637 440.08 787.164 440.08 787.164L992.562 1128.45L1420.5 897.928L1420.07 885.612L1433.75 891.801V918.237L992.562 1155.69L416.853 801.479C416.853 801.479 386.507 766.18 383.441 719.333C380.374 672.487 416.853 628.443 416.853 628.443L891.664 426.602C891.664 426.602 999.235 478.149 1075.72 525.275C1152.2 572.401 1433.75 745.201 1433.75 745.201Z" fill="#9A7AFF"/><path id="Path 39 Copy_2" fill-rule="evenodd" clip-rule="evenodd" d="M414.267 627.276L890.103 425L892.905 426.344C963.743 460.359 1024.43 492.932 1074.96 524.067L1094.26 535.955C1131.9 559.115 1191.74 595.887 1273.79 646.268L1433.75 744.46V772.75L1029.95 989.771L1001.17 1014.19L423.957 664.726L423.577 665.144C410.422 679.757 405.046 700.551 407.509 727.629L407.588 728.478C410.318 756.762 420.88 775.843 439.248 785.914L439.32 785.956L991.015 1126.76L1417.26 897.144L1416.78 883.244L1433.75 890.923V919.35L990.907 1157.69L414.2 802.868L413.427 801.964C393.355 778.327 382.288 750.854 380.241 719.593C378.169 687.93 389.451 657.239 414.019 627.576L414.267 627.276ZM890.023 428.515L416.239 629.919L415.767 630.492C392.434 658.991 381.661 688.296 383.382 718.46L383.438 719.384C385.46 750.269 396.463 777.321 416.467 800.589L416.305 800.401L991.013 1154L1430.54 917.435V892.99L1420.16 888.291L1420.54 899.022L990.906 1130.46L437.663 788.698L437.129 788.402C418.289 777.799 407.416 758.158 404.487 729.661L404.399 728.786C401.581 699.581 407.599 677.138 422.521 661.574L423.409 660.648L1000.86 1010.25L1028.14 987.108L1430.54 770.834V746.253L1296.58 664.019C1207.5 609.326 1142.05 569.117 1100.23 543.392L1073.27 526.795C1023.36 496.037 963.485 463.858 893.659 430.261L890.023 428.515Z" fill="black"/><path id="Path 40_2" fill-rule="evenodd" clip-rule="evenodd" d="M1419.39 779.083V901.273L1024.49 1112.19C1024.49 1112.19 991.098 1112.57 991.098 1065.57C991.098 1018.57 1014.52 997.298 1014.52 997.298L1419.39 779.083Z" fill="white"/><path id="Path 40 Copy_2" fill-rule="evenodd" clip-rule="evenodd" d="M1419.39 776.555V902.39L1023.29 1113.95L1022.9 1113.95C999.606 1114.21 987.891 1097.85 987.891 1065.72C987.891 1033.97 995.847 1010.79 1011.84 996.267L1011.99 996.135L1419.39 776.555ZM1416.18 900.468V781.921L1013.85 998.768L1013.54 999.057C998.754 1012.78 991.247 1034.66 991.097 1064.8L991.094 1065.72C991.094 1096.26 1001.64 1110.98 1022.87 1110.75L1022.48 1110.75L1416.18 900.468Z" fill="black"/><g id="Group 10_2"><path id="Path 38_2" d="M1219.69 929.079L1221.21 931.9L1069.54 1013.58L1068.02 1010.76L1219.69 929.079Z" fill="black"/><path id="Path 38 Copy_2" d="M1219.69 947.504L1221.21 950.326L1069.54 1032.01L1068.02 1029.19L1219.69 947.504Z" fill="black"/><path id="Path 38 Copy 2_2" d="M1389.24 886.614L1390.73 889.45L1303.94 935.112L1302.45 932.276L1389.24 886.614Z" fill="black"/><path id="Path 38 Copy 3_2" d="M1362.81 879.404L1364.3 882.24L1277.51 927.903L1276.02 925.067L1362.81 879.404Z" fill="black"/><path id="Path 38 Copy 4_2" d="M1396.45 820.924L1397.94 823.76L1311.15 869.423L1309.66 866.587L1396.45 820.924Z" fill="black"/></g><g id="Group 23_2"><path id="Path 44_2" d="M508.995 760.099L745.028 907.148L743.335 909.868L507.301 762.819L508.995 760.099Z" fill="black"/><path id="Path 44 Copy_2" d="M460.139 760.099L696.173 907.148L694.479 909.868L458.445 762.819L460.139 760.099Z" fill="black"/><path id="Path 44 Copy 2_2" d="M821.344 997.218L931.87 1065.31L930.19 1068.04L819.664 999.947L821.344 997.218Z" fill="black"/><path id="Path 44 Copy 3_2" d="M808.528 949.954L919.054 1018.05L917.373 1020.78L806.848 952.682L808.528 949.954Z" fill="black"/></g><g id="Group 19_2"><ellipse id="Oval" cx="792.07" cy="650.908" rx="118.936" ry="100.136" transform="rotate(11 792.07 650.908)" fill="#FFF900"/><path id="Oval (Stroke)_2" fill-rule="evenodd" clip-rule="evenodd" d="M773.516 745.36C836.487 757.6 894.671 724.434 904.684 672.921C914.697 621.408 873.174 568.861 810.203 556.621C747.231 544.38 689.048 577.546 679.035 629.059C669.021 680.572 710.544 733.119 773.516 745.36ZM772.752 749.286C837.232 761.82 898.058 727.972 908.61 673.684C919.163 619.397 875.446 565.228 810.966 552.694C746.486 540.161 685.66 574.009 675.108 628.296C664.556 682.583 708.273 736.753 772.752 749.286Z" fill="black"/><g id="Group 18_2"><ellipse id="Oval Copy 4_2" cx="764.801" cy="624.053" rx="13.6156" ry="11.6158" transform="rotate(11 764.801 624.053)" fill="black"/><ellipse id="Oval Copy 5_2" cx="820.063" cy="624.053" rx="13.6156" ry="11.6158" transform="rotate(11 820.063 624.053)" fill="black"/><path id="Path 42_2" d="M731.522 647.802C746.991 671.407 768.471 682.982 796.822 682.982C824.706 682.982 844.466 671.831 857.193 649.045L857.576 648.351L871.631 656.037C856.063 684.515 830.752 699.004 796.822 699.004C763.415 699.004 737.089 684.997 718.68 657.425L718.125 656.586L731.522 647.802Z" fill="black"/></g></g><path id="Path 43_2" fill-rule="evenodd" clip-rule="evenodd" d="M1177.53 800.732C1177.53 800.732 1050.91 850.251 996.106 800.732C941.302 751.213 1020.2 710.709 1068.55 727.16C1068.55 727.16 1055.67 674.977 1091.28 656.469C1126.89 637.961 1177.53 668.188 1177.53 709.7C1177.53 751.213 1177.53 800.732 1177.53 800.732Z" fill="#FF2929"/><path id="Path 43 Copy_2" fill-rule="evenodd" clip-rule="evenodd" d="M1066.25 724.384C1058.81 690.996 1066.64 667.866 1089.81 655.432L1090.54 655.047C1127.5 635.836 1179.13 667.311 1179.13 709.7V801.826L1178.11 802.224C1093.19 835.434 1032.12 835.434 995.032 801.921C969.326 778.694 970.341 754.768 992.682 737.928C1011.76 723.545 1042.43 717.91 1066.14 724.726L1066.34 724.786L1066.25 724.384ZM1175.92 799.635L1175.93 709.7C1175.93 669.712 1126.85 639.789 1092.02 657.891C1069.01 669.849 1061.68 692.645 1070.11 726.776L1070.81 729.62L1068.04 728.677C1044.99 720.834 1013.65 726.138 994.61 740.487C973.879 756.113 972.965 777.663 997.18 799.543C1033.16 832.055 1093.04 832.055 1176.94 799.24L1175.92 799.635Z" fill="black"/></g></g></g></svg>