<svg viewBox="362.79999999999995 380.41379310344837 1088.3999999999999 792.5287356321841" fill="none" xmlns="http://www.w3.org/2000/svg" xmlns:xlink="http://www.w3.org/1999/xlink" overflow="visible" width="1088.3999999999999px" height="792.5287356321841px"><g id="Master/Marketing/Magnifying Glass"><path id="Path 150" fill-rule="evenodd" clip-rule="evenodd" d="M1070.21 707.697C1070.21 707.697 991.786 555.483 766.425 555.483C541.064 555.483 459.715 707.697 459.715 707.697L411.441 584.676L505.671 502.965L650.188 439.57L820.048 424.5L947.374 469.741L1046.23 544.625L1113.73 671.108L1070.21 707.697Z" fill="#e6b3f0"/><path id="Path 150 Copy" fill-rule="evenodd" clip-rule="evenodd" d="M820.572 422.969L649.951 438.107L504.855 501.755L409.328 584.591L459.702 712.962L461.745 709.14C515.597 608.375 617.136 557.983 766.69 557.983C916.236 557.983 1016.79 608.367 1068.7 709.114L1069.85 711.34L1116.53 672.096L1048.06 543.796L948.6 468.46L820.572 422.969ZM650.957 442.033L820.057 427.03L946.678 472.021L1044.94 546.453L1111.47 671.119L1071.1 705.064L1070.66 704.231C1018.09 605.071 918.161 555 771.204 553.999L766.69 553.983C618.782 553.983 516.966 603.044 461.552 701.185L460.277 703.474L414.085 585.76L507.017 505.175L650.957 442.033Z" fill="#000000"/><path id="Oval Copy" d="M373.498 653C361.998 888.5 488.366 972.359 733.641 993.818C951.475 1012.88 1148 909.5 1155.5 749.5C1184 485 958.762 414.851 796.002 404C571 389 366.498 501.5 373.498 653Z" fill="#dc93e9"/><path id="Oval Copy (Stroke)" fill-rule="evenodd" clip-rule="evenodd" d="M1041.06 478.44C1114.42 528.736 1164.7 610.849 1152.76 742.608L1152.75 742.668L1152.75 742.728C1150.38 821.893 1101.06 888.047 1024.91 932.58C948.762 977.114 845.959 999.887 737.236 992.23C614.546 983.59 521.739 958.876 460.534 907.252C399.451 855.732 369.483 777.083 373.224 659.627L373.227 659.532L373.221 659.438C368.502 584.792 416.068 518.562 493.316 472.261C570.532 425.98 677.077 399.858 789.346 405.432C870.649 409.469 967.545 428.034 1041.06 478.44ZM1043.33 475.141C968.922 424.128 871.162 405.489 789.544 401.437C676.589 395.829 569.24 422.091 491.26 468.83C413.344 515.531 364.42 582.92 369.223 659.595C365.478 777.749 395.644 857.754 457.955 910.31C520.161 962.778 614.041 987.564 736.955 996.22C846.358 1003.92 949.987 981.031 1026.93 936.033C1103.86 891.043 1154.3 823.821 1156.75 742.908C1168.79 609.757 1117.88 526.255 1043.33 475.141Z" fill="#000000"/><path id="Oval Copy 2" d="M456 628C446.866 732.399 557 826 737.448 834.539C894.228 834.538 1043.02 778.11 1072.8 666.756C1081.93 562.357 964.692 473.93 794.374 459.029C624.5 451.5 465.134 523.601 456 628Z" fill="#ffffff"/><path id="Oval Copy 4" fill-rule="evenodd" clip-rule="evenodd" d="M454.596 620.104C463.11 522.795 639.188 445.437 802.769 459.748C966.349 474.06 1081.71 565.918 1073.19 663.227C1064.68 760.536 907.37 852.135 713.692 833.384C520.014 814.632 446.083 717.413 454.596 620.104ZM1069.21 662.878C1077.63 566.584 961.459 477.647 802.42 463.733C638.454 449.388 466.735 527.251 458.581 620.452C454.235 670.13 471.948 716.82 511.05 753.277C554.652 793.929 623.008 820.585 714.077 829.402C805.349 838.239 893.139 822.666 961.071 788.26C1025.17 755.795 1065.13 709.501 1069.21 662.878Z" fill="#000000"/><g id="Group"><path id="Combined Shape" d="M1002.96 923.786C989.226 914.521 991.485 887.153 1008.01 862.657C1024.53 838.161 1049.06 825.814 1062.8 835.079C1064.24 836.052 1065.5 837.224 1066.59 838.572L1133.27 883.517L1079.12 964.585L1010 926.562C1007.44 926.125 1005.07 925.211 1002.96 923.786Z" fill="#ce68e0"/><path id="Combined Shape Copy 2" fill-rule="evenodd" clip-rule="evenodd" d="M1067.8 836.866C1066.79 835.691 1065.66 834.651 1064.41 833.756L1063.94 833.427C1049.03 823.37 1023.43 836.254 1006.38 861.544C989.318 886.834 986.961 915.393 1001.87 925.45C1004.1 926.956 1006.61 927.966 1009.35 928.478L1079.79 967.228L1136.06 882.977L1067.97 837.07L1067.8 836.866ZM1004.11 922.134C991.545 913.66 993.706 887.483 1009.69 863.781C1025.68 840.079 1049.14 828.269 1061.7 836.743C1062.97 837.594 1064.09 838.626 1065.06 839.832L1065.25 840.064L1130.52 884.067L1078.5 961.953L1010.69 924.652L1010.36 924.595C1008.04 924.199 1005.95 923.378 1004.11 922.134Z" fill="#000000"/><path id="Combined Shape_2" d="M1088.53 1003C1068.15 989.255 1071.67 948.421 1096.37 911.792C1121.08 875.162 1157.62 856.609 1178 870.353C1178.47 870.668 1178.92 870.998 1179.37 871.342L1437 1023.35L1350.86 1157.15L1093.3 1005.52C1091.63 1004.85 1090.03 1004.01 1088.53 1003Z" fill="#dc93e9"/><path id="Combined Shape Copy 3" fill-rule="evenodd" clip-rule="evenodd" d="M1088.56 1003C1068.19 989.261 1071.7 948.426 1096.4 911.797C1121.11 875.168 1157.66 856.615 1178.03 870.358C1178.5 870.671 1178.95 870.998 1179.39 871.339L1437.03 1023.36L1350.89 1157.16L1093.32 1005.52C1091.65 1004.85 1090.06 1004.02 1088.56 1003ZM1175.79 873.674C1157.77 861.519 1123.36 878.992 1099.72 914.034L1099.02 915.086C1076.02 949.841 1072.96 987.655 1090.8 999.688C1092.05 1000.53 1093.39 1001.24 1094.8 1001.81L1095.08 1001.92L1349.61 1151.76L1431.42 1024.69L1177.14 874.655L1176.93 874.5L1176.56 874.216C1176.31 874.03 1176.05 873.849 1175.79 873.674Z" fill="#000000"/><ellipse id="Oval" rx="44.5" ry="80" transform="matrix(-0.829038 -0.559193 -0.559193 0.829038 1392.26 1089.68)" fill="#e6b3f0"/><path id="Oval Copy 7" fill-rule="evenodd" clip-rule="evenodd" d="M1355.4 1064.8C1380.11 1028.17 1416.65 1009.61 1437.03 1023.36C1457.4 1037.1 1453.89 1077.94 1429.19 1114.56C1404.48 1151.19 1367.93 1169.75 1347.56 1156C1327.18 1142.26 1330.7 1101.43 1355.4 1064.8ZM1425.87 1112.33C1449.51 1077.29 1452.81 1038.83 1434.79 1026.67C1416.77 1014.52 1382.35 1031.99 1358.72 1067.03C1335.08 1102.07 1331.78 1140.53 1349.8 1152.69C1367.82 1164.84 1402.23 1147.37 1425.87 1112.33Z" fill="#000000"/></g><path id="Path 153" fill-rule="evenodd" clip-rule="evenodd" d="M992 603.765L618.538 626.63L582.994 587.112L947.047 566L992 603.765Z" fill="#e9bbf1"/><path id="Path 153 Copy 2" fill-rule="evenodd" clip-rule="evenodd" d="M946.725 563.957L577.725 585.356L616.697 628.685L996.121 605.456L946.725 563.957ZM586.264 588.867L945.369 568.042L985.88 602.075L618.38 624.574L586.264 588.867Z" fill="#000000"/><path id="Path 153 Copy" fill-rule="evenodd" clip-rule="evenodd" d="M949 695.765L575.538 718.63L539.994 679.112L904.047 658L949 695.765Z" fill="#e9bbf1"/><path id="Path 153 Copy 3" fill-rule="evenodd" clip-rule="evenodd" d="M903.725 655.957L534.725 677.356L573.697 720.685L953.121 697.456L903.725 655.957ZM543.264 680.867L902.369 660.042L942.88 694.075L575.38 716.574L543.264 680.867Z" fill="#000000"/><path id="Ellipse 1 (Stroke)" fill-rule="evenodd" clip-rule="evenodd" d="M1045.86 797.12C1111.8 748.133 1138.46 682.215 1138.46 622C1138.46 568.017 1098.48 513.459 1031.14 472.16C963.973 430.96 870.337 403.5 764.957 403.5C659.495 403.5 564.213 428.277 495.433 468.13C426.551 508.042 384.957 562.585 384.957 622C384.957 741.874 505.016 859.906 715.701 870.505C874.14 878.476 979.857 846.156 1045.86 797.12ZM715.5 874.5C1033.54 890.5 1142.46 744.883 1142.46 622C1142.46 510 977.034 399.5 764.957 399.5C552.88 399.5 380.957 499.117 380.957 622C380.957 744.883 503.691 863.844 715.5 874.5Z" fill="#000000"/></g></svg>