<svg viewBox="269.2000000000003 383.4140625 2389.15 2051.6015625000005" xmlns="http://www.w3.org/2000/svg" overflow="visible" xmlns:xlink="http://www.w3.org/1999/xlink" width="2389.15px" height="2051.6015625000005px"><g id="Master/Stickers/Flag" stroke="none" stroke-width="1" fill="none" fill-rule="evenodd"><g id="Sticker" transform="translate(280.000000, 414.330110)"><rect id="Rectangle" stroke="#d171e2" fill="#aa00c8" x=".5" y="1.17" width="92" height="2012"/><path d="M93,0.669889581 L93,1118.49156 C475.425809,992.6795 905.956115,1005.70018 1384.59092,1157.55361 C1863.22572,1309.40704 2190.87822,1376.86066 2367.5484,1359.91445 C2167.86023,1191.8954 2050.5555,920.055446 2015.63421,544.394584 C1980.71291,168.733723 1339.83484,-12.5078422 93,0.669889581 Z" id="Path-212" fill="#cc3eec"/><path d="M1109.5,220.66989 C1253.92246,220.66989 1371,337.747428 1371,482.16989 C1371,612.095217 1276.24727,719.889859 1152.07405,740.221575 L1152.10515,801.551872 L1224.11965,800.707248 C1238.55425,800.53797 1250.56861,811.752744 1251.39228,826.164822 L1251.71963,831.892619 C1252.57046,846.780014 1241.19158,859.538369 1226.30418,860.389202 C1225.99698,860.406759 1225.68949,860.419063 1225.38187,860.426109 L1152.13615,862.102872 L1152.17584,936.589929 C1152.18356,951.501615 1140.10151,963.596184 1125.18982,963.603904 C1125.03971,963.603981 1124.8896,963.602807 1124.7395,963.600381 L1112.83463,963.407963 C1098.10043,963.169814 1086.27861,951.161587 1086.27098,936.425467 L1086.23215,863.612872 L1015.08891,865.242715 C1000.34524,865.580408 988.0582,854.025475 987.490653,839.288867 L987.179531,831.210431 C986.605667,816.309789 998.219816,803.765223 1013.12046,803.19136 C1013.36119,803.182089 1013.60203,803.17604 1013.84292,803.173215 L1086.20115,802.323872 L1086.16842,742.643228 C952.67602,730.840266 848,618.729275 848,482.16989 C848,337.747428 965.077538,220.66989 1109.5,220.66989 Z" id="Combined-Shape" fill="#ffffff"/><ellipse id="Oval" fill="#cc3eec" cx="1109" cy="481.67" rx="206" ry="204"/></g></g></svg>