<svg viewBox="0 0 279.99999999999994 279.99999999999994" xmlns="http://www.w3.org/2000/svg" xmlns:xlink="http://www.w3.org/1999/xlink" overflow="visible" width="279.99999999999994px" height="279.99999999999994px"><defs><circle id="masteravataaardefault-with-backdrop-path-1" cx="140" cy="140" r="140"/><path d="M83,36.3476251 C83,52.6289957 105.161905,65.8276544 132.5,65.8276544 C159.838095,65.8276544 182,52.6289957 182,36.3476251 C182,34.9853134 181.844841,33.6445843 181.544472,32.3313638 C210.784239,41.4879251 232,68.792221 232,101.051724 L232,110 L32,110 L32,101.051724 C32,68.3970853 53.7386736,40.8197864 83.5337207,32.0021267 C83.1821692,33.4207025 83,34.871494 83,36.3476251 Z" id="masteravataaardefault-with-backdrop-path-3"/></defs><g id="Master/Avataaar/Default with Backdrop" stroke="none" stroke-width="1" fill="none" fill-rule="evenodd"><mask id="masteravataaardefault-with-backdrop-mask-2" fill="#ffffff"><use xlink:href="#masteravataaardefault-with-backdrop-path-1" fill="#ffffff"/></mask><use id="Oval" fill="#9fe1c4" xlink:href="#masteravataaardefault-with-backdrop-path-1"/><g id="Group" mask="url(#masteravataaardefault-with-backdrop-mask-2)"><g transform="translate(7.000000, 0.000000)"><path d="M133,36 C163.927946,36 189,61.072054 189,92 L189.000809,98.1660527 C194.675838,99.1185422 199,104.05429 199,110 L199,124 C199,130.052417 194.519235,135.058294 188.693975,135.881364 C186.627928,155.686472 174.237929,172.421678 157.001014,180.610469 L157,199 L161,199 C200.764502,199 233,231.235498 233,271 L233,280 L33,280 L33,271 C33,231.235498 65.235498,199 105,199 L109,199 L108.999984,180.610943 C91.7625487,172.422324 79.3721119,155.686854 77.3051107,135.88097 C71.480765,135.058294 67,130.052417 67,124 L67,110 C67,104.053942 71.3246685,99.1179645 77.0001873,98.1658855 L77,92 C77,61.072054 102.072054,36 133,36 Z" id="Body" fill="#915b3c" fill-rule="evenodd"/><path d="M108.998216,180.610103 C116.272713,184.066155 124.410519,186 133,186 C141.588785,186 149.725969,184.066469 157.000016,180.610943 L157.000353,185.94579 C150.441661,190.398372 142.524652,193 134,193 C124.589035,193 115.918635,189.829263 108.998807,184.497795 Z" id="shadow" fill-opacity=".24" fill="#000" fill-rule="evenodd"/><g id="Nose" fill="none" transform="translate(105.000000, 122.000000) scale(1 1)" fill-rule="evenodd"><g id="Nose/Wide" stroke="none" stroke-width="1" fill="none" fill-rule="evenodd"><path d="M13,6 C13,12.627417 16.8281211,18 28,18 C39.1718789,18 43,12.627417 43,6 C39.0361818,6 32.8972468,9 27.83815,9 C23.0794079,9 17.1013384,6 13,6 Z" id="Nose" fill-opacity=".16" fill="#000"/></g></g><g id="Clothing" fill="none" transform="translate(1.000000, 170.000000) scale(1 1)"><defs><path d="M156.001177,13.0710173 C174.10124,15.0965377 188,20.6637035 188,35.0769231 L187.994775,34.6445513 C213.853089,45.5674185 232,71.1642324 232,100.999485 L232,110 L32,110 L32,100.999485 C32,71.1638494 50.1473773,45.5667611 76.0062213,34.6441305 C76.2809798,20.5514284 90.0819496,15.075891 107.999825,13.0709052 L108,32 C108,45.254834 118.745166,56 132,56 C145.254834,56 156,45.254834 156,32 L156,32 Z" id="clothinghoodie-path-1"/></defs><g id="Clothing/Hoodie" stroke="none" stroke-width="1" fill="none" fill-rule="evenodd"><mask id="clothinghoodie-mask-2" fill="#ffffff"><use xlink:href="#clothinghoodie-path-1" fill="#ffffff"/></mask><use id="Hoodie" fill="#60e5ab" xlink:href="#clothinghoodie-path-1"/><path d="M101.999618,61.7388852 L102,110 L95,110 L94.9990839,58.149718 C97.2029904,59.4596568 99.5461861,60.6605136 101.999618,61.7388852 Z M169.001367,58.1494501 L169,98.5 C169,100.432997 167.432997,102 165.5,102 C163.567003,102 162,100.432997 162,98.5 L162.001384,61.7384448 C164.454619,60.6601132 166.797629,59.4593148 169.001367,58.1494501 Z" id="Straps" fill="#F4F4F4" mask="url(#clothinghoodie-mask-2)"/><path d="M173.041065,12.7245804 C188.091243,15.5714792 198.5,21.2431784 198.5,32.3076923 C198.5,52.0200095 165.462319,68 132,68 C98.5376807,68 65.5,52.0200095 65.5,32.3076923 C65.5,21.2431784 75.908757,15.5714792 90.9589345,12.7245804 C81.8748056,16.0747223 76,21.706273 76,31.0769231 C76,51.4689754 103.821205,68 132,68 C160.178795,68 188,51.4689754 188,31.0769231 C188,21.9004995 182.366206,16.3097803 173.60124,12.9358572 Z" id="Shadow" fill-opacity=".16" fill="#000" mask="url(#clothinghoodie-mask-2)"/></g></g><g id="Mouth" fill="none" transform="translate(79.000000, 134.000000) scale(1 1)" fill-rule="evenodd"><g id="Mouth/Default" stroke="none" stroke-width="1" fill="none" fill-rule="evenodd"><path d="M40,15 C40,22.7319865 46.2680135,29 54,29 L54,29 C61.7319865,29 68,22.7319865 68,15" id="Mouth" fill-opacity=".7" fill="#000"/></g></g><g id="Eyes" fill="none" transform="translate(77.000000, 90.000000) scale(1 1)" fill-rule="evenodd"><g id="Eyes/Happy" stroke="none" stroke-width="1" fill="none" fill-rule="evenodd"><path d="M16.1601674,22.4473116 C18.006676,18.648508 22.1644225,16 26.9975803,16 C31.8136766,16 35.9591217,18.629842 37.8153518,22.4071242 C38.3667605,23.5291977 37.5821037,24.4474817 36.790607,23.7670228 C34.3395063,21.6597833 30.8587163,20.3437884 26.9975803,20.3437884 C23.2572061,20.3437884 19.8737584,21.5787519 17.4375392,23.5716412 C16.5467928,24.3002944 15.6201012,23.5583844 16.1601674,22.4473116 Z" id="Squint" fill-opacity=".6" fill="#000"/><path d="M74.1601674,22.4473116 C76.006676,18.648508 80.1644225,16 84.9975803,16 C89.8136766,16 93.9591217,18.629842 95.8153518,22.4071242 C96.3667605,23.5291977 95.5821037,24.4474817 94.790607,23.7670228 C92.3395063,21.6597833 88.8587163,20.3437884 84.9975803,20.3437884 C81.2572061,20.3437884 77.8737584,21.5787519 75.4375392,23.5716412 C74.5467928,24.3002944 73.6201012,23.5583844 74.1601674,22.4473116 Z" id="Squint" fill-opacity=".6" fill="#000"/></g></g><g id="Eyebrow/Outline" fill="none" transform="translate(77.000000, 82.000000) scale(1 1)" fill-rule="evenodd"><g id="Eyebrow/Outline/Default" stroke="none" stroke-width="1" fill="none" fill-rule="evenodd"><g id="I-Browse" transform="translate(12.000000, 6.000000)" fill="#000" fill-opacity=".6" fill-rule="nonzero"><path d="M3.63024536,11.1585767 C7.54515501,5.64986673 18.2779197,2.56083721 27.5230268,4.83118046 C28.5957248,5.0946055 29.6788665,4.43856013 29.9422916,3.36586212 C30.2057166,2.2931641 29.5496712,1.21002236 28.4769732,0.94659732 C17.7403633,-1.69001789 5.31209962,1.88699832 0.369754639,8.84142326 C-0.270109626,9.74178291 -0.0589363917,10.9903811 0.84142326,11.6302454 C1.74178291,12.2701096 2.9903811,12.0589364 3.63024536,11.1585767 Z" id="Eyebrow"/><path d="M61.6302454,11.1585767 C65.545155,5.64986673 76.2779197,2.56083721 85.5230268,4.83118046 C86.5957248,5.0946055 87.6788665,4.43856013 87.9422916,3.36586212 C88.2057166,2.2931641 87.5496712,1.21002236 86.4769732,0.94659732 C75.7403633,-1.69001789 63.3120996,1.88699832 58.3697546,8.84142326 C57.7298904,9.74178291 57.9410636,10.9903811 58.8414233,11.6302454 C59.7417829,12.2701096 60.9903811,12.0589364 61.6302454,11.1585767 Z" id="Eyebrow" transform="translate(73.000154, 6.039198) scale(-1, 1) translate(-73.000154, -6.039198)"/></g></g></g><g id="Facial Hair" fill="none" transform="translate(50.000000, 72.000000) scale(1 1)" fill-rule="evenodd"><g id="Facial Hair/Blank" stroke="none" stroke-width="1" fill="none" fill-rule="evenodd" fill-opacity="0"/></g><g id="Hairstyle" fill="none" fill-rule="evenodd" transform="scale(1 1)"><g id="Hairstyle/Braids" stroke="none" stroke-width="1" fill="none" fill-rule="evenodd"><g id="Group-30" transform="translate(73.000000, -8.000000)"><path d="M107.3663,67.8552 C107.3023,67.7452 107.2353,67.6352 107.1713,67.5262 C107.2363,67.6352 107.3023,67.7452 107.3663,67.8552 M108.1303,69.2092 C108.0683,69.0962 108.0053,68.9822 107.9413,68.8692 C108.0053,68.9822 108.0683,69.0962 108.1303,69.2092 M108.6713,70.2322 C108.7293,70.3462 108.7893,70.4592 108.8463,70.5722 C108.7893,70.4592 108.7293,70.3462 108.6713,70.2322 M106.5533,66.5132 C106.4873,66.4072 106.4193,66.3022 106.3523,66.1962 C106.4203,66.3022 106.4873,66.4072 106.5533,66.5132 M124.6713,5.4912 C123.0333,4.0132 120.5113,4.1432 119.0283,5.7782 C118.7343,6.1042 118.5213,6.4692 118.3523,6.8502 C114.3033,5.3152 109.9163,4.4692 105.3293,4.4692 C105.1523,4.4692 104.9783,4.4802 104.8033,4.4822 C102.9703,2.9012 101.7383,1.9712 101.4863,1.7842 C99.7113,0.4712 97.2113,0.8452 95.8953,2.6182 C95.1723,3.5932 94.9753,4.7872 95.2263,5.8852 C92.2383,6.7372 89.4063,7.9562 86.7813,9.4922 C85.9263,8.9192 85.3683,8.5792 85.2023,8.4802 C83.3073,7.3472 80.8583,7.9632 79.7203,9.8542 C78.8153,11.3612 79.0353,13.2162 80.1123,14.4882 C77.6853,16.7752 75.5653,19.3832 73.8313,22.2522 C72.6783,21.7552 71.9273,21.5052 71.7483,21.4492 C69.6473,20.7912 67.4183,21.9532 66.7473,24.0502 C66.0763,26.1472 67.2363,28.3952 69.3303,29.0752 C69.4453,29.1132 69.8493,29.2512 70.4733,29.5102 C69.2323,33.1982 68.5503,37.1422 68.5503,41.2482 C68.5503,42.3052 68.6043,43.3492 68.6923,44.3842 C67.0303,44.1992 65.3083,44.0652 63.5283,43.9852 L63.5283,43.8872 C63.5283,41.6782 61.7373,39.8872 59.5283,39.8872 C57.3193,39.8872 55.5283,41.6782 55.5283,43.8872 L55.5283,43.9852 C52.1103,44.1402 48.9123,44.4922 45.9223,45.0212 L45.8663,44.8122 C45.3013,42.6762 43.1113,41.4052 40.9763,41.9692 C38.8403,42.5352 37.5683,44.7252 38.1333,46.8602 L38.1483,46.9162 C35.8263,47.6532 33.6503,48.5052 31.6233,49.4672 L31.4523,48.9872 C30.7113,46.9072 28.4263,45.8202 26.3423,46.5612 C24.2613,47.3022 23.1753,49.5902 23.9163,51.6712 L24.5993,53.5902 C22.3003,55.2302 20.2423,57.0252 18.4033,58.9362 C17.2673,58.2532 15.8223,58.1412 14.5503,58.7772 C12.5753,59.7682 11.7773,62.1712 12.7663,64.1462 L13.3213,65.2522 C12.1003,67.0722 11.0193,68.9442 10.0703,70.8442 C8.8193,70.1262 7.2303,70.0962 5.9303,70.9242 C4.0693,72.1132 3.5233,74.5862 4.7123,76.4482 L6.6193,79.4352 C5.7783,82.1002 5.1353,84.7382 4.6493,87.2802 C3.3373,87.0642 1.9493,87.4982 1.0043,88.5672 C-0.4597,90.2222 -0.3047,92.7502 1.3503,94.2132 L3.4793,96.0972 C3.1313,100.6572 3.2253,104.4112 3.3783,106.7012 C4.1673,118.5752 11.1253,118.4382 11.1253,106.2702 C11.1253,105.0712 11.2123,103.7552 11.3983,102.3612 C11.6523,102.4112 11.9083,102.4402 12.1653,102.4402 C13.2713,102.4402 14.3723,101.9842 15.1633,101.0902 C16.6273,99.4362 16.4713,96.9082 14.8173,95.4442 L13.5333,94.3092 C13.9713,93.2142 14.4743,92.1112 15.0593,91.0092 C15.4743,91.1492 15.9083,91.2282 16.3463,91.2282 C17.0833,91.2282 17.8293,91.0242 18.4953,90.5992 C20.3573,89.4102 20.9033,86.9372 19.7143,85.0752 L19.4483,84.6592 C20.1953,83.8042 20.9943,82.9642 21.8663,82.1482 C22.6313,83.1752 23.8283,83.7602 25.0693,83.7602 C25.6723,83.7602 26.2833,83.6232 26.8593,83.3352 C28.8333,82.3452 29.6323,79.9412 28.6423,77.9662 L28.3243,77.3322 C29.5683,76.5942 30.8993,75.9012 32.3153,75.2532 L32.4523,75.6382 C33.0353,77.2752 34.5763,78.2962 36.2203,78.2962 C36.6653,78.2962 37.1183,78.2222 37.5623,78.0632 C39.6433,77.3222 40.7293,75.0342 39.9883,72.9532 L39.8403,72.5382 C41.3613,72.1192 42.9683,71.7562 44.6433,71.4382 L44.7443,71.8192 C45.2193,73.6122 46.8373,74.7962 48.6083,74.7962 C48.9473,74.7962 49.2923,74.7532 49.6353,74.6622 C51.5643,74.1512 52.7753,72.3132 52.5763,70.3892 C53.5403,70.3142 54.5303,70.2582 55.5373,70.2152 C55.5863,72.3822 57.3493,74.1262 59.5283,74.1262 C61.7073,74.1262 63.4703,72.3822 63.5193,70.2152 C64.6633,70.2642 65.7803,70.3322 66.8683,70.4212 C66.6863,72.3342 67.8963,74.1542 69.8153,74.6622 C70.1583,74.7532 70.5033,74.7962 70.8423,74.7962 C72.6123,74.7962 74.2313,73.6122 74.7063,71.8192 L74.7883,71.5102 C76.4603,71.8372 78.0553,72.2142 79.5723,72.6432 L79.4623,72.9532 C78.7203,75.0342 79.8063,77.3222 81.8873,78.0632 C82.3313,78.2222 82.7843,78.2962 83.2293,78.2962 C84.8743,78.2962 86.4153,77.2752 86.9983,75.6382 L87.0783,75.4132 C88.4813,76.0702 89.8003,76.7722 91.0323,77.5182 L90.8073,77.9662 C89.8173,79.9412 90.6163,82.3452 92.5913,83.3352 C93.1663,83.6232 93.7783,83.7602 94.3813,83.7602 C95.5333,83.7602 96.6463,83.2542 97.4133,82.3592 C98.2873,83.1902 99.0933,84.0452 99.8383,84.9162 L99.7363,85.0752 C98.5473,86.9372 99.0933,89.4102 100.9543,90.5992 C101.6213,91.0242 102.3663,91.2282 103.1033,91.2282 C103.4233,91.2282 103.7403,91.1882 104.0493,91.1132 C104.6573,92.2682 105.1763,93.4222 105.6243,94.5682 L104.6333,95.4442 C102.9783,96.9082 102.8233,99.4362 104.2873,101.0902 C105.0773,101.9842 106.1793,102.4402 107.2843,102.4402 C107.4113,102.4402 107.5383,102.4192 107.6653,102.4072 C107.8473,103.7842 107.9313,105.0842 107.9313,106.2702 C107.9313,118.4382 114.8893,118.5752 115.6793,106.7012 C115.8273,104.4652 115.9233,100.8362 115.6023,96.4222 L118.0993,94.2132 C119.7553,92.7502 119.9103,90.2222 118.4463,88.5672 C117.4093,87.3942 115.8413,86.9912 114.4253,87.3672 C113.9613,84.9302 113.3543,82.4032 112.5663,79.8482 L114.2683,77.1822 C114.8143,78.6262 116.1723,79.6862 117.8123,79.7662 C117.8793,79.7702 117.9453,79.7712 118.0123,79.7712 C120.1313,79.7712 121.8983,78.1072 122.0043,75.9682 C122.0373,75.3022 122.0593,74.6412 122.0743,73.9842 C124.1753,72.9082 126.1593,71.6362 128.0013,70.1922 C128.6753,70.9622 129.6403,71.4762 130.7413,71.5512 C130.8333,71.5572 130.9263,71.5602 131.0163,71.5602 C133.1013,71.5602 134.8593,69.9432 135.0043,67.8322 C135.1203,66.1292 135.1393,64.4592 135.1183,62.8062 C137.3483,59.7312 139.1193,56.3022 140.3173,52.6132 C140.6423,52.6992 140.9783,52.7592 141.3303,52.7592 C141.3743,52.7592 141.4193,52.7592 141.4643,52.7572 C143.6723,52.6852 145.4023,50.8352 145.3303,48.6272 C144.5083,23.6682 125.4803,6.2212 124.6713,5.4912" id="Fill-1" fill="#a55728"/><path d="M59.5284,39.887 C57.3194,39.887 55.5284,41.678 55.5284,43.887 L55.5284,70.127 C55.5284,72.336 57.3194,74.127 59.5284,74.127 C61.7374,74.127 63.5284,72.336 63.5284,70.127 L63.5284,43.887 C63.5284,41.678 61.7374,39.887 59.5284,39.887" id="Fill-4" fill-opacity=".24" fill="#000"/><path d="M45.8667,44.8123 C45.3017,42.6763 43.1117,41.4053 40.9757,41.9693 C38.8407,42.5353 37.5677,44.7253 38.1337,46.8603 L44.7437,71.8193 C45.2187,73.6123 46.8377,74.7963 48.6087,74.7963 C48.9477,74.7963 49.2917,74.7533 49.6347,74.6623 C51.7707,74.0973 53.0427,71.9073 52.4777,69.7713 L45.8667,44.8123 Z" id="Fill-6" fill-opacity=".24" fill="#000"/><path d="M31.4522,48.9871 C30.7112,46.9071 28.4262,45.8201 26.3422,46.5611 C24.2612,47.3021 23.1752,49.5911 23.9162,51.6721 L32.4522,75.6381 C33.0352,77.2751 34.5762,78.2971 36.2202,78.2971 C36.6652,78.2971 37.1192,78.2221 37.5622,78.0641 C39.6432,77.3221 40.7292,75.0341 39.9882,72.9531 L31.4522,48.9871 Z" id="Fill-8" fill-opacity=".24" fill="#000"/><path d="M19.919,60.5613 C18.93,58.5863 16.525,57.7903 14.55,58.7773 C12.576,59.7683 11.777,62.1713 12.767,64.1463 L21.49,81.5513 C22.192,82.9513 23.604,83.7603 25.069,83.7603 C25.672,83.7603 26.284,83.6233 26.859,83.3353 C28.834,82.3453 29.632,79.9413 28.643,77.9663 L19.919,60.5613 Z" id="Fill-10" fill-opacity=".24" fill="#000"/><path d="M11.4546,72.1428 C10.2656,70.2808 7.7936,69.7368 5.9306,70.9248 C4.0686,72.1138 3.5236,74.5868 4.7126,76.4488 L12.9716,89.3808 C13.7346,90.5758 15.0266,91.2278 16.3466,91.2278 C17.0836,91.2278 17.8296,91.0248 18.4956,90.5988 C20.3576,89.4098 20.9026,86.9368 19.7136,85.0748 L11.4546,72.1428 Z" id="Fill-12" fill-opacity=".24" fill="#000"/><path d="M6.6499,88.2215 C4.9959,86.7575 2.4679,86.9115 1.0039,88.5675 C-0.4601,90.2225 -0.3051,92.7505 1.3499,94.2135 L9.5169,101.4365 C10.2779,102.1105 11.2239,102.4405 12.1659,102.4405 C13.2719,102.4405 14.3729,101.9845 15.1629,101.0905 C16.6269,99.4355 16.4719,96.9085 14.8169,95.4445 L6.6499,88.2215 Z" id="Fill-14" fill-opacity=".24" fill="#000"/><path d="M78.4737,41.9695 C76.3387,41.4055 74.1487,42.6765 73.5827,44.8125 L66.9727,69.7715 C66.4077,71.9065 67.6797,74.0965 69.8157,74.6625 C70.1587,74.7535 70.5027,74.7965 70.8417,74.7965 C72.6127,74.7965 74.2317,73.6125 74.7057,71.8195 L81.3167,46.8605 C81.8817,44.7245 80.6097,42.5345 78.4737,41.9695" id="Fill-17" fill-opacity=".24" fill="#000"/><path d="M104.8995,58.7776 C104.2315,58.4436 103.5155,58.3286 102.8205,58.3796 C95.0555,29.1756 72.8415,21.7936 71.7485,21.4496 C69.6475,20.7906 67.4185,21.9536 66.7475,24.0496 C66.0765,26.1476 67.2365,28.3956 69.3305,29.0756 C70.0415,29.3066 81.4945,33.2286 89.5715,47.0026 C88.8705,47.4636 88.3005,48.1356 87.9985,48.9866 L79.4625,72.9536 C78.7205,75.0346 79.8065,77.3226 81.8875,78.0636 C82.3315,78.2216 82.7845,78.2966 83.2295,78.2966 C84.8745,78.2966 86.4155,77.2756 86.9985,75.6376 L94.7685,53.8196 C97.0055,55.4456 99.0105,57.2196 100.8045,59.1046 C100.2855,59.4716 99.8365,59.9526 99.5315,60.5616 L90.8075,77.9666 C89.8175,79.9416 90.6165,82.3446 92.5905,83.3356 C93.1665,83.6236 93.7785,83.7596 94.3805,83.7596 C95.8465,83.7596 97.2575,82.9516 97.9605,81.5516 L106.6835,64.1466 C107.6725,62.1716 106.8745,59.7676 104.8995,58.7776" id="Fill-19" fill-opacity=".24" fill="#000"/><path d="M112.7999,88.2215 L104.6329,95.4445 C102.9789,96.9085 102.8229,99.4355 104.2869,101.0905 C105.0769,101.9845 106.1789,102.4405 107.2839,102.4405 C108.2269,102.4405 109.1719,102.1105 109.9329,101.4365 L118.0999,94.2135 C119.7549,92.7505 119.9099,90.2225 118.4459,88.5675 C116.9829,86.9115 114.4539,86.7575 112.7999,88.2215" id="Fill-21" fill-opacity=".24" fill="#000"/><path d="M85.2022,8.4798 C83.3072,7.3468 80.8582,7.9628 79.7212,9.8538 C78.5852,11.7458 79.1972,14.2018 81.0882,15.3408 C81.4242,15.5428 113.4062,35.2608 114.0652,71.3558 C113.8962,71.2008 113.7192,71.0518 113.5192,70.9248 C111.6562,69.7368 109.1842,70.2808 107.9952,72.1428 L99.7362,85.0748 C98.5472,86.9368 99.0932,89.4098 100.9542,90.5988 C101.6212,91.0248 102.3662,91.2288 103.1032,91.2288 C104.4232,91.2288 105.7152,90.5758 106.4782,89.3808 L114.2682,77.1818 C114.8142,78.6258 116.1722,79.6858 117.8122,79.7668 C117.8792,79.7698 117.9452,79.7718 118.0122,79.7718 C120.1312,79.7718 121.8982,78.1068 122.0042,75.9678 C124.1512,32.3138 86.7932,9.4328 85.2022,8.4798" id="Fill-23" fill-opacity=".24" fill="#000"/><path d="M101.4864,1.7844 C99.7114,0.4714 97.2114,0.8454 95.8954,2.6174 C94.5804,4.3904 94.9524,6.8954 96.7234,8.2124 C97.0494,8.4554 129.3654,32.8974 127.0214,67.2884 C126.8724,69.4924 128.5374,71.4004 130.7414,71.5514 C130.8334,71.5574 130.9254,71.5604 131.0164,71.5604 C133.1014,71.5604 134.8594,69.9434 135.0044,67.8324 C137.6484,29.0184 102.9644,2.8784 101.4864,1.7844" id="Fill-25" fill-opacity=".24" fill="#000"/><path d="M124.6709,5.491 C123.0329,4.013 120.5109,4.143 119.0279,5.779 C117.5469,7.414 117.6729,9.943 119.3069,11.426 C119.4809,11.583 136.6259,27.394 137.3339,48.891 C137.4049,51.054 139.1819,52.76 141.3299,52.76 C141.3739,52.76 141.4189,52.759 141.4639,52.758 C143.6719,52.685 145.4019,50.836 145.3299,48.628 C144.5079,23.669 125.4809,6.221 124.6709,5.491" id="Fill-27" fill-opacity=".24" fill="#000"/></g></g></g><g id="Accesories" fill="none" transform="translate(63.000000, 85.000000) scale(1 1)" fill-rule="evenodd"><g id="Accesories/Prescription 02" stroke="none" stroke-width="1" fill="none" fill-rule="evenodd"><g id="Wayfarers" transform="translate(6.000000, 7.000000)"><path d="M94.5299306,2 L97.5,2 C118.790455,2 126.354091,7.09629136 127.045455,7.77156439 C128.679318,7.77156439 130,9.06150904 130,10.6573466 L130,13.5431288 C130,15.0819721 128.771968,16.3363819 127.219267,16.4240198 L126.612705,16.4391531 C125.44626,16.4830476 122.230186,16.7150617 120.820725,17.9414221 C120.960175,19.434022 121,20.9643151 121,22.5 C121,34.5686429 110.721275,43 96,43 L93.2421498,43 C79.3147125,43 71,35.3359286 71,22.5 C71,20.9522934 71.0404506,19.4100634 71.1814034,17.906131 L69.8004908,17.3608351 C69.5558969,17.2641292 69.0281396,17.090392 68.2963505,16.9099044 C66.256272,16.4067419 64.1589087,16.253569 62.3040836,16.6343084 C61.6235903,16.7739931 60.9922286,16.9836085 60.4128127,17.266732 L58.8308166,18.0394014 C58.9619021,19.5011097 59,20.9979759 59,22.5 C59,34.5686429 48.7212748,43 34,43 L31.2421498,43 C17.3147125,43 9,35.3359286 9,22.5 C9,21.6610668 9.01188509,20.8237427 9.0452193,19.9932548 C8.93099603,19.9593697 8.86363636,19.7504239 8.86363636,19.3146932 C8.86363636,16.8880127 4.68515214,16.5019499 3.35563443,16.4405308 L2.95454545,16.428911 C1.32363636,16.428911 0,15.1389663 0,13.5431288 L0,10.6573466 C0,9.06150904 1.32363636,7.77156439 2.95454545,7.77156439 L3.07093469,7.66991985 C4.26044178,6.70687939 11.8996241,2.09744476 31.8653976,2.00151937 L35.4700694,2 C36.7306767,2 37.9242203,2.0341353 39.0542384,2.10047223 C51.4173567,2.52253128 54.909731,4.23413961 59.8502273,6.6518809 L60.2689233,6.85850899 L60.5639301,6.95819168 C61.3005076,7.19702359 63.0662164,7.70151679 65.0790606,7.76579519 C67.2462948,7.67278567 69.1000195,7.08540191 69.641698,6.89719767 L70.3244551,6.57039601 C75.33305,4.21287789 80.4386483,2.71580366 89.5614746,2.20060541 C91.0895989,2.06864066 92.7423376,2 94.5299306,2 Z M36.1732992,8.00192643 L32.3853606,8 C13.5815608,8 13.0174468,14.4367119 13.0005234,22.7271501 L13,23.5015498 C13,30.5719428 16.116254,39 30.9709365,39 L34,39 C46.3649085,39 55,32.6270373 55,23.5015498 L54.993687,21.7414887 C54.9091306,14.0134217 53.6920357,8.12378857 36.1732992,8.00192643 L36.1732992,8.00192643 Z M97.6146394,8 L94.3853606,8 C75.5815608,8 75.0174468,14.4367119 75.0005234,22.7271501 L75,23.5015498 C75,30.5719428 78.1194833,39 92.9709365,39 L96,39 C108.364909,39 117,32.6270373 117,23.5015498 L116.993351,21.711307 C116.905012,13.9167947 115.643025,8 97.6146394,8 Z" id="Shape" fill-opacity=".16" fill="#000"/><path d="M35.4700694,0 C57.1829942,0 59,10.127 59,20.5 C59,32.5686429 48.7212748,41 34,41 L31.2421498,41 C17.3147125,41 9,33.3359286 9,20.5 C9,10.127 10.8170058,0 32.5299306,0 L35.4700694,0 Z M35.6146394,6 L32.3853606,6 C13,6 13,12.8410159 13,21.5015498 C13,28.5719428 16.116254,37 30.9709365,37 L34,37 C46.3649085,37 55,30.6270373 55,21.5015498 L54.9994766,20.7271501 C54.9825532,12.4367119 54.4184392,6 35.6146394,6 Z" id="Left" fill="#252C2F" fill-rule="nonzero"/><path d="M97.4700694,0 C119.182994,0 121,10.127 121,20.5 C121,32.5686429 110.721275,41 96,41 L93.2421498,41 C79.3147125,41 71,33.3359286 71,20.5 C71,10.127 72.8170058,0 94.5299306,0 L97.4700694,0 Z M97.6146394,6 L94.3853606,6 C75.5815608,6 75.0174468,12.4367119 75.0005234,20.7271501 L75,21.5015498 C75,28.5719428 78.1194833,37 92.9709365,37 L96,37 C108.364909,37 117,30.6270373 117,21.5015498 C117,12.8410159 117,6 97.6146394,6 Z" id="Right" fill="#252C2F" fill-rule="nonzero"/><path d="M2.95454545,5.77156439 C3.64590909,5.09629136 11.2095455,0 32.5,0 C50.3513636,0 54.1302273,1.85267217 59.8502273,4.6518809 L60.2689233,4.85850899 C60.6666014,4.99901896 62.7002447,5.68982981 65.0790606,5.76579519 C67.2462948,5.67278567 69.1000195,5.08540191 69.641698,4.89719767 C76.1703915,1.7220864 82.5610971,0 97.5,0 C118.790455,0 126.354091,5.09629136 127.045455,5.77156439 C128.679318,5.77156439 130,7.06150904 130,8.65734659 L130,11.5431288 C130,13.1389663 128.679318,14.428911 127.045455,14.428911 C127.045455,14.428911 120.143997,14.428911 120.143997,17.3146932 C120.143997,20.2004754 118.181818,13.1389663 118.181818,11.5431288 L118.181818,8.73240251 C114.578575,7.35340151 108.128411,4.78617535 97.5,4.78617535 C85.6584651,4.78617535 79.7610984,6.88602813 74.7022935,8.97112368 L74.7588636,9.10752861 L74.7563667,11.0937608 L72.5391666,16.4436339 L69.8004908,15.3608351 C69.5558969,15.2641292 69.0281396,15.090392 68.2963505,14.9099044 C66.256272,14.4067419 64.1589087,14.253569 62.3040836,14.6343084 C61.6235903,14.7739931 60.9922286,14.9836085 60.4128127,15.266732 L57.7704824,16.5578701 L55.1266751,11.3962031 L55.2440909,9.10175705 L55.3248203,8.90683855 C50.9620526,6.87386374 46.9392639,4.78617535 32.5,4.78617535 C21.8721459,4.78617535 15.422131,7.3524397 11.8181818,8.7314671 L11.8181818,11.5431288 C11.8181818,13.1389663 8.86363636,20.2004754 8.86363636,17.3146932 C8.86363636,14.428911 2.95454545,14.428911 2.95454545,14.428911 C1.32363636,14.428911 0,13.1389663 0,11.5431288 L0,8.65734659 C0,7.06150904 1.32363636,5.77156439 2.95454545,5.77156439 Z" id="Stuff" fill="#252C2F" fill-rule="nonzero"/></g></g></g></g></g></g></svg>