<svg height="236" viewBox="0 0 236 236" width="236" xmlns="http://www.w3.org/2000/svg"><circle cx="118" cy="118.1" fill="#aac6fc" r="113"/><path d="m118 236a118 118 0 1 1 118-118 118.153 118.153 0 0 1 -118 118zm0-225.9a108 108 0 1 0 108 108c-.1-59.6-48.5-108-108-108z" fill="#383a48"/><circle cx="118" cy="86.8" fill="#f3f6e6" r="29.4"/><path d="m118 121.2a34.4 34.4 0 1 1 34.4-34.4 34.462 34.462 0 0 1 -34.4 34.4zm0-58.9a24.4 24.4 0 1 0 24.4 24.4 24.433 24.433 0 0 0 -24.4-24.4z" fill="#383a48"/><path d="m164.3 173.7h-92.7v-11.1a46.433 46.433 0 0 1 46.4-46.4 46.433 46.433 0 0 1 46.4 46.4z" fill="#f3f6e6"/><path d="m164.3 178.7h-92.7a4.951 4.951 0 0 1 -5-5v-11.1a51.4 51.4 0 0 1 102.8 0v11.1a5.1 5.1 0 0 1 -5.1 5zm-87.7-10h82.7v-6.1a41.4 41.4 0 0 0 -82.8 0z" fill="#383a48"/></svg>