<svg height="49.488" viewBox="0 0 49.448 49.488" width="49.448" xmlns="http://www.w3.org/2000/svg"><path d="m25.458 1.616c2.318 10.152 12.587 20.537 22.364 22.713a.422.422 0 0 1 0 .83c-9.777 2.176-20.046 12.561-22.364 22.713a.416.416 0 0 1 -.818-.012c-2.05-9.942-12.693-20.48-23.023-22.707a.417.417 0 0 1 0-.818c10.33-2.228 20.973-12.765 23.023-22.707a.416.416 0 0 1 .818-.012z" fill="#fff"/><path d="m25.052 49.488h-.018a1.7 1.7 0 0 1 -1.649-1.368c-1.95-9.457-12.249-19.6-22.038-21.714a1.7 1.7 0 0 1 0-3.324c9.789-2.111 20.088-12.257 22.038-21.713a1.7 1.7 0 0 1 3.322-.039c2.216 9.7 12.012 19.659 21.394 21.747a1.7 1.7 0 0 1 0 3.332c-9.381 2.091-19.178 12.048-21.394 21.748a1.691 1.691 0 0 1 -1.655 1.331zm-20.206-24.744c8.816 3.114 17.187 11.367 20.228 19.937 3.148-8.6 11.281-16.854 19.648-19.937-8.367-3.083-16.5-11.335-19.648-19.937-3.041 8.569-11.411 16.822-20.228 19.937z" fill="#cbc8ff"/></svg>