<svg height="169.718" viewBox="0 0 237.467 169.718" width="237.467" xmlns="http://www.w3.org/2000/svg"><circle cx="118.734" cy="84.858" fill="#b2b0f7" r="70.86"/><path d="m118.734 156.718a71.86 71.86 0 1 1 71.86-71.86 71.94 71.94 0 0 1 -71.86 71.86zm0-141.719a69.86 69.86 0 1 0 69.86 69.859 69.939 69.939 0 0 0 -69.86-69.858z" fill="#112c41"/><path d="m189.594 84.859a70.9 70.9 0 0 1 -96.07 66.24 71.248 71.248 0 0 1 -25.61-16.87 70.883 70.883 0 0 1 76.37-115.49 69.879 69.879 0 0 1 8.41 3.91 71.131 71.131 0 0 1 30 31.67 69.95 69.95 0 0 1 4.04 10.56q.93 3.18 1.58 6.49a70.484 70.484 0 0 1 1.27 12.84c.01.22.01.43.01.65z" fill="#cbc8ff"/><path d="m118.734 156.719a71.417 71.417 0 0 1 -25.567-4.685 72.243 72.243 0 0 1 -25.967-17.109 71.883 71.883 0 0 1 77.444-117.119 70.919 70.919 0 0 1 8.53 3.966 72.6 72.6 0 0 1 30.426 32.115 71.287 71.287 0 0 1 4.1 10.71c.637 2.178 1.176 4.392 1.6 6.58a71.7 71.7 0 0 1 1.284 13.023c.009.2.01.422.01.657a71.941 71.941 0 0 1 -71.86 71.862zm0-141.72a69.853 69.853 0 0 0 -41.941 125.719 70.029 70.029 0 0 0 17.086 9.447 69.9 69.9 0 0 0 94.715-65.306c0-.2 0-.4-.009-.6a69.9 69.9 0 0 0 -1.253-12.7c-.414-2.126-.938-4.279-1.558-6.4a69.169 69.169 0 0 0 -3.982-10.407 70.6 70.6 0 0 0 -29.578-31.226 68.915 68.915 0 0 0 -8.291-3.854 69.7 69.7 0 0 0 -25.189-4.672z" fill="#112c41"/><path d="m188.314 71.369q-1.275 1.23-2.61 2.49c-14.12 13.32-32.46 27.95-53.37 42.1a450.763 450.763 0 0 1 -50.11 29.63 69.482 69.482 0 0 0 11.3 5.51 518.007 518.007 0 0 0 44.34-26.97 501.926 501.926 0 0 0 50.36-38.71c.46-.4.909-.8 1.36-1.21a70.484 70.484 0 0 0 -1.27-12.84z" fill="#b2b0f7"/><path d="m172.614 130.879a70.863 70.863 0 1 1 -92.461-105.47 70.871 70.871 0 0 0 92.461 105.47z" fill="#b2b0f7"/><path d="m118.734 156.718a71.86 71.86 0 1 1 71.86-71.86 71.94 71.94 0 0 1 -71.86 71.86zm0-141.719a69.86 69.86 0 1 0 69.86 69.859 69.939 69.939 0 0 0 -69.86-69.858z" fill="#112c41"/><path d="m234.754 6.349c-7.74-11.45-40.27-3.9-81.25 16.75a72.97 72.97 0 0 1 7.05 4.54c28.26-13.2 49.579-17.72 54.79-10.03 5.15 7.6-6.63 25.38-28.88 46.38-14.12 13.32-32.46 27.95-53.37 42.1-20.89 14.14-41.28 25.72-58.9 33.87-27.771 12.86-48.66 17.19-53.811 9.58-5.21-7.7 6.921-25.81 29.681-47.14a67.953 67.953 0 0 1 -1.58-8.23c-34.41 30.36-53.52 57.75-45.77 69.2s40.28 3.9 81.26-16.76a502.212 502.212 0 0 0 54.65-32.35 501.926 501.926 0 0 0 50.36-38.71c34.41-30.36 53.516-57.749 45.77-69.2z" fill="#fff"/><path d="m17.072 169.646c-7.379 0-12.59-1.876-15.187-5.718-7.836-11.577 9.766-38.594 45.937-70.509a1 1 0 0 1 1.653.622 67.543 67.543 0 0 0 1.557 8.11 1 1 0 0 1 -.285.978c-22.858 21.422-34.176 38.991-29.535 45.849 4.581 6.77 24.722 2.965 52.561-9.927 18.26-8.445 38.579-20.129 58.76-33.791s38.6-28.185 53.244-42c22.308-21.053 33.32-38.332 28.739-45.091-4.644-6.854-25.16-2.88-53.539 10.376a1.008 1.008 0 0 1 -1.013-.1 72.316 72.316 0 0 0 -6.953-4.478 1 1 0 0 1 .042-1.762c43.078-21.709 74.7-28 82.529-16.417 7.837 11.578-9.765 38.6-45.937 70.509a499.975 499.975 0 0 1 -50.461 38.79 500.71 500.71 0 0 1 -54.76 32.413c-28.797 14.52-52.477 22.146-67.352 22.146zm30.684-73.5c-33.908 30.2-51.238 56.281-44.214 66.658 7.114 10.526 38.51 3.815 79.982-17.092a498.442 498.442 0 0 0 54.539-32.285 497.893 497.893 0 0 0 50.259-38.627c34.823-30.722 52.723-57.371 45.6-67.888-7.014-10.382-37.668-3.992-78.322 16.254 1.735 1.039 3.43 2.151 5.06 3.319 29.926-13.908 50.146-17.351 55.508-9.437 5.326 7.86-5.252 25.234-29.022 47.668-14.719 13.886-33.218 28.479-53.5 42.2s-40.685 25.46-59.041 33.949c-29.656 13.735-49.725 17.104-55.05 9.235-5.357-7.917 5.355-25.409 29.4-48.026-.488-1.955-.888-3.939-1.199-5.924z" fill="#112c41"/></svg>