<svg viewBox="297.2472067039107 97.5 665.9636871508378 958.7499999999998" fill="none" xmlns="http://www.w3.org/2000/svg" xmlns:xlink="http://www.w3.org/1999/xlink" overflow="visible" width="665.9636871508378px" height="958.7499999999998px"><g id="Master/Character/Sitting"><g id="Lower Body Sit" transform="translate(264 454) scale(1 1)"><g id="Lower Body Sit/Sitting"><g id="Sitting"><g id="Assets 38"><path id="SKIN" fill-rule="evenodd" clip-rule="evenodd" d="M521.7 491.689L535.26 542.336L605.766 548.21L601.875 499.08" fill="#ffffff"/><path id="Fill 2" fill-rule="evenodd" clip-rule="evenodd" d="M605.768 550.208C605.712 550.208 605.657 550.206 605.601 550.201L535.094 544.329C534.55 544.284 534.049 544.019 533.705 543.595C533.363 543.171 533.207 542.625 533.276 542.084L519.716 491.437C519.856 490.339 520.876 489.564 521.953 489.704C523.048 489.844 523.824 490.845 523.685 491.94L537.507 540.517L604.359 546.084L599.975 498.456C600.319 497.407 601.446 496.833 602.498 497.179C603.548 497.522 604.12 498.652 603.776 499.702L607.667 548.831C607.397 549.658 606.625 550.208 605.768 550.208" fill="#031900"/><path id="Fill 4" fill-rule="evenodd" clip-rule="evenodd" d="M532.376 539.599C532.634 538.582 533.634 537.939 534.667 538.123C535.65 538.3 536.895 538.539 538.36 538.822C547.342 540.55 566.031 544.147 583.742 544.161H583.787C594.221 544.161 603.397 541.307 609.625 536.122C610.12 535.71 610.782 535.564 611.408 535.724C641.806 543.638 663.769 549.356 680.045 560.211C682.905 562.12 693.222 570.448 691.437 576.338C690.612 579.062 687.674 580.443 682.704 580.443C664.56 580.443 625.469 580.544 590.98 580.634C563.073 580.707 538.973 580.77 529.899 580.77C528.94 580.77 528.075 580.335 527.462 579.546C523.889 574.95 529.708 550.078 532.376 539.599" fill="#6ffa61"/><path id="Fill 6" fill-rule="evenodd" clip-rule="evenodd" d="M530.264 589.577H687.101C689.707 589.577 691.82 587.464 691.82 584.857V583.298C691.82 580.691 689.707 578.579 687.101 578.579H530.264C527.659 578.579 525.545 580.691 525.545 583.298V584.857C525.545 587.464 527.659 589.577 530.264 589.577" fill="#031900"/><path id="Fill 8" fill-rule="evenodd" clip-rule="evenodd" d="M642.56 554.567C643.355 554.567 644.117 554.12 644.481 553.354C647.818 546.346 654.229 548.061 654.95 548.282C656.068 548.621 657.257 547.996 657.605 546.88C657.952 545.762 657.337 544.577 656.223 544.223C652.587 543.069 644.649 543.111 640.641 551.526C640.136 552.587 640.586 553.855 641.647 554.36C641.942 554.501 642.253 554.567 642.56 554.567" fill="#031900"/><path id="Fill 10" fill-rule="evenodd" clip-rule="evenodd" d="M623.778 549.444C624.573 549.444 625.336 548.997 625.7 548.231C629.037 541.223 635.448 542.938 636.168 543.159C637.287 543.499 638.476 542.873 638.823 541.757C639.17 540.639 638.555 539.454 637.441 539.1C633.801 537.947 625.865 537.99 621.86 546.403C621.355 547.464 621.805 548.732 622.866 549.237C623.161 549.378 623.471 549.444 623.778 549.444" fill="#031900"/></g><g id="Assets 39"><path id="SKIN_2" fill-rule="evenodd" clip-rule="evenodd" d="M354.859 492.695L348.419 543.342L418.925 549.216L435.034 500.086" fill="#ffffff"/><path id="Fill 14" fill-rule="evenodd" clip-rule="evenodd" d="M418.926 551.214C418.87 551.214 418.815 551.212 418.759 551.207L348.252 545.335C347.708 545.29 347.207 545.025 346.863 544.601C346.521 544.177 346.365 543.631 346.434 543.09L352.874 492.443C353.014 491.345 354.034 490.57 355.111 490.71C356.206 490.85 356.982 491.851 356.843 492.946L350.665 541.523L417.517 547.09L433.133 499.462C433.477 498.413 434.604 497.839 435.656 498.185C436.706 498.528 437.278 499.658 436.934 500.708L420.825 549.837C420.555 550.664 419.783 551.214 418.926 551.214" fill="#031900"/><path id="Fill 16" fill-rule="evenodd" clip-rule="evenodd" d="M345.534 540.605C345.792 539.588 346.792 538.945 347.825 539.129C348.808 539.306 350.053 539.545 351.518 539.828C360.5 541.556 379.189 545.153 396.9 545.167H396.945C407.379 545.167 416.555 542.313 422.783 537.128C423.278 536.716 423.94 536.57 424.566 536.73C454.964 544.644 476.927 550.362 493.203 561.217C496.063 563.126 506.38 571.454 504.596 577.344C503.77 580.068 500.832 581.449 495.862 581.449C477.718 581.449 438.627 581.55 404.138 581.64C376.231 581.713 352.131 581.776 343.057 581.776C342.098 581.776 341.233 581.341 340.62 580.552C337.047 575.956 342.866 551.084 345.534 540.605" fill="#6ffa61"/><path id="Fill 18" fill-rule="evenodd" clip-rule="evenodd" d="M343.422 590.583H500.259C502.865 590.583 504.978 588.47 504.978 585.863V584.304C504.978 581.697 502.865 579.585 500.259 579.585H343.422C340.817 579.585 338.703 581.697 338.703 584.304V585.863C338.703 588.47 340.817 590.583 343.422 590.583" fill="#031900"/><path id="Fill 21" fill-rule="evenodd" clip-rule="evenodd" d="M455.718 555.572C456.513 555.572 457.275 555.125 457.639 554.359C460.976 547.351 467.387 549.066 468.108 549.287C469.226 549.626 470.415 549.001 470.763 547.885C471.11 546.767 470.495 545.582 469.381 545.228C465.745 544.074 457.807 544.116 453.799 552.531C453.294 553.592 453.744 554.86 454.805 555.365C455.1 555.506 455.411 555.572 455.718 555.572" fill="#031900"/><path id="Fill 23" fill-rule="evenodd" clip-rule="evenodd" d="M436.937 550.45C437.732 550.45 438.495 550.003 438.859 549.237C442.196 542.229 448.607 543.944 449.327 544.165C450.446 544.505 451.635 543.879 451.982 542.763C452.329 541.645 451.714 540.46 450.6 540.106C446.96 538.953 439.024 538.996 435.019 547.409C434.514 548.47 434.964 549.738 436.025 550.243C436.32 550.384 436.63 550.45 436.937 550.45" fill="#031900"/></g><g id="Pant 2"><path id="Fill 25" fill-rule="evenodd" clip-rule="evenodd" d="M472.057 120H357.391C327.02 120 435.016 255.826 435.016 255.826C435.54 268.396 436.998 495.136 436.998 495.136C510.551 510.252 570.338 514.593 620.763 506.561C620.763 506.561 594.334 309.901 572.444 196.945C561.108 138.45 512.953 120 472.057 120" fill="#031900"/><g id="Combined Shape"><path fill-rule="evenodd" clip-rule="evenodd" d="M498.197 273.613C499.287 273.436 500.027 272.408 499.849 271.318L497.924 259.473C497.747 258.383 496.726 257.644 495.629 257.82C494.539 257.997 493.799 259.025 493.976 260.115L495.902 271.96C496.061 272.942 496.91 273.639 497.873 273.639C497.98 273.639 498.088 273.631 498.197 273.613ZM502.049 297.302C503.139 297.125 503.879 296.098 503.701 295.007L501.776 283.163C501.599 282.073 500.581 281.334 499.481 281.51C498.391 281.687 497.651 282.715 497.828 283.804L499.754 295.65C499.913 296.631 500.762 297.328 501.725 297.328C501.832 297.328 501.94 297.321 502.049 297.302ZM522.957 413.451C523.135 414.542 522.395 415.569 521.305 415.746C521.196 415.765 521.088 415.772 520.982 415.772C520.018 415.772 519.169 415.075 519.01 414.094L517.084 402.25C516.907 401.159 517.647 400.132 518.737 399.955C519.827 399.773 520.855 400.517 521.032 401.607L522.957 413.451ZM525.156 439.436C526.246 439.259 526.986 438.232 526.808 437.141L524.883 425.296C524.706 424.206 523.679 423.462 522.588 423.644C521.498 423.821 520.758 424.848 520.935 425.939L522.861 437.784C523.02 438.765 523.869 439.462 524.833 439.462C524.939 439.462 525.047 439.455 525.156 439.436ZM536.71 510.502C537.8 510.325 538.54 509.298 538.362 508.207L536.437 496.363C536.26 495.273 535.243 494.523 534.142 494.711C533.052 494.888 532.312 495.915 532.489 497.006L534.415 508.85C534.574 509.831 535.423 510.528 536.387 510.528C536.493 510.528 536.601 510.521 536.71 510.502ZM532.858 486.814C533.948 486.637 534.688 485.61 534.51 484.519L532.585 472.674C532.408 471.584 531.38 470.838 530.29 471.022C529.2 471.199 528.46 472.226 528.637 473.317L530.563 485.162C530.722 486.143 531.571 486.84 532.535 486.84C532.641 486.84 532.749 486.833 532.858 486.814ZM530.659 460.829C530.837 461.92 530.097 462.947 529.007 463.124C528.898 463.143 528.79 463.15 528.684 463.15C527.72 463.15 526.871 462.453 526.712 461.472L524.787 449.628C524.61 448.537 525.35 447.51 526.44 447.333C527.528 447.149 528.558 447.895 528.735 448.985L530.659 460.829ZM507.551 318.695C507.729 319.786 506.989 320.813 505.899 320.99C505.79 321.009 505.682 321.016 505.576 321.016C504.612 321.016 503.763 320.319 503.604 319.338L501.678 307.494C501.501 306.403 502.241 305.376 503.331 305.199C504.43 305.012 505.449 305.761 505.626 306.851L507.551 318.695ZM519.105 389.763C519.283 390.854 518.543 391.881 517.453 392.058C517.344 392.077 517.236 392.084 517.13 392.084C516.166 392.084 515.317 391.387 515.158 390.406L513.232 378.561C513.055 377.47 513.795 376.443 514.885 376.266C515.974 376.081 517.003 376.828 517.18 377.918L519.105 389.763ZM509.751 344.68C510.841 344.503 511.581 343.476 511.403 342.385L509.478 330.54C509.301 329.45 508.272 328.705 507.183 328.888C506.093 329.065 505.353 330.092 505.53 331.183L507.456 343.028C507.615 344.009 508.464 344.706 509.428 344.706C509.534 344.706 509.642 344.699 509.751 344.68ZM515.255 366.073C515.433 367.164 514.693 368.191 513.603 368.368C513.494 368.387 513.386 368.394 513.28 368.394C512.316 368.394 511.467 367.697 511.308 366.716L509.382 354.872C509.205 353.781 509.945 352.754 511.035 352.577C512.134 352.391 513.153 353.139 513.33 354.229L515.255 366.073Z" fill="#ffffff" fill-opacity="0.8" style="mix-blend-mode:overlay"/></g></g><g id="Pant 1"><path id="Fill 1" fill-rule="evenodd" clip-rule="evenodd" d="M394.453 120H162.768C162.768 120 139.333 203.554 186.939 249.256C230.816 291.379 331.095 276.308 352.09 272.593L355.538 250.897C355.711 249.806 356.749 249.064 357.827 249.235C358.917 249.409 359.662 250.434 359.489 251.525L355.932 273.906C354.257 299.842 322.931 513.136 322.931 513.136C382.761 530.69 459.88 532.324 499.943 524.561C499.943 524.561 500.676 324.292 492.645 201.026C489.188 147.972 447.017 120 394.453 120Z" fill="#094c00"/><g id="Combined Shape_2"><path fill-rule="evenodd" clip-rule="evenodd" d="M201.133 132.369C200.718 128.867 200.685 126.626 200.685 126.603C200.671 125.508 199.778 124.629 198.685 124.629H198.66C197.556 124.642 196.672 125.548 196.685 126.652C196.686 126.75 196.718 129.107 197.16 132.84C197.281 133.857 198.145 134.604 199.144 134.604C199.223 134.604 199.302 134.6 199.382 134.591C200.479 134.461 201.263 133.466 201.133 132.369ZM385.308 442.829C384.218 442.744 383.246 443.57 383.163 444.673C382.854 448.765 382.549 452.764 382.251 456.652C382.167 457.753 382.992 458.715 384.093 458.799C384.145 458.803 384.197 458.805 384.247 458.805C385.283 458.805 386.16 458.007 386.24 456.957C386.537 453.068 386.842 449.067 387.152 444.974C387.235 443.873 386.41 442.912 385.308 442.829ZM379.436 492.594C379.523 491.493 380.482 490.683 381.588 490.759C382.69 490.848 383.511 491.812 383.423 492.912C383.068 497.341 382.745 501.359 382.458 504.899C382.373 505.945 381.498 506.737 380.467 506.737C380.44 506.737 380.414 506.736 380.386 506.735L380.36 506.734L380.341 506.733C380.329 506.732 380.316 506.731 380.303 506.73C379.202 506.641 378.382 505.676 378.472 504.574C378.759 501.036 379.082 497.021 379.436 492.594ZM383.475 466.793C382.371 466.721 381.412 467.53 381.326 468.632C381 472.807 380.687 476.811 380.387 480.612C380.3 481.714 381.122 482.677 382.224 482.764C382.243 482.766 382.262 482.767 382.281 482.768C382.303 482.769 382.325 482.769 382.347 482.77C382.359 482.77 382.371 482.77 382.383 482.77C383.416 482.77 384.292 481.975 384.375 480.927C384.675 477.123 384.989 473.119 385.314 468.942C385.4 467.841 384.577 466.879 383.475 466.793ZM388.311 372.783C388.384 371.682 389.323 370.826 390.44 370.922C391.542 370.995 392.376 371.948 392.301 373.051C392.034 377.048 391.762 381.052 391.487 385.048C391.415 386.103 390.536 386.91 389.494 386.91C389.448 386.91 389.401 386.908 389.354 386.905C388.252 386.829 387.42 385.875 387.497 384.773C387.772 380.779 388.044 376.778 388.311 372.783ZM380.171 226.516C380.9 226.516 381.601 226.117 381.954 225.424C382.456 224.44 382.066 223.236 381.082 222.734C377.875 221.098 374.145 219.404 369.994 217.697C368.971 217.276 367.803 217.766 367.384 218.787C366.964 219.808 367.451 220.976 368.473 221.396C372.524 223.062 376.154 224.711 379.264 226.297C379.555 226.446 379.865 226.516 380.171 226.516ZM384.944 420.715C385.025 419.613 385.977 418.793 387.085 418.865C388.187 418.946 389.015 419.904 388.935 421.006C388.638 425.055 388.343 429.056 388.049 432.991C387.971 434.042 387.094 434.842 386.057 434.842C386.032 434.842 386.007 434.842 385.982 434.841L385.957 434.84C385.94 434.839 385.923 434.838 385.905 434.836C384.804 434.754 383.978 433.794 384.061 432.692C384.355 428.76 384.649 424.762 384.944 420.715ZM388.799 394.899C387.713 394.835 386.742 395.653 386.664 396.754C386.382 400.771 386.098 404.769 385.813 408.734C385.734 409.836 386.563 410.794 387.664 410.873C387.688 410.874 387.711 410.875 387.734 410.876C387.747 410.877 387.759 410.877 387.772 410.877C387.785 410.877 387.797 410.878 387.81 410.878C388.849 410.878 389.727 410.074 389.803 409.021C390.088 405.054 390.372 401.054 390.654 397.034C390.732 395.932 389.902 394.976 388.799 394.899ZM231.305 177.892C234.019 178.819 237.754 179.929 242.722 181.286C243.788 181.577 244.415 182.677 244.124 183.742C243.882 184.631 243.076 185.216 242.196 185.216C242.022 185.216 241.845 185.193 241.668 185.144C236.618 183.765 232.806 182.631 230.013 181.677C228.968 181.32 228.409 180.183 228.766 179.138C229.123 178.093 230.259 177.535 231.305 177.892ZM203.316 143.869C203.033 142.801 201.94 142.167 200.871 142.447C199.803 142.73 199.167 143.825 199.449 144.892C200.543 149.027 201.925 152.936 203.556 156.512C203.892 157.247 204.618 157.682 205.377 157.682C205.654 157.682 205.937 157.624 206.206 157.501C207.211 157.043 207.653 155.856 207.195 154.851C205.658 151.481 204.353 147.786 203.316 143.869ZM254.319 184.338C257.973 185.275 261.874 186.261 265.964 187.29C267.035 187.56 267.685 188.646 267.416 189.717C267.188 190.625 266.373 191.23 265.478 191.23C265.316 191.23 265.152 191.21 264.988 191.169C260.891 190.139 256.985 189.151 253.325 188.212C252.256 187.938 251.61 186.848 251.885 185.778C252.159 184.708 253.247 184.061 254.319 184.338ZM391.986 346.959C390.904 346.894 389.934 347.729 389.865 348.83C389.616 352.798 389.361 356.798 389.099 360.814C389.028 361.917 389.863 362.868 390.965 362.94C391.009 362.943 391.053 362.944 391.097 362.944C392.142 362.944 393.022 362.132 393.091 361.074C393.353 357.054 393.608 353.052 393.857 349.08C393.926 347.978 393.089 347.028 391.986 346.959ZM347.244 209.484C351.299 210.8 355.147 212.108 358.681 213.374C359.721 213.746 360.262 214.891 359.89 215.931C359.598 216.748 358.827 217.257 358.007 217.257C357.784 217.257 357.556 217.22 357.333 217.14C353.836 215.888 350.027 214.592 346.01 213.289C344.959 212.948 344.384 211.82 344.725 210.77C345.066 209.719 346.192 209.145 347.244 209.484ZM335.729 205.891C332.083 204.793 328.19 203.656 324.163 202.511C323.099 202.208 321.994 202.826 321.692 203.888C321.39 204.951 322.006 206.057 323.069 206.359C327.077 207.498 330.949 208.629 334.577 209.721C334.768 209.779 334.962 209.807 335.154 209.807C336.013 209.807 336.807 209.248 337.068 208.383C337.386 207.325 336.787 206.209 335.729 205.891ZM300.934 196.192C304.791 197.204 308.677 198.237 312.557 199.291C313.623 199.581 314.253 200.679 313.963 201.745C313.722 202.636 312.915 203.222 312.034 203.222C311.861 203.222 311.684 203.199 311.509 203.151C307.64 202.101 303.766 201.07 299.919 200.062C298.851 199.781 298.212 198.688 298.492 197.62C298.772 196.551 299.863 195.915 300.934 196.192ZM289.284 193.179C285.319 192.165 281.42 191.179 277.625 190.222C276.551 189.949 275.466 190.601 275.197 191.673C274.927 192.744 275.576 193.831 276.647 194.101C280.439 195.056 284.333 196.042 288.293 197.054C288.459 197.096 288.626 197.117 288.79 197.117C289.682 197.117 290.495 196.516 290.726 195.612C291 194.542 290.354 193.452 289.284 193.179ZM392.749 235.911C391.915 234.813 390.687 233.607 389.135 232.378C388.27 231.692 388.123 230.434 388.81 229.568C389.495 228.702 390.753 228.557 391.619 229.242C393.435 230.681 394.9 232.128 395.974 233.545C396.569 234.361 397.205 235.83 397.602 240.773C397.691 241.874 396.869 242.838 395.769 242.926C395.714 242.931 395.66 242.933 395.607 242.933C394.574 242.933 393.699 242.139 393.615 241.093C393.277 236.885 392.803 235.998 392.749 235.911ZM396.004 250.921H395.996C394.892 250.924 394 251.824 394.004 252.928L394.007 254.546C394.007 257.607 393.968 261.09 393.892 264.9C393.87 266.005 394.747 266.919 395.852 266.941H395.893C396.979 266.941 397.869 266.072 397.892 264.98C397.968 261.145 398.007 257.633 398.007 254.546L398.004 252.913C398 251.812 397.106 250.921 396.004 250.921ZM393.566 276.89C393.603 275.786 394.543 274.905 395.631 274.957C396.735 274.994 397.6 275.919 397.564 277.022C397.437 280.848 397.282 284.866 397.108 289.05C397.063 290.125 396.177 290.966 395.11 290.966C395.103 290.966 395.097 290.966 395.09 290.966C395.082 290.966 395.075 290.966 395.067 290.965L395.031 290.964L395.026 290.964C393.922 290.918 393.065 289.985 393.111 288.882C393.286 284.711 393.439 280.703 393.566 276.89ZM393.411 322.972C392.296 322.92 391.363 323.753 391.301 324.856C391.077 328.794 390.844 332.795 390.6 336.843C390.534 337.946 391.374 338.894 392.476 338.959C392.517 338.962 392.558 338.963 392.599 338.963C393.648 338.963 394.529 338.145 394.593 337.083C394.836 333.03 395.071 329.025 395.295 325.082C395.357 323.98 394.514 323.034 393.411 322.972ZM392.568 300.875C392.621 299.771 393.556 298.929 394.663 298.974C395.767 299.028 396.617 299.965 396.564 301.069C396.375 304.97 396.172 308.979 395.955 313.078C395.898 314.145 395.016 314.972 393.96 314.972C393.924 314.972 393.889 314.971 393.852 314.969C392.749 314.911 391.902 313.969 391.961 312.867C392.178 308.774 392.381 304.771 392.568 300.875ZM379.712 513.97C378.605 513.868 377.645 514.699 377.555 515.799L377.06 521.773C376.968 522.873 377.785 523.841 378.886 523.933C378.942 523.938 378.999 523.94 379.055 523.94C380.084 523.94 380.958 523.151 381.046 522.107L381.541 516.127C381.632 515.027 380.813 514.061 379.712 513.97ZM237.527 126.377C237.576 126.765 238.71 136.012 236.87 146.34C234.604 159.057 228.759 167.757 219.904 171.739C220.017 171.83 220.13 171.921 220.243 172.012C220.551 172.261 220.858 172.509 221.175 172.739C222.069 173.388 222.267 174.639 221.618 175.532C221.227 176.071 220.617 176.357 219.998 176.357C219.591 176.357 219.18 176.233 218.825 175.975C215.526 173.58 212.521 170.625 209.892 167.192C209.221 166.315 209.388 165.059 210.265 164.388C211.142 163.717 212.398 163.883 213.068 164.76C214.166 166.194 215.343 167.523 216.574 168.764C237.611 161.317 233.602 127.225 233.558 126.878C233.42 125.782 234.197 124.782 235.292 124.644C236.391 124.511 237.388 125.281 237.527 126.377Z" fill="#ffffff" fill-opacity="0.8" style="mix-blend-mode:overlay"/></g></g></g></g></g><g id="Upper Body" transform="translate(272 187) scale(1 1)"><g id="Upper Body/On Macbook"><g id="T Shirt"><path id="Fill 1" fill-rule="evenodd" clip-rule="evenodd" d="M162.181 260.449C162.185 260.785 162.194 261.107 162.197 261.446C162.255 267.151 161.899 276.275 161.279 287.232C152.253 287.175 143.887 286.552 139.712 284.749C144.908 277.475 153.459 268.668 162.181 260.449ZM406.789 393.85C405.649 299.96 409.623 199.196 371.281 137.717C328.842 69.6684 195.102 81.4044 147.841 121.884C124.329 138.22 88.4238 169.329 57.3728 222.144C34.3858 261.242 20.2348 337.082 55.1588 361.551C85.9818 376.881 126.447 379.568 157.123 377.932C156.527 384.04 155.966 389.454 155.47 393.85H406.789Z" fill="#6ffa61"/><path id="Fill 3" fill-rule="evenodd" clip-rule="evenodd" d="M143.196 283.636C147.556 278.026 153.626 271.656 160.056 265.436C159.976 270.556 159.696 277.296 159.276 285.066C152.856 284.966 147.076 284.556 143.196 283.636ZM158.846 391.726C159.226 388.276 159.636 384.306 160.066 379.956C187.156 378.266 203.046 373.406 204.736 372.986C205.756 372.726 206.436 371.766 206.336 370.716L197.996 285.406C197.876 284.236 196.856 283.376 195.676 283.496C188.936 284.126 175.646 285.056 163.536 285.096C164.076 275.106 164.376 266.786 164.326 261.426V261.366C178.816 247.776 193.616 235.896 193.856 235.706C194.776 234.976 194.916 233.636 194.186 232.716C193.456 231.796 192.116 231.646 191.196 232.386C190.286 233.116 177.566 243.316 164.226 255.616C162.826 256.896 161.426 258.206 160.036 259.526C151.946 267.206 144.046 275.356 138.846 282.346C127.986 279.496 119.496 273.806 119.396 273.746C118.426 273.086 117.106 273.346 116.446 274.316C115.786 275.286 116.046 276.606 117.016 277.266C117.436 277.556 126.866 283.896 139.066 286.786C143.186 288.486 150.746 289.176 159.046 289.336C160.446 289.356 161.866 289.366 163.296 289.366C175.796 289.346 188.906 288.346 193.966 287.916L201.916 369.296C190.756 371.956 178.706 374.556 160.486 375.636C159.066 375.716 157.636 375.796 156.186 375.856C125.416 377.246 85.2758 374.106 56.2458 359.716C36.1758 345.526 35.3658 314.656 36.6658 297.496C38.6058 272.036 47.2458 243.576 59.2058 223.226C83.7158 181.536 111.446 153.386 133.526 135.446C138.946 131.026 144.026 127.236 148.636 124.016C155.596 117.936 164.646 112.456 175.146 107.796C199.256 97.0758 231.036 90.6658 262.836 91.2458C312.306 92.1558 351.176 109.506 369.476 138.846C403.356 193.166 403.896 279.626 404.416 363.246C404.466 372.606 404.526 382.256 404.636 391.726H158.846ZM373.087 136.596C354.016 106.006 313.856 87.9358 262.916 86.9958C236.766 86.5158 209.576 90.6958 186.366 98.7658C170.116 104.416 156.556 111.736 146.746 120.036C142.606 122.926 138.066 126.266 133.226 130.116C112.506 146.566 82.2058 175.706 55.5358 221.066C31.2058 262.466 18.4758 338.446 53.9358 363.296C54.0258 363.356 54.1158 363.406 54.2158 363.456C80.7758 376.666 111.346 380.526 137.976 380.526C142.716 380.526 151.326 380.406 155.766 380.186C155.266 385.286 154.786 389.826 154.356 393.616C154.286 394.216 154.476 394.816 154.886 395.266C155.286 395.716 155.866 395.976 156.466 395.976H406.786C407.356 395.976 407.906 395.746 408.306 395.346C408.696 394.936 408.926 394.396 408.916 393.826C408.796 383.686 408.726 373.276 408.666 363.216C408.146 279.016 407.606 191.936 373.087 136.596Z" fill="#031900"/></g><path id="Tie" fill-rule="evenodd" clip-rule="evenodd" d="M264.824 134.109L277.057 153.139L262.105 263.92L296.767 306.737L325.312 267.998L289.291 153.139L297.447 133.429L276.418 121.791L264.824 134.109Z" fill="#6fea2e"/><g id="Neck"><path id="Fill 6" fill-rule="evenodd" clip-rule="evenodd" d="M297.934 61.7372L300.06 85.9732C300.407 100.325 278.229 125.401 278.229 125.401C278.229 125.401 235.227 98.2632 234.891 84.3442L237.395 58.1262" fill="#ffffff"/><path id="Fill 8" fill-rule="evenodd" clip-rule="evenodd" d="M278.229 127.528C277.839 127.528 277.445 127.421 277.095 127.2C272.595 124.36 233.119 99.0308 232.766 84.3958C232.764 84.3108 232.767 84.2258 232.775 84.1418L235.279 57.9238C235.392 56.7548 236.432 55.9028 237.599 56.0088C238.768 56.1208 239.625 57.1588 239.514 58.3278L237.022 84.4078C237.164 87.3508 240.14 94.3088 257.979 108.404C266.194 114.894 274.478 120.426 277.823 122.609C279.734 120.341 283.671 115.514 287.544 109.834C294.445 99.7118 298.038 91.5038 297.937 86.0898L295.816 61.9238C295.714 60.7528 296.579 59.7218 297.749 59.6188C298.919 59.5198 299.951 60.3808 300.054 61.5508L302.18 85.7878C302.184 85.8328 302.187 85.8778 302.187 85.9228C302.55 100.936 280.751 125.761 279.823 126.81C279.407 127.281 278.821 127.528 278.229 127.528" fill="#031900"/><path id="Fill 13" fill-rule="evenodd" clip-rule="evenodd" d="M299.165 85.289C295.255 99.301 288.826 112.842 278.458 123.338C260.124 111.322 244.619 98.601 234.179 84.615C208.531 95.435 245.952 151.918 245.952 151.918C245.952 151.918 275.664 126.359 278.458 123.83C281.252 126.359 315.851 142.74 315.851 142.74C315.851 142.74 315.131 87.244 299.165 85.289" fill="#ffffff"/><path id="Fill 15" fill-rule="evenodd" clip-rule="evenodd" d="M281.462 123.273C286.23 126.034 300.198 132.934 313.644 139.338C313.018 119.812 309.151 92.1899 300.616 87.9259C296.335 102.299 289.9 114.172 281.462 123.273M233.541 87.2909C230.83 88.8209 229.043 91.1059 228.098 94.2339C225.854 101.667 228.494 113.74 235.732 129.149C239.794 137.797 244.269 145.257 246.423 148.706C252.147 143.78 269.444 128.888 275.284 123.791C256.587 111.338 242.898 99.3699 233.541 87.2909M245.95 154.045C245.853 154.045 245.756 154.039 245.658 154.025C245.054 153.941 244.515 153.602 244.177 153.093C243.103 151.472 217.942 113.155 224.026 93.0049C225.5 88.1269 228.637 84.6449 233.351 82.6559C234.252 82.2769 235.296 82.5589 235.881 83.3429C245.04 95.6119 258.877 107.807 278.15 120.588C286.621 111.533 292.997 99.4759 297.115 84.7169C297.398 83.7049 298.384 83.0489 299.422 83.1779C316.732 85.2979 317.9 136.842 317.975 142.712C317.985 143.446 317.616 144.133 316.999 144.529C316.379 144.926 315.601 144.976 314.939 144.662C309.698 142.18 285.527 130.686 278.638 126.507C272.419 131.954 248.447 152.576 247.337 153.531C246.949 153.865 246.456 154.045 245.95 154.045" fill="#031900"/></g><g id="Macbook"><path id="Fill 19" fill-rule="evenodd" clip-rule="evenodd" d="M436.792 343.93H223.965C217.89 343.93 212.965 337.885 212.965 330.43C212.965 322.974 217.89 316.93 223.965 316.93H436.792C442.867 316.93 447.792 322.974 447.792 330.43C447.792 337.885 442.867 343.93 436.792 343.93" fill="#031900"/><path id="Fill 23" fill-rule="evenodd" clip-rule="evenodd" d="M570.901 343.93H360.226C352.595 343.93 346.41 337.744 346.41 330.113V177.518C346.41 169.888 352.595 163.701 360.226 163.701H570.901C578.531 163.701 584.717 169.888 584.717 177.518V330.113C584.717 337.744 578.531 343.93 570.901 343.93" fill="#57d945"/><path id="Fill 43" fill-rule="evenodd" clip-rule="evenodd" d="M491.472 255.292C491.472 267.22 482.363 274.752 470.016 274.752C457.669 274.752 447.66 265.082 447.66 253.154C447.66 241.226 460.903 221.039 470.712 235.867C477.525 246.164 491.472 243.364 491.472 255.292" fill="#ffffff"/><path id="Fill 45" fill-rule="evenodd" clip-rule="evenodd" d="M462.957 232.742C462.276 232.742 461.752 232.9 461.435 232.995C455.434 234.801 449.785 245.882 449.785 253.154C449.785 263.89 458.859 272.625 470.014 272.625C481.575 272.625 489.343 265.659 489.343 255.292C489.343 250.169 486.504 248.62 481.062 246.109C476.929 244.2 472.243 242.038 468.936 237.04C466.569 233.461 464.408 232.742 462.957 232.742M470.014 276.878C456.515 276.878 445.531 266.236 445.531 253.154C445.531 244.179 452.079 231.368 460.209 228.923C462.841 228.13 467.94 227.825 472.483 234.693C475.123 238.683 479.049 240.495 482.845 242.247C488.131 244.686 493.597 247.209 493.597 255.292C493.597 268.002 483.898 276.878 470.014 276.878" fill="#031900"/></g><g id="Hand"><path id="Fill 47" fill-rule="evenodd" clip-rule="evenodd" d="M196.102 288.725C212.107 285.487 249.717 280.561 283.156 276.453C345.601 268.78 350.199 309.648 334.029 304.158C323.254 300.499 316.355 301.353 308.135 300.881C317.19 302.322 321.304 308.245 318.938 312.005C315.62 317.277 293.089 307.8 268.427 320.588C246.533 331.941 219.073 349.429 202.632 352.012L196.102 288.725Z" fill="#ffffff"/><path id="Fill 49" fill-rule="evenodd" clip-rule="evenodd" d="M198.418 290.437L204.511 349.487C216.316 346.845 233.252 337.456 249.664 328.357C255.898 324.9 261.787 321.636 267.45 318.7C283.106 310.582 297.848 311.149 307.602 311.522C311.574 311.674 316.515 311.863 317.14 310.872C317.58 310.172 317.584 309.333 317.151 308.379C316.27 306.435 313.292 303.854 307.802 302.981C306.683 302.803 305.9 301.779 306.022 300.653C306.144 299.526 307.126 298.685 308.258 298.758C310.082 298.862 311.883 298.901 313.625 298.939C319.743 299.072 326.07 299.208 334.714 302.144C335.846 302.528 337.914 302.975 339.036 301.646C340.133 300.347 340.34 297.375 338.333 293.666C332.974 283.761 315.733 274.593 283.417 278.563C240.899 283.787 212.331 287.778 198.418 290.437M202.634 354.138C202.168 354.138 201.711 353.984 201.336 353.696C200.874 353.34 200.578 352.81 200.519 352.229L193.988 288.943C193.876 287.854 194.608 286.857 195.682 286.64C208.897 283.966 238.241 279.829 282.898 274.342C299.07 272.353 312.777 273.376 323.642 277.377C332.271 280.556 338.815 285.621 342.073 291.641C344.718 296.528 344.799 301.413 342.286 304.39C340.278 306.768 337.022 307.42 333.347 306.171C327.594 304.218 323.022 303.601 318.66 303.36C319.684 304.338 320.486 305.435 321.025 306.623C322.04 308.862 321.936 311.236 320.739 313.137C318.807 316.208 314.285 316.034 307.439 315.772C298.131 315.416 284.066 314.874 269.408 322.475C263.797 325.385 257.934 328.635 251.726 332.077C233.938 341.938 215.544 352.136 202.964 354.112C202.854 354.129 202.744 354.138 202.634 354.138" fill="#031900"/></g><g id="Finger"><path id="Fill 1" fill-rule="evenodd" clip-rule="evenodd" d="M498.704 339.365C498.066 337.009 496.246 333.272 492.454 332.455C487.371 331.361 485.034 335.533 484.801 340.057C484.579 339.219 484.302 338.343 483.957 337.42C481.113 329.81 472.116 330.995 470.903 336.619C470.433 338.795 470.324 340.915 470.478 342.858C468.932 337.953 464.893 333.995 460.369 335.234C456.982 336.162 455.084 339.47 455.206 343.964C454.046 341.615 451.892 339.792 449.385 339.496C445.467 339.034 441.449 343.354 443.84 350.86C445.594 356.366 452.329 355.592 454.856 351.887C455.509 350.929 455.882 349.89 456.033 348.835C456.281 349.663 456.574 350.508 456.938 351.372C459.235 356.822 468.705 356.344 470.596 350.659C471.032 349.346 471.195 347.938 471.134 346.523C471.84 349.001 472.995 350.9 474.287 351.792C478.549 354.733 485.199 352.834 485.469 345.26C486.143 347.309 487.291 348.954 488.839 349.544C495.498 352.082 500.965 347.713 498.704 339.365" fill="#ffffff"/><path id="Fill 3_2" fill-rule="evenodd" clip-rule="evenodd" d="M495.428 347.276C494.037 348.471 491.947 348.589 489.694 347.597C488.251 346.963 486.485 341.322 487.853 337.098C488.55 334.942 489.731 334.403 490.888 334.4C491.269 334.4 491.647 334.457 492.004 334.534C495.224 335.227 496.439 339.141 496.651 339.921C497.517 343.122 497.06 345.872 495.428 347.276M481.281 350.046C479.683 351.292 477.303 351.291 475.493 350.042C474.656 349.464 473.8 348.082 473.226 346.176C473.15 344.941 472.932 343.695 472.575 342.485C472.465 340.825 472.566 338.991 472.981 337.068C473.403 335.11 475.191 334.297 476.593 334.195C476.676 334.189 476.778 334.184 476.895 334.184C478.031 334.182 480.629 334.594 481.964 338.165C484.02 343.667 483.765 348.109 481.281 350.046M468.576 349.987C467.856 352.151 465.511 353.002 463.722 353.071C462.01 353.138 459.726 352.516 458.896 350.546C457.133 346.359 456.827 342.32 458.081 339.74C458.704 338.458 459.662 337.632 460.929 337.285C463.101 336.692 464.847 337.934 465.935 339.08C467.039 340.246 467.862 341.749 468.384 343.347C468.498 344.553 468.706 345.697 468.991 346.762C469.026 347.891 468.907 348.993 468.576 349.987M452.88 351.097C452.439 352.199 451.052 352.922 449.47 352.875C448.631 352.844 446.6 352.524 445.864 350.214C444.878 347.12 445.077 344.42 446.408 342.806C447.055 342.023 447.913 341.591 448.803 341.589C448.913 341.589 449.024 341.595 449.134 341.608C450.673 341.79 451.655 342.933 452.204 343.859C453.442 345.941 453.726 348.984 452.88 351.097M500.755 338.809V338.808C500.3 337.129 498.388 331.558 492.901 330.376C489.236 329.588 486.229 330.948 484.555 334.039C482.598 331.269 479.568 329.718 476.284 329.953C472.624 330.219 469.674 332.649 468.871 336.012C466.265 333.352 462.975 332.315 459.806 333.183C457.34 333.858 455.421 335.483 454.256 337.881C454.056 338.294 453.89 338.733 453.74 339.181C452.545 338.188 451.151 337.563 449.631 337.384C447.202 337.098 444.769 338.112 443.128 340.099C440.859 342.85 440.379 347.007 441.812 351.505C442.875 354.843 445.75 356.996 449.315 357.125C449.43 357.13 449.545 357.131 449.66 357.131C452.324 357.126 454.709 355.923 456.077 354.005C457.734 356.084 460.421 357.336 463.47 357.33C463.609 357.33 463.748 357.326 463.888 357.321C467.488 357.181 470.539 355.385 472.038 352.636C472.373 352.984 472.72 353.295 473.078 353.543C474.736 354.686 476.627 355.255 478.491 355.25C480.42 355.246 482.321 354.628 483.896 353.4C484.601 352.85 485.589 351.876 486.369 350.354C486.857 350.838 487.391 351.231 487.981 351.49C489.541 352.177 491.114 352.515 492.607 352.512C494.708 352.507 496.657 351.829 498.2 350.5C501.106 348.002 502.061 343.631 500.755 338.809" fill="#031900"/></g></g></g><g id="Head" transform="translate(439 92) scale(1 1)"><g id="Head/Curly Hair Long"><g id="Curly Hair Long"><path id="SKIN" fill-rule="evenodd" clip-rule="evenodd" d="M153.875 97.7733C147.878 48.0333 112.87 44.9124 89.2521 49.2074C70.4301 52.6294 46.3511 68.1903 48.4821 99.4973C39.0581 96.4383 32.1761 102.167 30.9531 109.614C29.5651 118.065 34.0011 132.36 47.9541 129.898C49.2981 152.893 70.2121 186.277 115.859 182.936C150.424 180.406 159.334 143.047 153.875 97.7733" fill="#ffffff"/><path id="Combined Shape" fill-rule="evenodd" clip-rule="evenodd" d="M49.2871 128.769C51.6009 139.856 54.7442 154.918 68.8164 166.826C85.6344 182.142 123.644 189.274 140.73 168.541C153.086 155.272 156.595 119.805 150.427 89.3065C148.902 85.732 146.586 82.9863 144.434 80.4342C142.032 77.5851 139.833 74.9774 139.163 71.7275C125.063 76.3825 105.947 75.5485 98.3704 60.1505C98.3704 64.2245 87.0424 78.1615 70.3764 76.6795C70.3764 76.6795 73.2924 84.9155 67.4594 94.5245C59.997 104.158 54.4122 102.823 48.9805 101.526C45.4084 100.672 41.9025 99.8343 37.9724 102.142C30.5004 106.846 31.4864 118.944 37.2684 125.16C39.8844 127.746 43.3654 128.677 47.6054 127.928C48.1644 127.83 48.7454 127.974 49.1954 128.329C49.2259 128.475 49.2564 128.622 49.2871 128.769ZM153.646 62.3535C167.867 67.9175 167.074 96.9695 163.763 96.9695C173.357 99.3945 171.653 116.901 165.584 117.453C174.962 125.176 173.497 151.759 164.978 154.351C190.41 205.769 122.578 220.611 126.836 182.806C109.949 187.92 88.9084 184.658 74.6984 176.033C75.0833 182.076 72.5321 188.873 71.0157 192.913C70.9559 193.072 70.8977 193.227 70.8414 193.377C62 217 8.00002 217 -3.99999 195C-16 173 -10.9866 155.867 2.31641 147.465C-16.2376 134.163 -12.7366 104.407 5.25041 100.943C-2.58059 79.7935 4.17041 57.1915 27.5994 59.0775C27.4804 33.7935 48.6504 22.6445 67.0814 26.1815C69.2454 14.1245 98.9244 11.0325 105.417 23.3985C136.778 11.5535 159.196 41.1565 153.646 62.3535ZM43.4957 115.127C42.7447 116.195 41.9647 117.303 41.0123 117.133C37.4413 116.493 39.8703 109.646 42.3203 107.822C47.0173 104.72 49.5523 109.912 44.7823 113.584C44.345 113.92 43.9251 114.517 43.4957 115.127Z" fill="#031900"/></g></g></g><g id="Face" transform="translate(499 178) scale(1 1)"><g id="Face/Happy"><path id="Happy" fill-rule="evenodd" clip-rule="evenodd" d="M28.2306 19.1149C27.9276 19.0909 27.4006 19.0529 26.9546 19.0459C26.6004 19.0306 26.2392 19.0399 25.8777 19.0491C25.7656 19.0519 25.6535 19.0548 25.5416 19.0569C24.5906 19.1039 23.6326 19.1709 22.6836 19.3199C20.7916 19.6309 18.8906 20.0459 17.0996 20.7939C15.3156 21.5319 13.5216 22.3529 11.9156 23.5119C10.3495 24.4885 8.95584 25.7236 7.53129 26.986L7.2006 27.2789L7.1066 27.3619C6.5836 27.8259 5.7816 27.7769 5.3176 27.2529C4.9206 26.8039 4.8996 26.1509 5.2316 25.6809C5.35826 25.502 5.48428 25.3217 5.61063 25.141C6.12273 24.4085 6.64007 23.6685 7.2256 22.9819C7.40976 22.7841 7.59172 22.5831 7.77402 22.3817L7.77412 22.3816C8.35009 21.7454 8.92952 21.1054 9.5926 20.5479C11.2736 19.0099 13.2106 17.7219 15.2756 16.6899C17.3466 15.6659 19.5596 14.8869 21.8466 14.4659C22.9886 14.2479 24.1466 14.0949 25.3156 14.0269C25.4029 14.0245 25.4902 14.022 25.5774 14.0194C26.0776 14.0048 26.5774 13.9902 27.0866 14.0089C27.7016 14.0179 28.2356 14.0559 28.9866 14.1589C30.3556 14.3469 31.3126 15.6099 31.1246 16.9779C30.9436 18.2969 29.7666 19.2339 28.4566 19.1329L28.2306 19.1149ZM75.1516 34.2331L75.1518 34.2333C75.311 34.3531 75.4613 34.4662 75.5939 34.5578L75.9109 34.7778C76.3449 35.0758 76.9209 35.1428 77.4319 34.9038C78.1989 34.5438 78.5299 33.6308 78.1699 32.8638C77.7989 32.0708 77.4159 31.5258 76.9419 30.9228C76.4709 30.3458 75.9229 29.8268 75.3219 29.3548C74.1049 28.4208 72.6519 27.7598 71.0739 27.4608C69.4989 27.1608 67.7849 27.2648 66.2629 27.8108C64.7239 28.3298 63.4249 29.2648 62.3939 30.3228C61.7669 30.9658 61.6329 31.9778 62.1289 32.7748C62.7129 33.7128 63.9459 33.9988 64.8839 33.4148L64.9939 33.3468C65.8869 32.7908 66.7609 32.3488 67.6369 32.1258C68.5109 31.8798 69.3859 31.8518 70.2919 31.9678C71.1909 32.1238 72.1249 32.4158 73.0069 32.8758C73.4559 33.0988 73.9009 33.3648 74.3399 33.6578C74.6089 33.8245 74.892 34.0377 75.1516 34.2331ZM15.3559 33.1489C14.7779 33.8689 14.2989 34.5439 13.8429 35.4509C13.5609 36.0129 13.6899 36.7149 14.1939 37.1339C14.7799 37.6229 15.6529 37.5439 16.1409 36.9569L16.2449 36.8319C16.6249 36.3769 17.1549 35.8029 17.6759 35.3659C18.2069 34.9119 18.7589 34.4969 19.3429 34.1719C20.5099 33.5159 21.7289 33.1369 22.9569 33.1219C23.2679 33.1219 23.5629 33.1339 23.8859 33.1719C24.0074 33.1897 24.1309 33.2013 24.2541 33.2129C24.4637 33.2326 24.6724 33.2522 24.8689 33.3019C25.5169 33.3989 26.1039 33.6059 26.6549 33.8319C27.2089 34.0499 27.6909 34.3549 28.1089 34.6979L28.1793 34.7601C28.3569 34.9166 28.5327 35.0714 28.6749 35.2419C28.7544 35.3279 28.821 35.4172 28.8844 35.5021L28.8999 35.5229L28.9889 35.6479C28.9955 35.6549 29.0061 35.6721 29.0147 35.686C29.0293 35.7099 29.038 35.724 29.0109 35.6609C29.5219 36.8059 30.8639 37.3199 32.0099 36.8089C33.1549 36.2979 33.6679 34.9559 33.1569 33.8109C33.0454 33.569 32.9922 33.4763 32.9243 33.3582L32.9243 33.3582L32.8909 33.2999C32.8277 33.1864 32.7665 33.0933 32.7026 32.9962L32.7026 32.9961L32.6807 32.9629L32.6539 32.9219C32.4899 32.6889 32.3219 32.4649 32.1429 32.2599C31.7879 31.8419 31.4029 31.4719 30.9899 31.1399C30.1599 30.4899 29.2469 29.9779 28.3059 29.6319C27.3619 29.3069 26.4009 29.0749 25.4599 28.9929C25.1383 28.9442 24.8236 28.9348 24.5093 28.9255C24.3593 28.9211 24.2094 28.9166 24.0589 28.9079C23.5839 28.9009 23.0799 28.9419 22.5939 29.0009C20.6349 29.2639 18.7769 30.0669 17.3229 31.2359C16.5879 31.8099 15.9319 32.4529 15.3559 33.1489ZM62.3409 14.7222C61.7589 14.8522 61.2579 14.9932 60.5749 15.2282C59.3989 15.6382 58.7229 16.9002 59.0639 18.1152C59.4179 19.3782 60.7289 20.1162 61.9929 19.7612L62.1749 19.7102C62.4729 19.6262 62.9709 19.5002 63.3969 19.4102C63.8399 19.3092 64.2949 19.2352 64.7519 19.1652L66.1299 18.9912L67.5179 18.9022C69.3719 18.8482 71.2289 18.9972 73.0269 19.4162C74.8229 19.8362 76.5779 20.4692 78.2249 21.3712C79.7834 22.1207 81.1811 23.1734 82.6181 24.2557L82.6202 24.2573C82.7527 24.3571 82.8856 24.4571 83.0189 24.5572L83.1219 24.6352C83.6039 24.9972 84.2849 25.0072 84.7829 24.6202C85.3809 24.1562 85.4889 23.2962 85.0239 22.6992C84.6889 22.2682 84.3369 21.8462 83.9819 21.4242C83.8828 21.3106 83.7865 21.1938 83.6901 21.0769L83.6897 21.0764C83.4332 20.7652 83.1758 20.453 82.8619 20.1972C82.693 20.0451 82.5254 19.8905 82.3574 19.7354C81.7047 19.133 81.046 18.5252 80.2849 18.0432C78.4679 16.6972 76.3519 15.7482 74.1699 15.1012C71.9859 14.4432 69.6999 14.0942 67.4269 14.1352C66.2909 14.1592 65.1539 14.2112 64.0279 14.3992C63.4659 14.4912 62.9029 14.5892 62.3409 14.7222ZM49.8507 33.5661C49.9857 35.7441 50.2307 37.9171 50.7947 39.7871C50.9457 40.2411 51.1127 40.6851 51.3017 41.0401C51.4857 41.3961 51.7177 41.6741 51.8387 41.7411C52.0857 41.9211 52.5727 42.2431 53.0317 42.5291C53.5057 42.8291 54.0127 43.1521 54.5267 43.5211C55.5277 44.2751 56.6517 45.2241 57.3767 46.7691C57.6997 47.5551 57.9277 48.3791 57.8467 49.4021C57.7707 50.4071 57.2947 51.3651 56.7367 51.9991C55.6067 53.2931 54.3797 53.8321 53.2447 54.3281C52.0907 54.7841 50.9707 55.1141 49.8537 55.3671C49.0097 55.5591 48.1707 55.0301 47.9797 54.1861C47.8167 53.4661 48.1767 52.7511 48.8097 52.4371L48.8177 52.4331C49.1421 52.272 49.4659 52.1169 49.7854 51.9638L49.7855 51.9638C50.4477 51.6465 51.0914 51.338 51.6837 51.0041C52.5557 50.5381 53.3537 49.9641 53.6657 49.5191C53.8213 49.2918 53.8326 49.1817 53.8446 49.0661L53.8447 49.0651C53.8567 48.9661 53.7887 48.6711 53.6807 48.4311C53.4677 47.9181 52.8827 47.2931 52.1167 46.6951C51.7357 46.3871 51.3147 46.0811 50.8587 45.7541C50.7412 45.6669 50.624 45.5836 50.5047 45.499C50.1511 45.2479 49.7799 44.9844 49.3327 44.5671C48.6197 43.8781 48.2727 43.1671 47.9977 42.5051C47.7217 41.8371 47.5877 41.1951 47.4717 40.5621C47.0527 38.0461 47.2987 35.6771 47.7847 33.3941C47.9047 32.8291 48.4597 32.4691 49.0237 32.5891C49.4937 32.6891 49.8217 33.0891 49.8497 33.5451L49.8507 33.5661ZM34.3663 68.3769C39.5273 71.3069 60.7703 70.7559 67.5133 66.4909C68.1083 64.4579 67.3563 63.5219 67.3563 63.5219C67.3563 63.5219 47.4373 66.4319 34.3803 64.8919C34.3803 64.8919 33.9463 67.5379 34.3663 68.3769ZM68.0263 60.2979C69.4483 60.0149 70.7503 60.5149 71.5093 61.6299C74.5893 68.6889 64.8293 80.1889 50.8123 80.1239C41.4983 80.6109 30.2033 74.9489 29.7223 68.5269C29.2853 65.7529 31.7743 61.0039 35.6163 61.7009C38.3533 62.1969 44.8963 62.3799 51.2903 62.1519C59.6542 61.8579 67.6242 60.3728 68.0121 60.3005C68.02 60.2991 68.0247 60.2982 68.0263 60.2979Z" fill="#031900"/></g></g><g id="Accessories" transform="translate(491 176) scale(103 60)"><g id="Accessories/None" stroke="none" stroke-width="1" fill="none" fill-rule="evenodd" fill-opacity="0"/></g><g id="Facial Hair" transform="translate(501 234) scale(90 60)"><g id="Facial Hair/None" stroke="none" stroke-width="1" fill="none" fill-rule="evenodd" fill-opacity="0"/></g></g></svg>