<svg viewBox="177.28750000000002 163.64999999999998 736.4250000000001 763.7" xmlns="http://www.w3.org/2000/svg" xmlns:xlink="http://www.w3.org/1999/xlink" overflow="visible" width="736.4250000000001px" height="763.7px"><defs><path d="M655.92,5.985 L496.469,40.59 L511.745,111.034 L562.947,100.519 L469.449,197.212 L468.306,196.439 C438.091,176.176 402.534,165.179 365.336,165.179 L365.336,165.179 L364.146,165.183 C325.337,165.428 288.376,177.648 257.495,199.818 L257.495,199.818 L257.256,199.99 L248.852,191.298 L283.775,157.501 L233.961,105.984 L190.574,117.236 L184.846,125.106 L178.006,118.032 L212.35,110.699 L227.552,40.59 L68.109,5.987 L44.02,0.934 L0.399,11.323 L40.561,74.606 L36.003,201.769 L64.957,214.29 L108.019,204.437 L109.923,151.316 L141.786,184.267 L116.062,219.614 L123.244,280.543 L166.307,271.182 L197.055,241.424 L207.98,252.724 L207.305,253.82 C189.653,282.657 180.163,315.844 180.163,350.427 L180.163,350.427 L180.182,353.11 C181.432,440.611 243.735,514.912 328.518,532.014 L328.518,532.014 L330.303,532.36 L330.303,607.774 L285.14,607.775 L242.582,618.159 L284.706,679.831 L330.303,683.279 L330.304,735.641 L358.263,746.001 L402.369,735.739 L402.369,688.733 L404.439,688.889 L448.413,679.681 L448.413,607.775 L402.369,607.774 L402.369,531.969 C487.977,514.589 550.508,438.952 550.508,350.427 L550.508,350.427 L550.506,349.317 C550.293,313.095 539.664,278.456 520.194,248.82 L520.194,248.82 L520.038,248.585 L614.096,151.317 L616.001,204.403 L644.58,212.273 L688.022,201.904 L682.147,37.972 L681.972,37.978 L680.954,0.733 L655.92,5.985 Z M38.049,200.474 L42.583,74.059 L3.589,12.619 L44.047,2.982 L67.691,7.943 L225.173,42.119 L210.668,109.012 L174.061,116.83 L185.062,128.207 L191.77,118.992 L233.334,108.212 L280.947,157.455 L246.025,191.251 L257.026,202.628 L257.729,202.117 C288.773,179.535 326.121,167.179 365.336,167.179 L365.336,167.179 C402.51,167.179 438.02,178.28 468.104,198.716 L468.104,198.716 L469.712,199.818 L568.882,97.26 L513.28,108.677 L498.847,42.119 L656.337,7.942 L679.019,3.182 L680.03,40.049 L680.219,40.041 L685.965,200.338 L644.615,210.207 L617.947,202.864 L615.928,146.546 L517.484,248.351 L517.929,249.021 C537.764,278.833 548.509,313.829 548.509,350.427 L548.509,350.427 C548.509,438.27 486.263,513.285 401.175,530.169 L401.175,530.169 L400.37,530.329 L400.37,609.775 L446.412,609.774 L446.412,678.056 L404.303,686.873 L400.37,686.576 L400.37,734.149 L358.395,743.916 L332.303,734.248 L332.303,681.427 L285.814,677.907 L245.862,619.417 L285.382,609.774 L332.303,609.775 L332.303,530.706 L331.487,530.554 C245.453,514.475 182.163,439.017 182.163,350.427 L182.163,350.427 C182.163,315.517 191.937,282.051 210.09,253.123 L210.09,253.123 L210.507,252.459 L197.103,238.596 L165.326,269.347 L124.972,278.12 L118.14,220.156 L144.393,184.086 L108.094,146.546 L106.076,202.829 L65.148,212.194 L38.049,200.474 Z" id="masterstickersgender-neutral-path-1"/><path d="M620.918,5.985 L461.459,40.59 L476.735,111.036 L527.943,100.522 L434.438,197.216 L433.294,196.442 C403.078,176.18 367.519,165.182 330.32,165.182 L330.32,165.182 L329.131,165.185 C290.319,165.43 253.355,177.652 222.474,199.822 L222.474,199.822 L222.234,199.994 L213.83,191.302 L248.757,157.504 L198.649,105.686 L163.722,139.483 L126.046,100.522 L177.252,111.036 L192.529,40.59 L33.078,5.987 L8.035,0.733 L7.014,37.979 L6.843,37.973 L0.959,202.089 L72.982,204.672 L74.895,151.319 L111.923,189.611 L80.66,219.866 L130.767,271.684 L162.031,241.428 L172.958,252.728 L172.282,253.825 C154.628,282.661 145.137,315.848 145.137,350.433 L145.137,350.433 L145.156,353.116 C146.406,440.619 208.713,514.921 293.5,532.024 L293.5,532.024 L295.285,532.37 L295.285,607.786 L249.24,607.786 L249.24,679.881 L295.285,679.881 L295.285,735.958 L367.355,735.958 L367.354,679.881 L413.4,679.881 L413.4,607.786 L367.354,607.786 L367.354,531.979 C452.967,514.599 515.502,438.96 515.502,350.433 L515.502,350.433 L515.498,349.324 C515.289,313.464 504.868,279.155 485.769,249.714 L485.769,249.714 L485.032,248.59 L579.093,151.318 L581.007,204.672 L653.029,202.089 L647.146,37.973 L646.973,37.979 L645.954,0.733 L620.918,5.985 Z M463.837,42.12 L621.336,7.942 L644.019,3.182 L645.031,40.049 L645.218,40.042 L650.958,200.162 L582.933,202.601 L580.924,146.548 L482.476,248.355 L482.923,249.026 C502.757,278.839 513.502,313.837 513.502,350.433 L513.502,350.433 C513.502,438.279 451.253,513.295 366.16,530.179 L366.16,530.179 L365.355,530.339 L365.355,609.786 L411.401,609.785 L411.401,677.881 L365.355,677.881 L365.354,733.958 L297.285,733.958 L297.286,677.881 L251.238,677.881 L251.238,609.785 L297.286,609.786 L297.286,530.716 L296.47,530.564 C210.432,514.484 147.137,439.025 147.137,350.433 L147.137,350.433 C147.137,315.871 156.718,282.724 174.525,253.996 L174.525,253.996 L175.484,252.464 L162.079,238.6 L130.814,268.855 L83.486,219.912 L114.751,189.658 L73.065,146.548 L71.055,202.601 L3.029,200.162 L8.77,40.042 L8.958,40.049 L9.967,3.182 L32.66,7.943 L190.15,42.12 L175.716,108.679 L120.112,97.262 L163.675,142.313 L198.601,108.515 L245.929,157.457 L211.002,191.256 L222.004,202.632 L222.706,202.121 C253.752,179.539 291.105,167.182 330.32,167.182 L330.32,167.182 C367.495,167.182 403.008,178.283 433.094,198.72 L433.094,198.72 L434.702,199.822 L533.878,97.262 L478.271,108.679 L463.837,42.12 Z" id="masterstickersgender-neutral-path-3"/><path d="M0.994,128.957 C0.994,199.651 58.302,256.958 128.994,256.958 L128.994,256.958 C199.686,256.958 256.994,199.651 256.994,128.957 L256.994,128.957 C256.994,58.266 199.686,0.958 128.994,0.958 L128.994,0.958 C58.302,0.958 0.994,58.266 0.994,128.957 L0.994,128.957 Z M2.994,128.957 C2.994,59.37 59.406,2.958 128.994,2.958 L128.994,2.958 C198.582,2.958 254.994,59.37 254.994,128.957 L254.994,128.957 C254.994,198.546 198.582,254.958 128.994,254.958 L128.994,254.958 C59.406,254.958 2.994,198.546 2.994,128.957 L2.994,128.957 Z" id="masterstickersgender-neutral-path-5"/><path d="M62.019,62.982 L0,84.957 L62.019,106.933 L83.995,168.953 L105.969,106.933 L167.988,84.957 L105.969,62.982 L83.995,0.964 L62.019,62.982 Z M63.585,105.367 L5.987,84.957 L63.585,64.55 L83.995,6.951 L104.402,64.55 L162,84.957 L104.402,105.367 L83.995,162.964 L63.585,105.367 Z" id="masterstickersgender-neutral-path-9"/><path d="M45.036,46.001 L0,61.958 L45.036,77.915 L60.994,122.952 L76.951,77.915 L121.988,61.958 L76.951,46.001 L60.994,0.964 L45.036,46.001 Z M46.603,76.349 L5.987,61.958 L46.603,47.568 L60.994,6.951 L75.384,47.568 L116,61.958 L75.384,76.349 L60.994,116.964 L46.603,76.349 Z" id="masterstickersgender-neutral-path-13"/><polygon id="masterstickersgender-neutral-path-7" points="59.802 60.766 -0.005 81.957 59.802 103.15 80.995 162.958 102.186 103.15 161.995 81.957 102.186 60.766 80.995 0.957"/><polygon id="masterstickersgender-neutral-path-11" points="43.82 43.785 0.994 58.958 43.82 74.133 58.994 116.958 74.168 74.133 116.994 58.958 74.168 43.785 58.994 0.958"/></defs><g id="Master/Stickers/Gender Neutral" stroke="none" stroke-width="1" fill="none" fill-rule="evenodd"><g id="Group-27" transform="translate(177.000000, 172.000000)"><path d="M367.9958,486.2233 C297.8558,486.2233 240.9958,429.3643 240.9958,359.2233 C240.9958,289.0833 297.8558,232.2243 367.9958,232.2243 C438.1358,232.2243 494.9958,289.0833 494.9958,359.2233 C494.9958,429.3643 438.1358,486.2233 367.9958,486.2233 L367.9958,486.2233 Z M730.1858,39.2733 L730.0058,39.2843 L728.9858,2.2243 L705.1258,7.2333 L546.6558,41.6233 L561.5158,110.1233 L614.9158,99.1533 L518.5858,198.7843 C488.9358,178.3843 453.0358,166.4433 414.3358,166.4433 C373.9058,166.4433 336.5158,179.4833 306.1358,201.5743 L296.4358,191.5433 L331.3658,157.7443 L282.6458,107.3643 L240.1758,118.3843 L233.9558,126.9233 L225.0358,117.6933 L260.5058,110.1233 L275.3658,41.6233 L116.8958,7.2333 L93.0358,2.2243 L50.9958,12.2333 L90.5758,74.6033 L86.0258,201.3843 L114.0558,213.5143 L156.0458,203.9033 L158.0058,149.1933 L192.0858,184.4433 L166.1058,220.1533 L173.1058,279.5943 L214.8158,270.5343 L246.0758,240.2733 L258.2458,252.8533 C240.4558,281.2033 230.1658,314.7533 230.1658,350.6933 C230.1658,440.8243 294.8458,515.8333 380.3058,531.8033 L380.3058,609.0433 L334.2558,609.0433 L293.2258,619.0533 L334.2558,679.1333 L380.3058,682.6233 L380.3058,735.2133 L407.3258,745.2233 L450.3658,735.2133 L450.3658,687.9233 L453.3758,688.1443 L496.4158,679.1333 L496.4158,609.0433 L450.3658,609.0433 L450.3658,531.4133 C534.8358,514.6543 598.5058,440.1143 598.5058,350.6933 C598.5058,312.9943 587.1858,277.9333 567.7658,248.7333 L664.0158,149.1933 L665.9758,203.9033 L693.5958,211.5033 L735.9958,201.3843 L730.1858,39.2733 Z" id="Fill-2" fill="#b577c1"/><g id="Group-6" transform="translate(48.000000, 0.267000)"><mask id="masterstickersgender-neutral-mask-2" fill="#fff"><use xlink:href="#masterstickersgender-neutral-path-1"/></mask><g id="Clip-5"/><polygon id="Fill-4" fill="#000000" mask="url(#masterstickersgender-neutral-mask-2)" points="-4.601 751 693.023 751 693.023 -4.267 -4.601 -4.267"/></g><path d="M367.9958,486.2233 C297.8558,486.2233 240.9958,429.3643 240.9958,359.2233 C240.9958,289.0833 297.8558,232.2243 367.9958,232.2243 C438.1358,232.2243 494.9958,289.0833 494.9958,359.2233 C494.9958,429.3643 438.1358,486.2233 367.9958,486.2233 L367.9958,486.2233 Z M688.1858,49.2733 L688.0058,49.2843 L686.9858,12.2243 L663.1258,17.2333 L504.6458,51.6233 L519.5058,120.1233 L572.9058,109.1633 L476.5658,208.7843 C446.9258,188.3843 411.0158,176.4533 372.3158,176.4533 C331.8858,176.4533 294.4958,189.4833 264.1158,211.5833 L254.4158,201.5433 L289.3458,167.7443 L240.6258,117.3643 L205.6958,151.1633 L165.0758,109.1633 L218.4858,120.1233 L233.3358,51.6233 L74.8658,17.2333 L51.0058,12.2243 L49.9858,49.2843 L49.8058,49.2733 L43.9958,211.3933 L114.0158,213.9033 L115.9758,159.2033 L155.3358,199.9033 L124.0758,230.1533 L172.7958,280.5343 L204.0558,250.2843 L216.2158,262.8643 C198.4258,291.2133 188.1358,324.7533 188.1358,360.7033 C188.1358,450.8243 252.8258,525.8433 338.2858,541.8143 L338.2858,619.0533 L292.2358,619.0533 L292.2358,689.1443 L338.2858,689.1443 L338.2858,745.2233 L408.3558,745.2233 L408.3558,689.1443 L454.3958,689.1443 L454.3958,619.0533 L408.3558,619.0533 L408.3558,541.4233 C492.8258,524.6633 556.5058,450.1233 556.5058,360.7033 C556.5058,322.9943 545.1758,287.9333 525.7558,258.7443 L622.0058,159.2033 L623.9658,213.9033 L693.9958,211.3933 L688.1858,49.2733 Z" id="Fill-7" fill="#b577c1"/><g id="Group-11" transform="translate(41.000000, 10.267000)"><mask id="masterstickersgender-neutral-mask-4" fill="#fff"><use xlink:href="#masterstickersgender-neutral-path-3"/></mask><g id="Clip-10"/><polygon id="Fill-9" fill="#000000" mask="url(#masterstickersgender-neutral-mask-4)" points="-4.041 740.958 658.029 740.958 658.029 -4.267 -4.041 -4.267"/></g><g id="Group-14" transform="translate(239.000000, 230.267000)"><mask id="masterstickersgender-neutral-mask-6" fill="#fff"><use xlink:href="#masterstickersgender-neutral-path-5"/></mask><g id="Clip-13"/><polygon id="Fill-12" fill="#000000" mask="url(#masterstickersgender-neutral-mask-6)" points="-4.006 261.958 261.994 261.958 261.994 -4.042 -4.006 -4.042"/></g><g id="Group-17" transform="translate(4.000000, 277.267000)"><mask id="masterstickersgender-neutral-mask-8" fill="#fff"><use xlink:href="#masterstickersgender-neutral-path-7"/></mask><g id="Clip-16"/><polygon id="Fill-15" fill="#f1e6f4" mask="url(#masterstickersgender-neutral-mask-8)" points="-5.006 167.958 166.994 167.958 166.994 -4.042 -5.006 -4.042"/></g><g id="Group-20" transform="translate(0.000000, 274.267000)"><mask id="masterstickersgender-neutral-mask-10" fill="#fff"><use xlink:href="#masterstickersgender-neutral-path-9"/></mask><g id="Clip-19"/><polygon id="Fill-18" fill="#000000" mask="url(#masterstickersgender-neutral-mask-10)" points="-5 173.952 172.988 173.952 172.988 -4.036 -5 -4.036"/></g><g id="Group-23" transform="translate(614.000000, 486.267000)"><mask id="masterstickersgender-neutral-mask-12" fill="#fff"><use xlink:href="#masterstickersgender-neutral-path-11"/></mask><g id="Clip-22"/><polygon id="Fill-21" fill="#f1e6f4" mask="url(#masterstickersgender-neutral-mask-12)" points="-4.006 121.958 121.994 121.958 121.994 -4.042 -4.006 -4.042"/></g><g id="Group-26" transform="translate(611.000000, 483.267000)"><mask id="masterstickersgender-neutral-mask-14" fill="#fff"><use xlink:href="#masterstickersgender-neutral-path-13"/></mask><g id="Clip-25"/><polygon id="Fill-24" fill="#000000" mask="url(#masterstickersgender-neutral-mask-14)" points="-5 127.952 126.988 127.952 126.988 -4.036 -5 -4.036"/></g></g></g></svg>