<svg viewBox="430.82500000000005 403.0574712643679 997.6999999999999 883.1034482758616" fill="none" xmlns="http://www.w3.org/2000/svg" xmlns:xlink="http://www.w3.org/1999/xlink" overflow="visible" width="997.6999999999999px" height="883.1034482758616px"><g id="Master/Marketing/Alarm Clock"><circle id="Oval Copy" cx="971" cy="843" r="414" fill="#50c613"/><path id="Oval Copy 2" fill-rule="evenodd" clip-rule="evenodd" d="M555 841C555 611.25 741.25 425 971 425C1200.75 425 1387 611.25 1387 841C1387 1070.75 1200.75 1257 971 1257C741.25 1257 555 1070.75 555 841ZM1383 841C1383 613.459 1198.54 429 971 429C743.459 429 559 613.459 559 841C559 1068.54 743.459 1253 971 1253C1198.54 1253 1383 1068.54 1383 841Z" fill="#000000"/><ellipse id="Oval" cx="907" cy="872.5" rx="414" ry="400.5" fill="#43a610"/><path id="Oval Copy 3" fill-rule="evenodd" clip-rule="evenodd" d="M490.02 873.5C490.02 651.19 676.284 471 906.02 471C1135.76 471 1322.02 651.19 1322.02 873.5C1322.02 1095.81 1135.76 1276 906.02 1276C676.284 1276 490.02 1095.81 490.02 873.5ZM1318.02 873.5C1318.02 653.43 1133.58 475 906.02 475C678.464 475 494.02 653.43 494.02 873.5C494.02 1093.57 678.464 1272 906.02 1272C1133.58 1272 1318.02 1093.57 1318.02 873.5Z" fill="#000000"/><ellipse id="Oval_2" cx="907" cy="872.5" rx="327" ry="316.5" fill="#ffffff"/><path id="Oval Copy 4" fill-rule="evenodd" clip-rule="evenodd" d="M577.02 873.5C577.02 697.582 724.332 555 906.02 555C1087.71 555 1235.02 697.582 1235.02 873.5C1235.02 1049.42 1087.71 1192 906.02 1192C724.332 1192 577.02 1049.42 577.02 873.5ZM1231.02 873.5C1231.02 699.821 1085.53 559 906.02 559C726.513 559 581.02 699.821 581.02 873.5C581.02 1047.18 726.513 1188 906.02 1188C1085.53 1188 1231.02 1047.18 1231.02 873.5Z" fill="#000000"/><rect id="Rectangle" x="880" y="849" width="296" height="44" rx="22" fill="#139a00"/><path id="Rectangle Copy" fill-rule="evenodd" clip-rule="evenodd" d="M901.02 848H1153.02C1166.27 848 1177.02 858.745 1177.02 872C1177.02 885.255 1166.27 896 1153.02 896H901.02C887.765 896 877.02 885.255 877.02 872C877.02 858.745 887.765 848 901.02 848ZM1153.02 852H901.02C889.974 852 881.02 860.954 881.02 872C881.02 883.046 889.974 892 901.02 892H1153.02C1164.07 892 1173.02 883.046 1173.02 872C1173.02 860.954 1164.07 852 1153.02 852Z" fill="#000000"/><path id="Vector 1" d="M523.5 538L478.5 676L483 678L499 670.5L511.5 663.5L553 630L603 586.5C620.167 568.5 659.1 527.4 677.5 507C700.5 481.5 708.5 462.5 709 458.5C709.4 455.3 708.5 454.5 708 454.5H704L523.5 538Z" fill="#50c613"/><path id="Rectangle_2" d="M865.231 732.525C881.911 728.915 898.398 739.373 902.241 756.001L925.546 856.837C929.466 873.798 918.753 890.687 901.739 894.369V894.369C885.059 897.978 868.573 887.521 864.729 870.893L841.424 770.057C837.504 753.096 848.217 736.207 865.231 732.525V732.525Z" fill="#139a00"/><path id="Rectangle Copy 2" fill-rule="evenodd" clip-rule="evenodd" d="M903.308 756.976L926.614 857.813C930.69 875.451 919.696 893.054 902.058 897.131L901.61 897.231C883.624 901.123 865.847 889.847 861.703 871.917L838.398 771.081C834.321 753.443 845.315 735.84 862.954 731.763L863.401 731.663C881.387 727.77 899.165 739.047 903.308 756.976ZM901.157 893.233C916.643 889.654 926.295 874.199 922.716 858.713L899.411 757.877C895.76 742.078 880.096 732.143 864.248 735.572L864.051 735.616L863.391 735.771C848.177 739.548 838.752 754.849 842.295 770.18L865.6 871.017C869.252 886.815 884.916 896.751 900.75 893.324L901.157 893.233Z" fill="#000000"/><path id="Rectangle_3" d="M888.963 1150.5C883.737 1150.5 879.5 1146.26 879.5 1141.04V857.963C879.5 852.737 883.737 848.5 888.963 848.5H903.037C908.263 848.5 912.5 852.737 912.5 857.963V1141.04C912.5 1146.26 908.263 1150.5 903.037 1150.5H888.963Z" fill="#3ed329"/><path id="Rectangle Copy 3" fill-rule="evenodd" clip-rule="evenodd" d="M876.52 1142.04V858.963C876.52 852.632 881.652 847.5 887.982 847.5H902.057C908.388 847.5 913.52 852.632 913.52 858.963V1142.04C913.52 1148.37 908.388 1153.5 902.057 1153.5H887.982C881.652 1153.5 876.52 1148.37 876.52 1142.04ZM880.52 858.963V1142.04C880.52 1146.16 883.861 1149.5 887.982 1149.5H902.057C906.178 1149.5 909.52 1146.16 909.52 1142.04V858.963C909.52 854.841 906.178 851.5 902.057 851.5H887.982C883.861 851.5 880.52 854.841 880.52 858.963Z" fill="#000000"/><path id="Oval Copy 5" fill-rule="evenodd" clip-rule="evenodd" d="M477.656 677.741C472.469 672.515 480.473 657.192 499.044 633.301L500.821 631.03C519.287 607.584 546.187 578.283 576.541 548.743L577.588 547.726C607.931 518.27 637.906 492.285 661.759 474.6C687 455.887 703.115 447.82 708.333 453.077C713.626 458.409 705.183 474.255 685.794 498.99C667.728 522.038 641.364 550.87 611.512 580.061L609.447 582.074C579.446 611.27 549.738 637.129 525.884 654.984L524.229 656.217C498.988 674.93 482.874 682.998 477.656 677.741ZM480.397 674.892L480.466 674.956C481.696 676.006 485.857 675.189 492.318 672.027L493.088 671.644C500.548 667.882 510.485 661.413 522.271 652.651L523.929 651.412C547.843 633.463 577.7 607.444 607.88 578.072L608.919 577.059C639.374 547.349 666.299 517.972 684.661 494.606L685.736 493.233C694.241 482.318 700.568 473.077 704.334 466.055L704.536 465.677C708.045 459.042 708.951 454.834 707.841 453.715C706.66 452.526 702.18 453.419 695.15 456.963C687.69 460.725 677.753 467.194 665.967 475.956L665.14 476.572C641.089 494.539 610.889 520.821 580.358 550.535L579.319 551.548C549.556 580.583 523.164 609.3 504.842 632.398L503.577 634.001C494.528 645.515 487.827 655.237 483.903 662.552C480.228 669.405 479.265 673.752 480.397 674.892Z" fill="#000000"/><path id="Path" d="M479.31 463.311C400.871 544.195 446.627 638.138 479.31 675C544.676 574.738 658.339 485.78 707 453.833C663.785 423.291 557.749 382.428 479.31 463.311Z" fill="#43a610"/><path id="Path Copy" fill-rule="evenodd" clip-rule="evenodd" d="M434.682 586.96C428.049 542.654 440.814 500.125 476.895 462.919L477.98 461.81C513.861 425.427 557.756 411.3 605.572 415.796C642.714 419.289 680.432 434.299 707.175 453.2L709.572 454.894L706.224 457.094C677.199 476.242 638.547 506.271 602.04 539.236L599.785 541.278C551.091 585.518 509.599 631.701 480.006 677.092L478.574 679.289L476.834 677.327C456.571 654.472 439.785 621.044 434.682 586.96ZM701.671 454.263C675.977 436.972 640.89 423.352 606.29 419.885L605.197 419.779C558.055 415.345 514.96 429.413 479.766 465.704C444.574 501.993 432.185 543.268 438.638 586.368C443.47 618.645 459.078 650.408 478.057 672.638L478.106 672.696L479.36 670.806C508.653 626.879 548.793 582.367 595.629 539.652L597.095 538.318C632.911 505.778 671.029 475.909 700.382 456.178L702.453 454.792L701.671 454.263Z" fill="#000000"/><g id="Group"><path id="Combined Shape" fill-rule="evenodd" clip-rule="evenodd" d="M1362.04 683.121C1394.67 645.664 1439.1 552.56 1361.27 472.311C1284.95 393.614 1182.51 430.171 1137.22 460.337C1136.3 460.477 1135.56 460.816 1135.03 461.362C1134.78 461.616 1134.57 461.912 1134.42 462.248C1134.13 462.444 1133.86 462.639 1133.58 462.833C1133.76 462.947 1133.93 463.063 1134.11 463.179C1131.37 476.138 1173.79 530.103 1232.93 588.237C1295.45 649.7 1353 692.548 1361.46 683.941C1361.7 683.704 1361.89 683.43 1362.04 683.121Z" fill="#43a610"/><path id="Combined Shape Copy" fill-rule="evenodd" clip-rule="evenodd" d="M1134.4 461.211C1161.14 442.311 1198.86 427.301 1236 423.808C1284.3 419.266 1328.6 433.726 1364.68 470.931C1400.29 507.651 1413.19 549.566 1407.13 593.294C1402.46 626.99 1386.36 660.086 1366.35 683.482L1366.25 683.687C1366.06 684.023 1365.84 684.334 1365.58 684.617L1365.38 684.824C1365.23 684.969 1365.08 685.105 1364.91 685.231L1364.69 685.392L1363.01 687.284L1362.36 686.299L1362.18 686.327C1354.94 687.355 1339.88 678.897 1317.82 662.341L1316.27 661.18C1293.17 643.699 1264 618.441 1233.56 589.508L1232.5 588.502C1201.89 559.333 1174.85 530.442 1156.4 507.379L1155.87 506.713C1138.42 484.812 1129.97 470.013 1132.61 463.537L1132.69 463.356L1132 462.906L1134.4 461.211ZM1403.17 592.745C1409.06 550.212 1396.54 509.532 1361.81 473.715C1326.61 437.425 1283.52 423.357 1236.37 427.79C1201.42 431.078 1165.87 444.802 1139.9 462.275L1139.24 462.719L1139.39 462.806L1136.71 464.559C1136.65 464.602 1136.59 464.647 1136.54 464.697C1135.37 465.849 1136.29 470.122 1139.94 476.859L1140.18 477.302C1144.1 484.439 1150.68 493.822 1159.53 504.881L1160.16 505.673C1178.26 528.188 1204.5 556.227 1234.21 584.605L1236.32 586.609C1267.01 615.78 1296.39 641.192 1319.49 658.592L1320.17 659.106C1342.68 675.995 1358.21 684.29 1362.29 682.18L1362.36 682.141C1362.41 682.107 1362.46 682.072 1362.51 682.034L1362.57 681.974C1362.67 681.875 1362.76 681.753 1362.82 681.599L1362.94 681.314L1363.73 680.391C1383.07 657.576 1398.64 625.403 1403.17 592.745Z" fill="#000000"/></g></g></svg>