<svg viewBox="100.94999999999982 719.7421875 2490.100000000001 1143.5156249999995" xmlns="http://www.w3.org/2000/svg" xmlns:xlink="http://www.w3.org/1999/xlink" overflow="visible" width="2490.100000000001px" height="1143.5156249999995px"><defs><polygon id="masterstickerspower-path-1" points="0.32022985 0.354501597 474.16747 0.354501597 474.16747 1108 0.32022985 1108"/><polygon id="masterstickerspower-path-3" points="0.587826723 0.428565032 481.148026 0.428565032 481.148026 1107.99893 0.587826723 1107.99893"/></defs><g id="Master/Stickers/Power" stroke="none" stroke-width="1" fill="none" fill-rule="evenodd"><g id="Sticker" transform="translate(107.000000, 737.000000)"><g id="Group-13-Copy-2" transform="translate(471.000000, 0.000000)"><g id="Group-5"><mask id="masterstickerspower-mask-2" fill="#fff"><use xlink:href="#masterstickerspower-path-1"/></mask><g id="Clip-4"/></g><g id="Group-12" transform="translate(1479.081053, 0.000000)"><mask id="masterstickerspower-mask-4" fill="#fff"><use xlink:href="#masterstickerspower-path-3"/></mask><g id="Clip-11"/></g></g><g id="Group-2" transform="translate(0.000000, 1.000000)" fill="#DE85B3"><path d="M231.957237,158.441686 C241.292463,266.601544 244.766321,373.704273 197.973576,474.839857 L259.030007,474.839857 C299.722019,474.839857 340.905036,448.476026 353.554543,395.737632 C358.746918,343.390965 358.016548,290.030098 357.243216,237.543912 C357.40893,184.821616 333.70568,158.441686 293.00753,158.441686 L231.957237,158.441686 Z M51.8751371,0.237234893 L235.032154,0.237234893 C362.423315,2.58760291 495.780183,123.883764 479.34994,237.543912 C480.123272,290.030098 480.847504,343.390965 475.661267,395.737632 C441.941521,507.127904 353.388829,629.609981 210.715148,633.038943 L149.658717,633.038943 C100.545975,740.581695 134.228895,767.165537 161.332353,870.27586 C181.764285,948.004355 173.981861,1028.2603 173.981861,1107.64693 L51.8751371,1107.64693 C51.8751371,1000.69982 47.818211,912.217587 11.9932828,810.207322 C-21.3336591,715.312555 22.2859682,646.443553 51.8751371,553.942083 C76.4560583,477.109733 106.763322,407.414346 112.968393,327.60379 C122.506159,204.939264 85.1529785,115.941881 51.8751371,0.237234893 L51.8751371,0.237234893 Z" id="Fill-1"/><path d="M699.954462,237.417676 C700.322695,356.235819 672.729767,441.972295 638.772544,553.86175 C600.144899,681.148886 566.506811,741.698428 626.148288,870.241422 C647.97837,923.046504 659.141968,949.419527 699.843992,949.419527 C740.533742,949.419527 770.072169,923.046504 748.242087,870.241422 C688.60061,741.698428 722.238698,681.148886 760.866343,553.86175 C794.823566,441.972295 822.416495,356.235819 822.048262,237.417676 C822.213966,184.682364 798.512033,158.303974 757.816146,158.303974 C717.114122,158.303974 700.120167,184.682364 699.954462,237.417676 M504.054489,870.241422 C444.406875,741.698428 478.051099,681.148886 516.678745,553.86175 C550.62983,441.972295 578.222759,356.235819 577.854526,237.417676 C582.979102,142.670149 532.273413,-3.83054489 699.843992,0.0765696313 C826.503881,3.02837318 960.577528,123.741038 944.148198,237.417676 C944.510294,356.235819 916.923502,441.972295 882.96628,553.86175 C844.338634,681.148886 810.69441,741.698428 870.342024,870.241422 C908.171831,973.833626 832.622687,1107.64693 699.843992,1107.64693 C541.810649,1107.64693 537.569832,970.55444 504.054489,870.241422" id="Fill-3"/><path d="M1226.68853,643.325827 C1168.26162,744.166274 1199.11952,773.164879 1210.7595,875.421986 C1219.50328,952.270434 1197.92914,1031.63023 1186.54074,1107.64693 L1081.56007,1107.64693 C1073.09854,1051.1898 1068.80948,990.90662 1054.57398,935.066599 C1039.96419,877.761621 999.564822,834.349573 979.039932,780.237447 C950.91255,706.061335 985.844746,628.77823 998.552384,553.942083 C1013.82487,464.032457 1034.16568,388.842145 1021.26169,297.601718 C1005.67627,187.472488 960.190168,102.311893 915.544697,0.237234893 L1040.05623,0.237234893 C1086.3891,110.527449 1132.6422,195.747071 1148.20307,314.274305 C1161.80042,417.824651 1130.50687,525.523021 1112.05595,628.300644 C1160.91071,526.274281 1223.81689,423.797162 1242.20031,314.274305 C1261.64527,198.435506 1241.93033,115.212087 1228.04458,0.237234893 L1284.20117,0.237234893 C1330.53404,110.527449 1376.78714,195.747071 1392.35415,314.274305 C1405.94537,417.824651 1374.65182,525.523021 1356.19476,628.300644 C1405.05565,526.274281 1467.9557,423.797162 1486.34526,314.274305 C1505.79022,198.435506 1486.07528,115.212087 1472.18953,0.237234893 L1596.7072,0.237234893 C1613.01666,118.818131 1632.41866,206.672526 1608.70306,327.60379 C1592.8047,408.702219 1549.25758,478.231256 1513.69337,553.942083 C1471.68024,643.395587 1415.9409,712.017747 1435.39199,810.212689 C1456.08869,914.675278 1446.49814,1002.18087 1430.68569,1107.64693 L1325.70502,1107.64693 C1314.10799,1030.2726 1310.19937,949.421015 1280.34163,875.421986 C1241.55604,779.335936 1196.55468,751.083225 1226.68853,643.325827" id="Fill-6"/><path d="M1782.12755,949.44248 L1904.14257,949.44248 L1904.14257,1107.64693 L1660.11253,1107.64693 C1660.11253,1000.69982 1656.05865,912.217587 1620.26063,810.212689 C1586.96485,715.317922 1630.55171,646.448919 1660.11253,553.942083 C1684.67499,477.109733 1714.95949,407.414346 1721.1599,327.60379 C1730.69664,204.933898 1693.36538,115.941881 1660.11253,0.237234893 L1904.14257,0.237234893 C1909.14705,55.7552885 1944.00674,106.003796 1962.0744,158.441686 L1840.05938,158.441686 C1849.3876,266.601544 1852.85885,373.704273 1806.10738,474.839857 L1928.11626,474.839857 C1897.70297,526.58015 1910.68642,581.432803 1879.83769,633.044309 L1757.8288,633.044309 C1729.53751,693.145043 1716.83004,729.436228 1733.05782,791.179001 C1748.30433,849.208406 1789.38283,885.628378 1782.12755,949.44248" id="Fill-8"/><path d="M2183.09961,158.3029 C2192.43315,266.47845 2195.90639,373.596718 2149.12209,474.746975 L2210.1675,474.746975 C2250.85216,474.746975 2292.02774,448.379319 2304.6811,395.633273 C2309.87254,343.279012 2309.1423,289.910403 2308.36911,237.421969 C2308.53479,184.686657 2284.82355,158.3029 2244.13888,158.3029 L2183.09961,158.3029 Z M2003.05003,0.0754962482 L2186.17398,0.0754962482 C2313.54214,2.42620526 2446.88106,123.739964 2430.44765,237.421969 C2431.22084,289.910403 2431.94494,343.279012 2426.76578,395.633273 C2408.00665,453.209543 2367.02744,501.136099 2336.32678,553.860677 C2361.2469,602.007276 2326.75391,667.140164 2310.82983,712.082714 C2314.70193,785.486018 2352.50246,839.28398 2365.64673,909.837451 C2377.53918,973.655444 2369.29179,1043.19457 2369.29179,1107.64586 L2247.21325,1107.64586 C2247.21325,1043.19457 2255.46063,973.655444 2243.56819,909.837451 C2230.41778,839.28398 2192.62338,785.486018 2188.75128,712.088081 C2201.86488,659.352769 2202.53989,632.969012 2161.86136,632.969012 L2100.81595,632.969012 C2051.71208,740.527367 2085.38892,767.115066 2112.48748,870.240349 C2132.91572,947.98012 2125.13471,1028.24771 2125.13471,1107.64586 L2003.05003,1107.64586 C2003.05003,1000.68323 1998.99383,912.188161 1963.17537,810.163096 C1929.85445,715.254561 1973.4662,646.375567 2003.05003,553.860677 C2027.62651,477.01718 2057.9283,407.311681 2064.13225,327.489546 C2073.6683,204.807224 2036.32186,115.796929 2003.05003,0.0754962482 L2003.05003,0.0754962482 Z" id="Fill-10"/></g><g id="Group-2-Copy" transform="translate(45.000000, 1.000000)" fill="#F9DCEB"><path d="M231.957237,158.441686 C241.292463,266.601544 244.766321,373.704273 197.973576,474.839857 L259.030007,474.839857 C299.722019,474.839857 340.905036,448.476026 353.554543,395.737632 C358.746918,343.390965 358.016548,290.030098 357.243216,237.543912 C357.40893,184.821616 333.70568,158.441686 293.00753,158.441686 L231.957237,158.441686 Z M51.8751371,0.237234893 L235.032154,0.237234893 C362.423315,2.58760291 495.780183,123.883764 479.34994,237.543912 C480.123272,290.030098 480.847504,343.390965 475.661267,395.737632 C441.941521,507.127904 353.388829,629.609981 210.715148,633.038943 L149.658717,633.038943 C100.545975,740.581695 134.228895,767.165537 161.332353,870.27586 C181.764285,948.004355 173.981861,1028.2603 173.981861,1107.64693 L51.8751371,1107.64693 C51.8751371,1000.69982 47.818211,912.217587 11.9932828,810.207322 C-21.3336591,715.312555 22.2859682,646.443553 51.8751371,553.942083 C76.4560583,477.109733 106.763322,407.414346 112.968393,327.60379 C122.506159,204.939264 85.1529785,115.941881 51.8751371,0.237234893 L51.8751371,0.237234893 Z" id="Fill-1"/><path d="M699.954462,237.417676 C700.322695,356.235819 672.729767,441.972295 638.772544,553.86175 C600.144899,681.148886 566.506811,741.698428 626.148288,870.241422 C647.97837,923.046504 659.141968,949.419527 699.843992,949.419527 C740.533742,949.419527 770.072169,923.046504 748.242087,870.241422 C688.60061,741.698428 722.238698,681.148886 760.866343,553.86175 C794.823566,441.972295 822.416495,356.235819 822.048262,237.417676 C822.213966,184.682364 798.512033,158.303974 757.816146,158.303974 C717.114122,158.303974 700.120167,184.682364 699.954462,237.417676 M504.054489,870.241422 C444.406875,741.698428 478.051099,681.148886 516.678745,553.86175 C550.62983,441.972295 578.222759,356.235819 577.854526,237.417676 C582.979102,142.670149 532.273413,-3.83054489 699.843992,0.0765696313 C826.503881,3.02837318 960.577528,123.741038 944.148198,237.417676 C944.510294,356.235819 916.923502,441.972295 882.96628,553.86175 C844.338634,681.148886 810.69441,741.698428 870.342024,870.241422 C908.171831,973.833626 832.622687,1107.64693 699.843992,1107.64693 C541.810649,1107.64693 537.569832,970.55444 504.054489,870.241422" id="Fill-3"/><path d="M1226.68853,643.325827 C1168.26162,744.166274 1199.11952,773.164879 1210.7595,875.421986 C1219.50328,952.270434 1197.92914,1031.63023 1186.54074,1107.64693 L1081.56007,1107.64693 C1073.09854,1051.1898 1068.80948,990.90662 1054.57398,935.066599 C1039.96419,877.761621 999.564822,834.349573 979.039932,780.237447 C950.91255,706.061335 985.844746,628.77823 998.552384,553.942083 C1013.82487,464.032457 1034.16568,388.842145 1021.26169,297.601718 C1005.67627,187.472488 960.190168,102.311893 915.544697,0.237234893 L1040.05623,0.237234893 C1086.3891,110.527449 1132.6422,195.747071 1148.20307,314.274305 C1161.80042,417.824651 1130.50687,525.523021 1112.05595,628.300644 C1160.91071,526.274281 1223.81689,423.797162 1242.20031,314.274305 C1261.64527,198.435506 1241.93033,115.212087 1228.04458,0.237234893 L1284.20117,0.237234893 C1330.53404,110.527449 1376.78714,195.747071 1392.35415,314.274305 C1405.94537,417.824651 1374.65182,525.523021 1356.19476,628.300644 C1405.05565,526.274281 1467.9557,423.797162 1486.34526,314.274305 C1505.79022,198.435506 1486.07528,115.212087 1472.18953,0.237234893 L1596.7072,0.237234893 C1613.01666,118.818131 1632.41866,206.672526 1608.70306,327.60379 C1592.8047,408.702219 1549.25758,478.231256 1513.69337,553.942083 C1471.68024,643.395587 1415.9409,712.017747 1435.39199,810.212689 C1456.08869,914.675278 1446.49814,1002.18087 1430.68569,1107.64693 L1325.70502,1107.64693 C1314.10799,1030.2726 1310.19937,949.421015 1280.34163,875.421986 C1241.55604,779.335936 1196.55468,751.083225 1226.68853,643.325827" id="Fill-6"/><path d="M1782.12755,949.44248 L1904.14257,949.44248 L1904.14257,1107.64693 L1660.11253,1107.64693 C1660.11253,1000.69982 1656.05865,912.217587 1620.26063,810.212689 C1586.96485,715.317922 1630.55171,646.448919 1660.11253,553.942083 C1684.67499,477.109733 1714.95949,407.414346 1721.1599,327.60379 C1730.69664,204.933898 1693.36538,115.941881 1660.11253,0.237234893 L1904.14257,0.237234893 C1909.14705,55.7552885 1944.00674,106.003796 1962.0744,158.441686 L1840.05938,158.441686 C1849.3876,266.601544 1852.85885,373.704273 1806.10738,474.839857 L1928.11626,474.839857 C1897.70297,526.58015 1910.68642,581.432803 1879.83769,633.044309 L1757.8288,633.044309 C1729.53751,693.145043 1716.83004,729.436228 1733.05782,791.179001 C1748.30433,849.208406 1789.38283,885.628378 1782.12755,949.44248" id="Fill-8"/><path d="M2183.09961,158.3029 C2192.43315,266.47845 2195.90639,373.596718 2149.12209,474.746975 L2210.1675,474.746975 C2250.85216,474.746975 2292.02774,448.379319 2304.6811,395.633273 C2309.87254,343.279012 2309.1423,289.910403 2308.36911,237.421969 C2308.53479,184.686657 2284.82355,158.3029 2244.13888,158.3029 L2183.09961,158.3029 Z M2003.05003,0.0754962482 L2186.17398,0.0754962482 C2313.54214,2.42620526 2446.88106,123.739964 2430.44765,237.421969 C2431.22084,289.910403 2431.94494,343.279012 2426.76578,395.633273 C2408.00665,453.209543 2367.02744,501.136099 2336.32678,553.860677 C2361.2469,602.007276 2326.75391,667.140164 2310.82983,712.082714 C2314.70193,785.486018 2352.50246,839.28398 2365.64673,909.837451 C2377.53918,973.655444 2369.29179,1043.19457 2369.29179,1107.64586 L2247.21325,1107.64586 C2247.21325,1043.19457 2255.46063,973.655444 2243.56819,909.837451 C2230.41778,839.28398 2192.62338,785.486018 2188.75128,712.088081 C2201.86488,659.352769 2202.53989,632.969012 2161.86136,632.969012 L2100.81595,632.969012 C2051.71208,740.527367 2085.38892,767.115066 2112.48748,870.240349 C2132.91572,947.98012 2125.13471,1028.24771 2125.13471,1107.64586 L2003.05003,1107.64586 C2003.05003,1000.68323 1998.99383,912.188161 1963.17537,810.163096 C1929.85445,715.254561 1973.4662,646.375567 2003.05003,553.860677 C2027.62651,477.01718 2057.9283,407.311681 2064.13225,327.489546 C2073.6683,204.807224 2036.32186,115.796929 2003.05003,0.0754962482 L2003.05003,0.0754962482 Z" id="Fill-10"/></g></g></g></svg>